%TF.GenerationSoftware,KiCad,Pcbnew,8.0.2-1*%
%TF.CreationDate,2024-11-11T16:17:41-08:00*%
%TF.ProjectId,Main_Board_V2,4d61696e-5f42-46f6-9172-645f56322e6b,rev?*%
%TF.SameCoordinates,Original*%
%TF.FileFunction,Paste,Top*%
%TF.FilePolarity,Positive*%
%FSLAX46Y46*%
G04 Gerber Fmt 4.6, Leading zero omitted, Abs format (unit mm)*
G04 Created by KiCad (PCBNEW 8.0.2-1) date 2024-11-11 16:17:41*
%MOMM*%
%LPD*%
G01*
G04 APERTURE LIST*
G04 Aperture macros list*
%AMRoundRect*
0 Rectangle with rounded corners*
0 $1 Rounding radius*
0 $2 $3 $4 $5 $6 $7 $8 $9 X,Y pos of 4 corners*
0 Add a 4 corners polygon primitive as box body*
4,1,4,$2,$3,$4,$5,$6,$7,$8,$9,$2,$3,0*
0 Add four circle primitives for the rounded corners*
1,1,$1+$1,$2,$3*
1,1,$1+$1,$4,$5*
1,1,$1+$1,$6,$7*
1,1,$1+$1,$8,$9*
0 Add four rect primitives between the rounded corners*
20,1,$1+$1,$2,$3,$4,$5,0*
20,1,$1+$1,$4,$5,$6,$7,0*
20,1,$1+$1,$6,$7,$8,$9,0*
20,1,$1+$1,$8,$9,$2,$3,0*%
G04 Aperture macros list end*
%ADD10C,0.010000*%
%ADD11RoundRect,0.135000X0.135000X0.185000X-0.135000X0.185000X-0.135000X-0.185000X0.135000X-0.185000X0*%
%ADD12RoundRect,0.250000X-0.475000X0.250000X-0.475000X-0.250000X0.475000X-0.250000X0.475000X0.250000X0*%
%ADD13R,0.400000X0.800000*%
%ADD14R,0.800000X0.400000*%
%ADD15R,1.200000X1.200000*%
%ADD16R,0.800000X0.800000*%
%ADD17RoundRect,0.135000X0.185000X-0.135000X0.185000X0.135000X-0.185000X0.135000X-0.185000X-0.135000X0*%
%ADD18RoundRect,0.135000X-0.135000X-0.185000X0.135000X-0.185000X0.135000X0.185000X-0.135000X0.185000X0*%
%ADD19RoundRect,0.150000X0.587500X0.150000X-0.587500X0.150000X-0.587500X-0.150000X0.587500X-0.150000X0*%
%ADD20RoundRect,0.150000X0.512500X0.150000X-0.512500X0.150000X-0.512500X-0.150000X0.512500X-0.150000X0*%
%ADD21RoundRect,0.140000X0.140000X0.170000X-0.140000X0.170000X-0.140000X-0.170000X0.140000X-0.170000X0*%
%ADD22RoundRect,0.225000X-0.250000X0.225000X-0.250000X-0.225000X0.250000X-0.225000X0.250000X0.225000X0*%
%ADD23RoundRect,0.225000X-0.225000X-0.250000X0.225000X-0.250000X0.225000X0.250000X-0.225000X0.250000X0*%
%ADD24RoundRect,0.135000X-0.185000X0.135000X-0.185000X-0.135000X0.185000X-0.135000X0.185000X0.135000X0*%
%ADD25R,1.600000X5.700000*%
%ADD26RoundRect,0.140000X-0.170000X0.140000X-0.170000X-0.140000X0.170000X-0.140000X0.170000X0.140000X0*%
%ADD27RoundRect,0.250000X0.300000X-0.300000X0.300000X0.300000X-0.300000X0.300000X-0.300000X-0.300000X0*%
%ADD28R,0.610000X1.270000*%
%ADD29R,3.910000X3.810000*%
%ADD30R,0.610000X1.020000*%
%ADD31R,1.150000X0.300000*%
%ADD32R,0.900000X1.500000*%
%ADD33RoundRect,0.175000X-0.175000X-0.325000X0.175000X-0.325000X0.175000X0.325000X-0.175000X0.325000X0*%
%ADD34RoundRect,0.150000X-0.200000X-0.150000X0.200000X-0.150000X0.200000X0.150000X-0.200000X0.150000X0*%
%ADD35RoundRect,0.150000X-0.150000X0.587500X-0.150000X-0.587500X0.150000X-0.587500X0.150000X0.587500X0*%
%ADD36RoundRect,0.150000X0.150000X-0.325000X0.150000X0.325000X-0.150000X0.325000X-0.150000X-0.325000X0*%
%ADD37RoundRect,0.150000X0.325000X-0.150000X0.325000X0.150000X-0.325000X0.150000X-0.325000X-0.150000X0*%
%ADD38R,0.600000X1.550000*%
%ADD39R,3.100000X2.600000*%
%ADD40RoundRect,0.140000X-0.140000X-0.170000X0.140000X-0.170000X0.140000X0.170000X-0.140000X0.170000X0*%
%ADD41R,0.650000X1.050000*%
%ADD42R,0.800000X1.700000*%
%ADD43RoundRect,0.250000X-0.300000X-0.300000X0.300000X-0.300000X0.300000X0.300000X-0.300000X0.300000X0*%
G04 APERTURE END LIST*
D10*
%TO.C,U1*%
X144250000Y-75850000D02*
X144250000Y-76450000D01*
X143050000Y-76450000D01*
X143050000Y-75250000D01*
X143650000Y-75250000D01*
X144250000Y-75850000D01*
G36*
X144250000Y-75850000D02*
G01*
X144250000Y-76450000D01*
X143050000Y-76450000D01*
X143050000Y-75250000D01*
X143650000Y-75250000D01*
X144250000Y-75850000D01*
G37*
%TD*%
D11*
%TO.C,R25*%
X127510000Y-72500000D03*
X126490000Y-72500000D03*
%TD*%
D12*
%TO.C,C6*%
X116000000Y-75550000D03*
X116000000Y-77450000D03*
%TD*%
D13*
%TO.C,U1*%
X147950000Y-70500000D03*
X147100000Y-70500000D03*
X146250000Y-70500000D03*
X145400000Y-70500000D03*
X144550000Y-70500000D03*
X143700000Y-70500000D03*
X142850000Y-70500000D03*
X142000000Y-70500000D03*
X141150000Y-70500000D03*
X140300000Y-70500000D03*
X139450000Y-70500000D03*
X138600000Y-70500000D03*
X137750000Y-70500000D03*
X136900000Y-70500000D03*
X136050000Y-70500000D03*
D14*
X135000000Y-71550000D03*
X135000000Y-72400000D03*
X135000000Y-73250000D03*
X135000000Y-74100000D03*
X135000000Y-74950000D03*
X135000000Y-75800000D03*
X135000000Y-76650000D03*
X135000000Y-77500000D03*
X135000000Y-78350000D03*
X135000000Y-79200000D03*
X135000000Y-80050000D03*
X135000000Y-80900000D03*
X135000000Y-81750000D03*
X135000000Y-82600000D03*
X135000000Y-83450000D03*
D13*
X136050000Y-84500000D03*
X136900000Y-84500000D03*
X137750000Y-84500000D03*
X138600000Y-84500000D03*
X139450000Y-84500000D03*
X140300000Y-84500000D03*
X141150000Y-84500000D03*
X142000000Y-84500000D03*
X142850000Y-84500000D03*
X143700000Y-84500000D03*
X144550000Y-84500000D03*
X145400000Y-84500000D03*
X146250000Y-84500000D03*
X147100000Y-84500000D03*
X147950000Y-84500000D03*
D14*
X149000000Y-83450000D03*
X149000000Y-82600000D03*
X149000000Y-81750000D03*
X149000000Y-80900000D03*
X149000000Y-80050000D03*
X149000000Y-79200000D03*
X149000000Y-78350000D03*
X149000000Y-77500000D03*
X149000000Y-76650000D03*
X149000000Y-75800000D03*
X149000000Y-74950000D03*
X149000000Y-74100000D03*
X149000000Y-73250000D03*
X149000000Y-72400000D03*
X149000000Y-71550000D03*
D15*
X142000000Y-77500000D03*
X143650000Y-77500000D03*
X143650000Y-79150000D03*
X142000000Y-79150000D03*
X140350000Y-79150000D03*
X140350000Y-77500000D03*
X140350000Y-75850000D03*
X142000000Y-75850000D03*
D16*
X149000000Y-70500000D03*
X135000000Y-70500000D03*
X135000000Y-84500000D03*
X149000000Y-84500000D03*
%TD*%
D17*
%TO.C,R2*%
X148500000Y-95010000D03*
X148500000Y-93990000D03*
%TD*%
D18*
%TO.C,R4*%
X105490000Y-80000000D03*
X106510000Y-80000000D03*
%TD*%
D19*
%TO.C,Q9*%
X131437500Y-72450000D03*
X131437500Y-70550000D03*
X129562500Y-71500000D03*
%TD*%
D20*
%TO.C,U2*%
X107637500Y-78450000D03*
X107637500Y-77500000D03*
X107637500Y-76550000D03*
X105362500Y-76550000D03*
X105362500Y-78450000D03*
%TD*%
D21*
%TO.C,C3*%
X146980000Y-86500000D03*
X146020000Y-86500000D03*
%TD*%
D11*
%TO.C,R19*%
X120520000Y-108500000D03*
X119500000Y-108500000D03*
%TD*%
%TO.C,R17*%
X110500000Y-108500000D03*
X109480000Y-108500000D03*
%TD*%
D22*
%TO.C,C14*%
X114000000Y-110205000D03*
X114000000Y-111755000D03*
%TD*%
D23*
%TO.C,C11*%
X105225000Y-117500000D03*
X106775000Y-117500000D03*
%TD*%
D24*
%TO.C,R26*%
X127500000Y-69490000D03*
X127500000Y-70510000D03*
%TD*%
D25*
%TO.C,L3*%
X112150000Y-102500000D03*
X116850000Y-102500000D03*
%TD*%
D26*
%TO.C,C5*%
X103500000Y-76520000D03*
X103500000Y-77480000D03*
%TD*%
D21*
%TO.C,C1*%
X147980000Y-89000000D03*
X147020000Y-89000000D03*
%TD*%
D27*
%TO.C,D2*%
X105000000Y-73400000D03*
X105000000Y-70600000D03*
%TD*%
D28*
%TO.C,Q10*%
X131595000Y-67360000D03*
X132865000Y-67360000D03*
X134135000Y-67360000D03*
X135405000Y-67360000D03*
D29*
X133500000Y-64000000D03*
D30*
X131595000Y-61895000D03*
X132865000Y-61895000D03*
X134135000Y-61895000D03*
X135405000Y-61895000D03*
%TD*%
D31*
%TO.C,J13*%
X145015000Y-105250000D03*
X145015000Y-103750000D03*
X145015000Y-103250000D03*
X145015000Y-102750000D03*
X145015000Y-102250000D03*
X145015000Y-101750000D03*
X145015000Y-101250000D03*
X145015000Y-99750000D03*
X147985000Y-99750000D03*
X147985000Y-101250000D03*
X147985000Y-101750000D03*
X147985000Y-102250000D03*
X147985000Y-102750000D03*
X147985000Y-103250000D03*
X147985000Y-103750000D03*
X147985000Y-105250000D03*
%TD*%
D17*
%TO.C,R8*%
X122500000Y-122010000D03*
X122500000Y-120990000D03*
%TD*%
D32*
%TO.C,U3*%
X153650000Y-50050000D03*
X150350000Y-50050000D03*
X150350000Y-54950000D03*
X153650000Y-54950000D03*
%TD*%
D23*
%TO.C,C13*%
X115205000Y-117500000D03*
X116755000Y-117500000D03*
%TD*%
D33*
%TO.C,D5*%
X143000000Y-94250000D03*
D34*
X143000000Y-95950000D03*
X145000000Y-95950000D03*
X145000000Y-94050000D03*
%TD*%
D12*
%TO.C,C7*%
X113500000Y-75550000D03*
X113500000Y-77450000D03*
%TD*%
D35*
%TO.C,Q8*%
X124450000Y-84062500D03*
X122550000Y-84062500D03*
X123500000Y-85937500D03*
%TD*%
D27*
%TO.C,D1*%
X102000000Y-73400000D03*
X102000000Y-70600000D03*
%TD*%
D24*
%TO.C,R11*%
X140500000Y-106490000D03*
X140500000Y-107510000D03*
%TD*%
D21*
%TO.C,C8*%
X120980000Y-123500000D03*
X120020000Y-123500000D03*
%TD*%
D36*
%TO.C,U4*%
X117000000Y-122000000D03*
X117800000Y-122000000D03*
X118600000Y-122000000D03*
X119400000Y-122000000D03*
X120200000Y-122000000D03*
X121000000Y-122000000D03*
D37*
X121000000Y-121000000D03*
D36*
X121000000Y-120000000D03*
X120200000Y-120000000D03*
X119400000Y-120000000D03*
X118600000Y-120000000D03*
X117800000Y-120000000D03*
X117000000Y-120000000D03*
D37*
X117000000Y-121000000D03*
%TD*%
D12*
%TO.C,C4*%
X101500000Y-75550000D03*
X101500000Y-77450000D03*
%TD*%
D38*
%TO.C,U8*%
X115595000Y-115700000D03*
X116865000Y-115700000D03*
X118135000Y-115700000D03*
X119405000Y-115700000D03*
X119405000Y-110300000D03*
X118135000Y-110300000D03*
X116865000Y-110300000D03*
X115595000Y-110300000D03*
D39*
X117500000Y-113000000D03*
%TD*%
D24*
%TO.C,R12*%
X142500000Y-106490000D03*
X142500000Y-107510000D03*
%TD*%
D40*
%TO.C,C10*%
X117020000Y-123500000D03*
X117980000Y-123500000D03*
%TD*%
D11*
%TO.C,R18*%
X119500000Y-117500000D03*
X118480000Y-117500000D03*
%TD*%
D18*
%TO.C,R5*%
X146990000Y-87500000D03*
X148010000Y-87500000D03*
%TD*%
D17*
%TO.C,R9*%
X115500000Y-122010000D03*
X115500000Y-120990000D03*
%TD*%
%TO.C,R1*%
X148500000Y-91010000D03*
X148500000Y-89990000D03*
%TD*%
D26*
%TO.C,C15*%
X126000000Y-69520000D03*
X126000000Y-70480000D03*
%TD*%
D41*
%TO.C,SW1*%
X151925000Y-61075000D03*
X151925000Y-56925000D03*
X154075000Y-61075000D03*
X154075000Y-56950000D03*
%TD*%
D38*
%TO.C,U7*%
X105595000Y-115700000D03*
X106865000Y-115700000D03*
X108135000Y-115700000D03*
X109405000Y-115700000D03*
X109405000Y-110300000D03*
X108135000Y-110300000D03*
X106865000Y-110300000D03*
X105595000Y-110300000D03*
D39*
X107500000Y-113000000D03*
%TD*%
D42*
%TO.C,L1*%
X109700000Y-75500000D03*
X111300000Y-75500000D03*
%TD*%
D22*
%TO.C,C12*%
X104000000Y-110225000D03*
X104000000Y-111775000D03*
%TD*%
D23*
%TO.C,C2*%
X146225000Y-68500000D03*
X147775000Y-68500000D03*
%TD*%
D11*
%TO.C,R20*%
X124010000Y-82500000D03*
X122990000Y-82500000D03*
%TD*%
D35*
%TO.C,Q1*%
X120950000Y-87625000D03*
X119050000Y-87625000D03*
X120000000Y-89500000D03*
%TD*%
D41*
%TO.C,SW3*%
X151925000Y-68075000D03*
X151925000Y-63925000D03*
X154075000Y-68075000D03*
X154075000Y-63950000D03*
%TD*%
D11*
%TO.C,R16*%
X109510000Y-117500000D03*
X108490000Y-117500000D03*
%TD*%
D18*
%TO.C,R6*%
X109490000Y-107000000D03*
X110510000Y-107000000D03*
%TD*%
D35*
%TO.C,Q2*%
X116950000Y-87625000D03*
X115050000Y-87625000D03*
X116000000Y-89500000D03*
%TD*%
D17*
%TO.C,R3*%
X104000000Y-81010000D03*
X104000000Y-79990000D03*
%TD*%
D18*
%TO.C,R7*%
X119490000Y-107000000D03*
X120510000Y-107000000D03*
%TD*%
D17*
%TO.C,R10*%
X114000000Y-122010000D03*
X114000000Y-120990000D03*
%TD*%
D28*
%TO.C,Q4*%
X125595000Y-67360000D03*
X126865000Y-67360000D03*
X128135000Y-67360000D03*
X129405000Y-67360000D03*
D29*
X127500000Y-64000000D03*
D30*
X125595000Y-61895000D03*
X126865000Y-61895000D03*
X128135000Y-61895000D03*
X129405000Y-61895000D03*
%TD*%
D43*
%TO.C,D4*%
X114100000Y-107500000D03*
X116900000Y-107500000D03*
%TD*%
%TO.C,D3*%
X104100000Y-107500000D03*
X106900000Y-107500000D03*
%TD*%
D28*
%TO.C,Q3*%
X119595000Y-67360000D03*
X120865000Y-67360000D03*
X122135000Y-67360000D03*
X123405000Y-67360000D03*
D29*
X121500000Y-64000000D03*
D30*
X119595000Y-61895000D03*
X120865000Y-61895000D03*
X122135000Y-61895000D03*
X123405000Y-61895000D03*
%TD*%
D25*
%TO.C,L2*%
X102150000Y-102500000D03*
X106850000Y-102500000D03*
%TD*%
M02*
