%TF.GenerationSoftware,KiCad,Pcbnew,8.0.2-1*%
%TF.CreationDate,2024-11-11T16:17:41-08:00*%
%TF.ProjectId,Main_Board_V2,4d61696e-5f42-46f6-9172-645f56322e6b,rev?*%
%TF.SameCoordinates,Original*%
%TF.FileFunction,Copper,L3,Inr*%
%TF.FilePolarity,Positive*%
%FSLAX46Y46*%
G04 Gerber Fmt 4.6, Leading zero omitted, Abs format (unit mm)*
G04 Created by KiCad (PCBNEW 8.0.2-1) date 2024-11-11 16:17:41*
%MOMM*%
%LPD*%
G01*
G04 APERTURE LIST*
G04 Aperture macros list*
%AMRoundRect*
0 Rectangle with rounded corners*
0 $1 Rounding radius*
0 $2 $3 $4 $5 $6 $7 $8 $9 X,Y pos of 4 corners*
0 Add a 4 corners polygon primitive as box body*
4,1,4,$2,$3,$4,$5,$6,$7,$8,$9,$2,$3,0*
0 Add four circle primitives for the rounded corners*
1,1,$1+$1,$2,$3*
1,1,$1+$1,$4,$5*
1,1,$1+$1,$6,$7*
1,1,$1+$1,$8,$9*
0 Add four rect primitives between the rounded corners*
20,1,$1+$1,$2,$3,$4,$5,0*
20,1,$1+$1,$4,$5,$6,$7,0*
20,1,$1+$1,$6,$7,$8,$9,0*
20,1,$1+$1,$8,$9,$2,$3,0*%
G04 Aperture macros list end*
%TA.AperFunction,ComponentPad*%
%ADD10R,2.000000X2.000000*%
%TD*%
%TA.AperFunction,ComponentPad*%
%ADD11C,2.000000*%
%TD*%
%TA.AperFunction,ComponentPad*%
%ADD12C,1.508000*%
%TD*%
%TA.AperFunction,ComponentPad*%
%ADD13R,2.550000X2.550000*%
%TD*%
%TA.AperFunction,ComponentPad*%
%ADD14C,2.550000*%
%TD*%
%TA.AperFunction,ComponentPad*%
%ADD15C,1.700000*%
%TD*%
%TA.AperFunction,ComponentPad*%
%ADD16R,0.900000X2.000000*%
%TD*%
%TA.AperFunction,ComponentPad*%
%ADD17RoundRect,1.025000X-1.025000X-1.025000X1.025000X-1.025000X1.025000X1.025000X-1.025000X1.025000X0*%
%TD*%
%TA.AperFunction,ComponentPad*%
%ADD18C,4.100000*%
%TD*%
%TA.AperFunction,ComponentPad*%
%ADD19O,1.100000X1.600000*%
%TD*%
%TA.AperFunction,ComponentPad*%
%ADD20R,1.700000X1.700000*%
%TD*%
%TA.AperFunction,ComponentPad*%
%ADD21O,1.700000X1.700000*%
%TD*%
%TA.AperFunction,ComponentPad*%
%ADD22R,2.000000X0.900000*%
%TD*%
%TA.AperFunction,ComponentPad*%
%ADD23RoundRect,1.025000X-1.025000X1.025000X-1.025000X-1.025000X1.025000X-1.025000X1.025000X1.025000X0*%
%TD*%
%TA.AperFunction,ComponentPad*%
%ADD24C,0.600000*%
%TD*%
%TA.AperFunction,ComponentPad*%
%ADD25RoundRect,0.250000X0.725000X-0.600000X0.725000X0.600000X-0.725000X0.600000X-0.725000X-0.600000X0*%
%TD*%
%TA.AperFunction,ComponentPad*%
%ADD26O,1.950000X1.700000*%
%TD*%
%TA.AperFunction,ViaPad*%
%ADD27C,0.450000*%
%TD*%
%TA.AperFunction,Conductor*%
%ADD28C,0.500000*%
%TD*%
%TA.AperFunction,Conductor*%
%ADD29C,0.200000*%
%TD*%
%TA.AperFunction,Conductor*%
%ADD30C,1.000000*%
%TD*%
G04 APERTURE END LIST*
D10*
%TO.N,+17V_SW*%
%TO.C,BZ3*%
X129000000Y-95800000D03*
D11*
%TO.N,unconnected-(Q8-D-Pad3)*%
X129000000Y-88200000D03*
%TD*%
D12*
%TO.N,*%
%TO.C,J1*%
X136000000Y-51500000D03*
X147000000Y-51500000D03*
D13*
%TO.N,+17V_SW*%
X144000000Y-56500000D03*
D14*
%TO.N,GND*%
X139000000Y-56500000D03*
%TD*%
D15*
%TO.N,GND*%
%TO.C,U10*%
X134420000Y-102519492D03*
X134420000Y-105059492D03*
X134420000Y-107599492D03*
%TO.N,+6V*%
X131880000Y-102519492D03*
X131880000Y-105059492D03*
X131880000Y-107599492D03*
%TO.N,unconnected-(U10-CH1-Pad7)*%
X129340000Y-102519492D03*
%TO.N,/Drive System/STEERING_RECEIVER*%
X129340000Y-105059492D03*
%TO.N,/Drive System/THROTTLE_RECEIVER*%
X129340000Y-107599492D03*
%TD*%
D16*
%TO.N,*%
%TO.C,J4*%
X102250000Y-52150000D03*
X115750000Y-52150000D03*
D17*
%TO.N,GND*%
X105400000Y-58150000D03*
D18*
%TO.N,+17V*%
X112600000Y-58150000D03*
%TD*%
D19*
%TO.N,GND*%
%TO.C,J13*%
X145070000Y-106500000D03*
X145070000Y-98500000D03*
X147930000Y-106500000D03*
X147930000Y-98500000D03*
%TD*%
D16*
%TO.N,*%
%TO.C,J8*%
X119250000Y-52000000D03*
X132750000Y-52000000D03*
D17*
%TO.N,GND*%
X129600000Y-58000000D03*
D18*
%TO.N,+17V_SW*%
X122400000Y-58000000D03*
%TD*%
D20*
%TO.N,/PWR & USB/ON*%
%TO.C,J5*%
X148000000Y-65300000D03*
D21*
%TO.N,GND*%
X148000000Y-62760000D03*
%TO.N,/ESP32/PWRBUT*%
X148000000Y-60220000D03*
%TO.N,GND*%
X148000000Y-57680000D03*
%TD*%
D22*
%TO.N,*%
%TO.C,J6*%
X147350000Y-109750000D03*
X147350000Y-123250000D03*
D23*
%TO.N,GND*%
X141350000Y-120100000D03*
D18*
%TO.N,+17V*%
X141350000Y-112900000D03*
%TD*%
D20*
%TO.N,+17V_SW*%
%TO.C,M2*%
X120000000Y-95837500D03*
D21*
%TO.N,Net-(M2--)*%
X120000000Y-93297500D03*
%TD*%
D20*
%TO.N,/Drive System/THROTTLE_RECEIVER*%
%TO.C,J7*%
X138500000Y-67540000D03*
D21*
%TO.N,+6V*%
X138500000Y-65000000D03*
%TO.N,GND*%
X138500000Y-62460000D03*
%TD*%
D20*
%TO.N,/Drive System/STEERING_RECEIVER*%
%TO.C,J2*%
X142500000Y-67540000D03*
D21*
%TO.N,unconnected-(J2-Pin_2-Pad2)*%
X142500000Y-65000000D03*
%TO.N,GND*%
X142500000Y-62460000D03*
%TD*%
D24*
%TO.N,GND*%
%TO.C,U8*%
X115700000Y-113600000D03*
X116900000Y-113600000D03*
X118200000Y-113600000D03*
X119300000Y-113600000D03*
X115700000Y-112400000D03*
X116900000Y-112400000D03*
X118200000Y-112400000D03*
X119300000Y-112400000D03*
%TD*%
D25*
%TO.N,+17V_SW*%
%TO.C,J3*%
X102975000Y-94500000D03*
D26*
%TO.N,Net-(J3-Pin_2)*%
X102975000Y-92000000D03*
%TO.N,/ESP32/LED_SIG_FRONT*%
X102975000Y-89500000D03*
%TO.N,GND*%
X102975000Y-87000000D03*
%TD*%
D24*
%TO.N,GND*%
%TO.C,U7*%
X105700000Y-113600000D03*
X106900000Y-113600000D03*
X108200000Y-113600000D03*
X109300000Y-113600000D03*
X105700000Y-112400000D03*
X106900000Y-112400000D03*
X108200000Y-112400000D03*
X109300000Y-112400000D03*
%TD*%
D25*
%TO.N,+17V_SW*%
%TO.C,J12*%
X109975000Y-94500000D03*
D26*
%TO.N,Net-(J12-Pin_2)*%
X109975000Y-92000000D03*
%TO.N,/ESP32/LED_SIG_REAR*%
X109975000Y-89500000D03*
%TO.N,GND*%
X109975000Y-87000000D03*
%TD*%
D20*
%TO.N,+6V*%
%TO.C,M3*%
X116000000Y-95837500D03*
D21*
%TO.N,Net-(M3--)*%
X116000000Y-93297500D03*
%TD*%
D27*
%TO.N,/PWR & USB/ON*%
X135500000Y-68500000D03*
X130000000Y-70500000D03*
X130500000Y-67500000D03*
X124500000Y-67500000D03*
%TO.N,/Drive System/STEERING_RECEIVER*%
X138500000Y-81000000D03*
%TO.N,GND*%
X106500000Y-78500000D03*
X141000000Y-76000000D03*
X105000000Y-77500000D03*
X118750000Y-123000000D03*
X147750000Y-69500000D03*
X133750000Y-70500000D03*
X141000000Y-79000000D03*
X154000000Y-66000000D03*
X148500000Y-96000000D03*
X135000000Y-86250000D03*
X141000000Y-77500000D03*
X119000000Y-86250000D03*
X115000000Y-86250000D03*
X150500000Y-53000000D03*
X141500000Y-94000000D03*
X152000000Y-59000000D03*
X114000000Y-79500000D03*
X125500000Y-72500000D03*
X119250000Y-123500000D03*
X148500000Y-92000000D03*
X121500000Y-84000000D03*
X145525000Y-87490000D03*
X106000000Y-77500000D03*
%TO.N,+3V3*%
X150500000Y-57000000D03*
X122500000Y-124000000D03*
X147000000Y-86500000D03*
X147000000Y-67500000D03*
X133500000Y-73500000D03*
X146925000Y-82500000D03*
%TO.N,+5V*%
X146500000Y-101250000D03*
X106500000Y-70500000D03*
X146500000Y-103750000D03*
X136250000Y-103000000D03*
X145000000Y-95000000D03*
X107500000Y-83000000D03*
%TO.N,+17V*%
X115000000Y-63000000D03*
X112000000Y-67500000D03*
X110500000Y-69000000D03*
X112000000Y-66000000D03*
X115000000Y-69000000D03*
X112000000Y-64500000D03*
X118000000Y-67500000D03*
X113500000Y-67500000D03*
X116500000Y-69000000D03*
X116500000Y-64500000D03*
X110500000Y-67500000D03*
X115000000Y-67500000D03*
X113500000Y-66000000D03*
X121000000Y-69000000D03*
X129500000Y-69000000D03*
X133000000Y-69000000D03*
X115000000Y-64500000D03*
X118000000Y-63000000D03*
X110500000Y-63000000D03*
X116500000Y-67500000D03*
X128500000Y-69000000D03*
X115000000Y-66000000D03*
X127000000Y-69000000D03*
X118000000Y-66000000D03*
X125500000Y-69000000D03*
X113500000Y-69000000D03*
X119500000Y-69000000D03*
X113500000Y-63000000D03*
X124000000Y-69000000D03*
X116500000Y-63000000D03*
X131500000Y-69000000D03*
X110500000Y-66000000D03*
X112000000Y-69000000D03*
X118000000Y-69000000D03*
X118000000Y-64500000D03*
X122500000Y-69000000D03*
X116500000Y-66000000D03*
X112000000Y-63000000D03*
X113500000Y-64500000D03*
%TO.N,/Drive System/THROTTLE_RECEIVER*%
X137969668Y-80030332D03*
%TO.N,/ESP32/DN*%
X144350000Y-86000000D03*
X146000000Y-102225000D03*
X144349996Y-83496852D03*
X146997102Y-102775000D03*
%TO.N,/ESP32/DP*%
X143650000Y-86000000D03*
X143700001Y-83500000D03*
%TO.N,/ESP32/PWRBUT*%
X144500000Y-71500000D03*
%TO.N,+17V_SW*%
X135000000Y-64500000D03*
X126000000Y-64500000D03*
X135000000Y-62500000D03*
X126000000Y-63500000D03*
X127500000Y-65500000D03*
X105000000Y-109000000D03*
X104000000Y-69000000D03*
X126000000Y-65500000D03*
X113500000Y-109000000D03*
X105500000Y-69000000D03*
X127500000Y-63500000D03*
X129000000Y-63500000D03*
X133500000Y-64500000D03*
X133500000Y-63500000D03*
X121500000Y-62500000D03*
X135000000Y-65500000D03*
X127500000Y-62500000D03*
X132000000Y-62500000D03*
X127500000Y-64500000D03*
X104000000Y-68000000D03*
X132000000Y-64500000D03*
X105500000Y-108000000D03*
X123000000Y-64500000D03*
X135000000Y-63500000D03*
X102500000Y-68000000D03*
X115000000Y-109000000D03*
X115500000Y-108000000D03*
X133500000Y-65500000D03*
X129000000Y-65500000D03*
X121500000Y-64500000D03*
X103500000Y-109000000D03*
X123000000Y-62500000D03*
X129000000Y-64500000D03*
X105500000Y-68000000D03*
X132000000Y-65500000D03*
X132000000Y-63500000D03*
X123000000Y-65500000D03*
X102500000Y-67000000D03*
X120000000Y-64500000D03*
X121500000Y-65500000D03*
X120000000Y-62500000D03*
X102500000Y-69000000D03*
X126000000Y-62500000D03*
X104000000Y-67000000D03*
X123000000Y-63500000D03*
X120000000Y-63500000D03*
X121500000Y-63500000D03*
X133500000Y-62500000D03*
X120000000Y-65500000D03*
X129000000Y-62500000D03*
%TO.N,/ESP32/ADXL_SCL*%
X123500000Y-121000000D03*
X116250000Y-120990000D03*
%TO.N,/ESP32/ONBOARD_LED_SIG*%
X153000000Y-62500000D03*
X153000000Y-61000000D03*
%TO.N,Net-(U1-IO0{slash}BOOT)*%
X144999991Y-83500126D03*
X144975000Y-86500000D03*
%TD*%
D28*
%TO.N,+3V3*%
X142800000Y-124000000D02*
X145300000Y-121500000D01*
X150500000Y-66500000D02*
X149500000Y-67500000D01*
X146990000Y-86490000D02*
X146990000Y-86350000D01*
X146925000Y-86285000D02*
X146925000Y-82500000D01*
X149250000Y-119750000D02*
X149250000Y-90000000D01*
X149250000Y-90000000D02*
X146990000Y-87740000D01*
X147000000Y-67500000D02*
X146270000Y-68230000D01*
X133500000Y-73500000D02*
X141020000Y-73500000D01*
X141020000Y-73500000D02*
X146270000Y-68250000D01*
X122500000Y-124000000D02*
X142800000Y-124000000D01*
X146990000Y-87740000D02*
X146990000Y-86510000D01*
X147500000Y-121500000D02*
X149250000Y-119750000D01*
X150500000Y-57000000D02*
X150500000Y-66500000D01*
X146990000Y-86350000D02*
X146925000Y-86285000D01*
X146990000Y-86510000D02*
X147000000Y-86500000D01*
X145300000Y-121500000D02*
X147500000Y-121500000D01*
X149500000Y-67500000D02*
X147000000Y-67500000D01*
X146270000Y-68230000D02*
X146270000Y-68250000D01*
X147000000Y-86500000D02*
X146990000Y-86490000D01*
%TO.N,+5V*%
X140550000Y-101250000D02*
X140655786Y-101250000D01*
D29*
X146472102Y-102527898D02*
X146525000Y-102475000D01*
X146472102Y-103472102D02*
X146472102Y-102527898D01*
D28*
X145000000Y-96905786D02*
X145000000Y-95000000D01*
X107500000Y-74000000D02*
X107500000Y-71500000D01*
X140655786Y-101250000D02*
X145000000Y-96905786D01*
X107500000Y-74000000D02*
X107500000Y-83000000D01*
D29*
X146525000Y-101275000D02*
X146500000Y-101250000D01*
D28*
X141000000Y-101250000D02*
X140550000Y-101250000D01*
X136250000Y-103000000D02*
X138000000Y-101250000D01*
X107500000Y-71500000D02*
X106500000Y-70500000D01*
X146500000Y-101250000D02*
X141000000Y-101250000D01*
X138000000Y-101250000D02*
X140550000Y-101250000D01*
D29*
X146500000Y-103750000D02*
X146500000Y-103500000D01*
X146525000Y-102475000D02*
X146525000Y-101275000D01*
X146500000Y-103500000D02*
X146472102Y-103472102D01*
D30*
%TO.N,+17V*%
X109250000Y-61500000D02*
X112600000Y-58150000D01*
X103000000Y-122000000D02*
X101300000Y-120300000D01*
X101300000Y-120300000D02*
X101300000Y-63200000D01*
X132250000Y-122000000D02*
X103000000Y-122000000D01*
X141350000Y-112900000D02*
X132250000Y-122000000D01*
X103000000Y-61500000D02*
X109250000Y-61500000D01*
X101300000Y-63200000D02*
X103000000Y-61500000D01*
D28*
%TO.N,+6V*%
X124399492Y-108899492D02*
X130580000Y-108899492D01*
X131880000Y-74120000D02*
X136700000Y-69300000D01*
X116000000Y-95837500D02*
X116000000Y-100500000D01*
X136700000Y-69300000D02*
X136700000Y-66800000D01*
X116000000Y-100500000D02*
X124399492Y-108899492D01*
X130580000Y-108899492D02*
X131880000Y-107599492D01*
X131880000Y-107599492D02*
X131880000Y-102519492D01*
X136700000Y-66800000D02*
X138500000Y-65000000D01*
X131880000Y-102519492D02*
X131880000Y-74120000D01*
%TD*%
%TA.AperFunction,Conductor*%
%TO.N,+17V*%
G36*
X118737539Y-55019685D02*
G01*
X118783294Y-55072489D01*
X118794500Y-55124000D01*
X118794500Y-65876007D01*
X118799197Y-65919686D01*
X118810397Y-65971174D01*
X118812890Y-65981372D01*
X118812891Y-65981375D01*
X118855899Y-66062083D01*
X118855901Y-66062086D01*
X118901660Y-66114895D01*
X118919242Y-66132839D01*
X118919246Y-66132843D01*
X118919247Y-66132844D01*
X118919249Y-66132845D01*
X118973559Y-66163224D01*
X118999063Y-66177490D01*
X119066102Y-66197175D01*
X119124000Y-66205500D01*
X119124004Y-66205500D01*
X134876000Y-66205500D01*
X134943039Y-66225185D01*
X134988794Y-66277989D01*
X135000000Y-66329500D01*
X135000000Y-69876000D01*
X134980315Y-69943039D01*
X134927511Y-69988794D01*
X134876000Y-70000000D01*
X109124000Y-70000000D01*
X109056961Y-69980315D01*
X109011206Y-69927511D01*
X109000000Y-69876000D01*
X109000000Y-67499997D01*
X124069196Y-67499997D01*
X124069196Y-67500002D01*
X124090279Y-67633121D01*
X124090280Y-67633124D01*
X124090281Y-67633126D01*
X124151472Y-67753220D01*
X124151473Y-67753221D01*
X124151476Y-67753225D01*
X124246774Y-67848523D01*
X124246778Y-67848526D01*
X124246780Y-67848528D01*
X124366874Y-67909719D01*
X124366876Y-67909719D01*
X124366878Y-67909720D01*
X124499998Y-67930804D01*
X124500000Y-67930804D01*
X124500002Y-67930804D01*
X124633121Y-67909720D01*
X124633121Y-67909719D01*
X124633126Y-67909719D01*
X124753220Y-67848528D01*
X124848528Y-67753220D01*
X124909719Y-67633126D01*
X124930804Y-67500000D01*
X124930804Y-67499997D01*
X130069196Y-67499997D01*
X130069196Y-67500002D01*
X130090279Y-67633121D01*
X130090280Y-67633124D01*
X130090281Y-67633126D01*
X130151472Y-67753220D01*
X130151473Y-67753221D01*
X130151476Y-67753225D01*
X130246774Y-67848523D01*
X130246778Y-67848526D01*
X130246780Y-67848528D01*
X130366874Y-67909719D01*
X130366876Y-67909719D01*
X130366878Y-67909720D01*
X130499998Y-67930804D01*
X130500000Y-67930804D01*
X130500002Y-67930804D01*
X130633121Y-67909720D01*
X130633121Y-67909719D01*
X130633126Y-67909719D01*
X130753220Y-67848528D01*
X130848528Y-67753220D01*
X130909719Y-67633126D01*
X130930804Y-67500000D01*
X130909719Y-67366874D01*
X130848528Y-67246780D01*
X130848526Y-67246778D01*
X130848523Y-67246774D01*
X130753225Y-67151476D01*
X130753221Y-67151473D01*
X130753220Y-67151472D01*
X130633126Y-67090281D01*
X130633124Y-67090280D01*
X130633121Y-67090279D01*
X130500002Y-67069196D01*
X130499998Y-67069196D01*
X130366878Y-67090279D01*
X130246778Y-67151473D01*
X130246774Y-67151476D01*
X130151476Y-67246774D01*
X130151473Y-67246778D01*
X130090279Y-67366878D01*
X130069196Y-67499997D01*
X124930804Y-67499997D01*
X124909719Y-67366874D01*
X124848528Y-67246780D01*
X124848526Y-67246778D01*
X124848523Y-67246774D01*
X124753225Y-67151476D01*
X124753221Y-67151473D01*
X124753220Y-67151472D01*
X124633126Y-67090281D01*
X124633124Y-67090280D01*
X124633121Y-67090279D01*
X124500002Y-67069196D01*
X124499998Y-67069196D01*
X124366878Y-67090279D01*
X124246778Y-67151473D01*
X124246774Y-67151476D01*
X124151476Y-67246774D01*
X124151473Y-67246778D01*
X124090279Y-67366878D01*
X124069196Y-67499997D01*
X109000000Y-67499997D01*
X109000000Y-58149994D01*
X110044958Y-58149994D01*
X110044958Y-58150005D01*
X110065103Y-58470221D01*
X110065104Y-58470228D01*
X110125230Y-58785417D01*
X110224382Y-59090575D01*
X110224384Y-59090580D01*
X110360998Y-59380897D01*
X110361003Y-59380907D01*
X110477855Y-59565035D01*
X110477856Y-59565036D01*
X111357603Y-58685289D01*
X111445377Y-58857554D01*
X111570278Y-59029466D01*
X111720534Y-59179722D01*
X111892446Y-59304623D01*
X112064709Y-59392396D01*
X111183951Y-60273153D01*
X111183952Y-60273154D01*
X111230933Y-60307288D01*
X111230952Y-60307300D01*
X111512116Y-60461871D01*
X111512124Y-60461875D01*
X111810444Y-60579987D01*
X112121233Y-60659784D01*
X112121242Y-60659786D01*
X112439556Y-60699999D01*
X112439570Y-60700000D01*
X112760430Y-60700000D01*
X112760443Y-60699999D01*
X113078757Y-60659786D01*
X113078766Y-60659784D01*
X113389555Y-60579987D01*
X113687875Y-60461875D01*
X113687876Y-60461874D01*
X113969060Y-60307291D01*
X113969066Y-60307288D01*
X114016046Y-60273154D01*
X114016046Y-60273153D01*
X113135289Y-59392396D01*
X113307554Y-59304623D01*
X113479466Y-59179722D01*
X113629722Y-59029466D01*
X113754623Y-58857554D01*
X113842396Y-58685289D01*
X114722142Y-59565036D01*
X114722143Y-59565035D01*
X114838994Y-59380909D01*
X114839005Y-59380890D01*
X114975615Y-59090580D01*
X114975617Y-59090575D01*
X115074769Y-58785417D01*
X115134895Y-58470228D01*
X115134896Y-58470221D01*
X115155042Y-58150005D01*
X115155042Y-58149994D01*
X115134896Y-57829778D01*
X115134895Y-57829771D01*
X115074769Y-57514582D01*
X114975617Y-57209424D01*
X114975615Y-57209419D01*
X114839001Y-56919101D01*
X114838993Y-56919086D01*
X114722143Y-56734963D01*
X113842396Y-57614709D01*
X113754623Y-57442446D01*
X113629722Y-57270534D01*
X113479466Y-57120278D01*
X113307554Y-56995377D01*
X113135289Y-56907603D01*
X114016047Y-56026845D01*
X114016046Y-56026843D01*
X113969071Y-55992714D01*
X113969053Y-55992702D01*
X113687883Y-55838128D01*
X113687875Y-55838124D01*
X113389555Y-55720012D01*
X113078766Y-55640215D01*
X113078757Y-55640213D01*
X112760443Y-55600000D01*
X112439556Y-55600000D01*
X112121242Y-55640213D01*
X112121233Y-55640215D01*
X111810444Y-55720012D01*
X111512124Y-55838124D01*
X111512116Y-55838128D01*
X111230943Y-55992704D01*
X111230941Y-55992706D01*
X111183952Y-56026844D01*
X111183952Y-56026845D01*
X112064710Y-56907603D01*
X111892446Y-56995377D01*
X111720534Y-57120278D01*
X111570278Y-57270534D01*
X111445377Y-57442446D01*
X111357603Y-57614710D01*
X110477855Y-56734962D01*
X110361001Y-56919096D01*
X110360998Y-56919102D01*
X110224384Y-57209419D01*
X110224382Y-57209424D01*
X110125230Y-57514582D01*
X110065104Y-57829771D01*
X110065103Y-57829778D01*
X110044958Y-58149994D01*
X109000000Y-58149994D01*
X109000000Y-55124000D01*
X109019685Y-55056961D01*
X109072489Y-55011206D01*
X109124000Y-55000000D01*
X118670500Y-55000000D01*
X118737539Y-55019685D01*
G37*
%TD.AperFunction*%
%TD*%
%TA.AperFunction,Conductor*%
%TO.N,+17V_SW*%
G36*
X146443039Y-53519685D02*
G01*
X146488794Y-53572489D01*
X146500000Y-53624000D01*
X146500000Y-60376000D01*
X146480315Y-60443039D01*
X146427511Y-60488794D01*
X146376000Y-60500000D01*
X136000000Y-60500000D01*
X136000000Y-65876000D01*
X135980315Y-65943039D01*
X135927511Y-65988794D01*
X135876000Y-66000000D01*
X119124000Y-66000000D01*
X119056961Y-65980315D01*
X119011206Y-65927511D01*
X119000000Y-65876000D01*
X119000000Y-57999994D01*
X119844958Y-57999994D01*
X119844958Y-58000005D01*
X119865103Y-58320221D01*
X119865104Y-58320228D01*
X119925230Y-58635417D01*
X120024382Y-58940575D01*
X120024384Y-58940580D01*
X120160998Y-59230897D01*
X120161003Y-59230907D01*
X120277855Y-59415035D01*
X120277856Y-59415036D01*
X121157603Y-58535289D01*
X121245377Y-58707554D01*
X121370278Y-58879466D01*
X121520534Y-59029722D01*
X121692446Y-59154623D01*
X121864709Y-59242396D01*
X120983951Y-60123153D01*
X120983952Y-60123154D01*
X121030933Y-60157288D01*
X121030952Y-60157300D01*
X121312116Y-60311871D01*
X121312124Y-60311875D01*
X121610444Y-60429987D01*
X121921233Y-60509784D01*
X121921242Y-60509786D01*
X122239556Y-60549999D01*
X122239570Y-60550000D01*
X122560430Y-60550000D01*
X122560443Y-60549999D01*
X122878757Y-60509786D01*
X122878766Y-60509784D01*
X123189555Y-60429987D01*
X123487875Y-60311875D01*
X123487876Y-60311874D01*
X123769060Y-60157291D01*
X123769066Y-60157288D01*
X123816046Y-60123154D01*
X123816046Y-60123153D01*
X122935289Y-59242396D01*
X123107554Y-59154623D01*
X123279466Y-59029722D01*
X123429722Y-58879466D01*
X123554623Y-58707554D01*
X123642396Y-58535289D01*
X124522143Y-59415036D01*
X124522143Y-59415035D01*
X124638994Y-59230909D01*
X124639005Y-59230890D01*
X124775615Y-58940580D01*
X124775617Y-58940575D01*
X124874769Y-58635417D01*
X124934895Y-58320228D01*
X124934896Y-58320221D01*
X124955042Y-58000005D01*
X124955042Y-57999994D01*
X124934896Y-57679778D01*
X124934895Y-57679771D01*
X124874769Y-57364582D01*
X124775617Y-57059424D01*
X124775615Y-57059419D01*
X124706273Y-56912061D01*
X127349500Y-56912061D01*
X127349500Y-59087924D01*
X127349501Y-59087939D01*
X127359696Y-59217484D01*
X127413596Y-59431395D01*
X127504826Y-59632243D01*
X127630449Y-59813568D01*
X127786431Y-59969550D01*
X127967756Y-60095173D01*
X127967757Y-60095173D01*
X127967761Y-60095176D01*
X128101875Y-60156093D01*
X128168604Y-60186403D01*
X128168605Y-60186403D01*
X128168607Y-60186404D01*
X128382515Y-60240304D01*
X128512067Y-60250500D01*
X130687932Y-60250499D01*
X130817485Y-60240304D01*
X131031393Y-60186404D01*
X131232239Y-60095176D01*
X131413567Y-59969551D01*
X131569551Y-59813567D01*
X131695176Y-59632239D01*
X131786404Y-59431393D01*
X131840304Y-59217485D01*
X131850500Y-59087933D01*
X131850499Y-56912068D01*
X131840304Y-56782515D01*
X131786404Y-56568607D01*
X131755239Y-56499994D01*
X137519443Y-56499994D01*
X137519443Y-56500005D01*
X137539634Y-56743683D01*
X137539636Y-56743695D01*
X137599663Y-56980734D01*
X137697888Y-57204666D01*
X137831632Y-57409378D01*
X137997242Y-57589277D01*
X137997252Y-57589286D01*
X138190208Y-57739470D01*
X138190212Y-57739473D01*
X138405267Y-57855855D01*
X138405270Y-57855856D01*
X138636541Y-57935251D01*
X138636543Y-57935251D01*
X138636545Y-57935252D01*
X138877737Y-57975500D01*
X138877738Y-57975500D01*
X139122262Y-57975500D01*
X139122263Y-57975500D01*
X139363455Y-57935252D01*
X139594733Y-57855855D01*
X139809788Y-57739473D01*
X140002754Y-57589281D01*
X140168368Y-57409377D01*
X140302111Y-57204667D01*
X140400336Y-56980736D01*
X140460364Y-56743692D01*
X140474872Y-56568607D01*
X140480557Y-56500005D01*
X140480557Y-56499994D01*
X140460365Y-56256316D01*
X140460363Y-56256304D01*
X140400336Y-56019265D01*
X140373531Y-55958156D01*
X140302111Y-55795333D01*
X140168368Y-55590623D01*
X140168367Y-55590621D01*
X140002757Y-55410722D01*
X140002747Y-55410713D01*
X139809791Y-55260529D01*
X139809787Y-55260526D01*
X139655731Y-55177155D01*
X142225000Y-55177155D01*
X142225000Y-56000000D01*
X143311803Y-56000000D01*
X143246740Y-56097374D01*
X143182665Y-56252064D01*
X143150000Y-56416282D01*
X143150000Y-56583718D01*
X143182665Y-56747936D01*
X143246740Y-56902626D01*
X143311803Y-57000000D01*
X142225000Y-57000000D01*
X142225000Y-57822844D01*
X142231401Y-57882372D01*
X142231403Y-57882379D01*
X142281645Y-58017086D01*
X142281649Y-58017093D01*
X142367809Y-58132187D01*
X142367812Y-58132190D01*
X142482906Y-58218350D01*
X142482913Y-58218354D01*
X142617620Y-58268596D01*
X142617627Y-58268598D01*
X142677155Y-58274999D01*
X142677172Y-58275000D01*
X143500000Y-58275000D01*
X143500000Y-57188197D01*
X143597374Y-57253260D01*
X143752064Y-57317335D01*
X143916282Y-57350000D01*
X144083718Y-57350000D01*
X144247936Y-57317335D01*
X144402626Y-57253260D01*
X144500000Y-57188197D01*
X144500000Y-58275000D01*
X145322828Y-58275000D01*
X145322844Y-58274999D01*
X145382372Y-58268598D01*
X145382379Y-58268596D01*
X145517086Y-58218354D01*
X145517093Y-58218350D01*
X145632187Y-58132190D01*
X145632190Y-58132187D01*
X145718350Y-58017093D01*
X145718354Y-58017086D01*
X145768596Y-57882379D01*
X145768598Y-57882372D01*
X145774999Y-57822844D01*
X145775000Y-57822827D01*
X145775000Y-57000000D01*
X144688197Y-57000000D01*
X144753260Y-56902626D01*
X144817335Y-56747936D01*
X144850000Y-56583718D01*
X144850000Y-56416282D01*
X144817335Y-56252064D01*
X144753260Y-56097374D01*
X144688197Y-56000000D01*
X145775000Y-56000000D01*
X145775000Y-55177172D01*
X145774999Y-55177155D01*
X145768598Y-55117627D01*
X145768596Y-55117620D01*
X145718354Y-54982913D01*
X145718350Y-54982906D01*
X145632190Y-54867812D01*
X145632187Y-54867809D01*
X145517093Y-54781649D01*
X145517086Y-54781645D01*
X145382379Y-54731403D01*
X145382372Y-54731401D01*
X145322844Y-54725000D01*
X144500000Y-54725000D01*
X144500000Y-55811802D01*
X144402626Y-55746740D01*
X144247936Y-55682665D01*
X144083718Y-55650000D01*
X143916282Y-55650000D01*
X143752064Y-55682665D01*
X143597374Y-55746740D01*
X143500000Y-55811802D01*
X143500000Y-54725000D01*
X142677155Y-54725000D01*
X142617627Y-54731401D01*
X142617620Y-54731403D01*
X142482913Y-54781645D01*
X142482906Y-54781649D01*
X142367812Y-54867809D01*
X142367809Y-54867812D01*
X142281649Y-54982906D01*
X142281645Y-54982913D01*
X142231403Y-55117620D01*
X142231401Y-55117627D01*
X142225000Y-55177155D01*
X139655731Y-55177155D01*
X139594734Y-55144145D01*
X139594729Y-55144143D01*
X139363458Y-55064748D01*
X139182561Y-55034562D01*
X139122263Y-55024500D01*
X138877737Y-55024500D01*
X138829498Y-55032549D01*
X138636541Y-55064748D01*
X138405270Y-55144143D01*
X138405265Y-55144145D01*
X138190212Y-55260526D01*
X138190208Y-55260529D01*
X137997252Y-55410713D01*
X137997242Y-55410722D01*
X137831632Y-55590621D01*
X137697888Y-55795333D01*
X137599663Y-56019265D01*
X137539636Y-56256304D01*
X137539634Y-56256316D01*
X137519443Y-56499994D01*
X131755239Y-56499994D01*
X131695176Y-56367761D01*
X131617966Y-56256316D01*
X131569550Y-56186431D01*
X131413568Y-56030449D01*
X131232243Y-55904826D01*
X131031395Y-55813596D01*
X130888787Y-55777662D01*
X130817485Y-55759696D01*
X130687933Y-55749500D01*
X130687931Y-55749500D01*
X128512075Y-55749500D01*
X128512060Y-55749501D01*
X128382515Y-55759696D01*
X128168604Y-55813596D01*
X127967756Y-55904826D01*
X127786431Y-56030449D01*
X127630449Y-56186431D01*
X127504826Y-56367756D01*
X127413596Y-56568604D01*
X127359696Y-56782515D01*
X127349500Y-56912061D01*
X124706273Y-56912061D01*
X124639001Y-56769101D01*
X124638993Y-56769086D01*
X124522143Y-56584963D01*
X123642396Y-57464709D01*
X123554623Y-57292446D01*
X123429722Y-57120534D01*
X123279466Y-56970278D01*
X123107554Y-56845377D01*
X122935289Y-56757603D01*
X123816047Y-55876845D01*
X123816046Y-55876843D01*
X123769071Y-55842714D01*
X123769053Y-55842702D01*
X123487883Y-55688128D01*
X123487875Y-55688124D01*
X123189555Y-55570012D01*
X122878766Y-55490215D01*
X122878757Y-55490213D01*
X122560443Y-55450000D01*
X122239556Y-55450000D01*
X121921242Y-55490213D01*
X121921233Y-55490215D01*
X121610444Y-55570012D01*
X121312124Y-55688124D01*
X121312116Y-55688128D01*
X121030943Y-55842704D01*
X121030941Y-55842706D01*
X120983952Y-55876844D01*
X120983952Y-55876845D01*
X121864710Y-56757603D01*
X121692446Y-56845377D01*
X121520534Y-56970278D01*
X121370278Y-57120534D01*
X121245377Y-57292446D01*
X121157603Y-57464710D01*
X120277855Y-56584962D01*
X120161001Y-56769096D01*
X120160998Y-56769102D01*
X120024384Y-57059419D01*
X120024382Y-57059424D01*
X119925230Y-57364582D01*
X119865104Y-57679771D01*
X119865103Y-57679778D01*
X119844958Y-57999994D01*
X119000000Y-57999994D01*
X119000000Y-53624000D01*
X119019685Y-53556961D01*
X119072489Y-53511206D01*
X119124000Y-53500000D01*
X146376000Y-53500000D01*
X146443039Y-53519685D01*
G37*
%TD.AperFunction*%
%TD*%
%TA.AperFunction,Conductor*%
%TO.N,+17V_SW*%
G36*
X106911446Y-66519685D02*
G01*
X106957201Y-66572489D01*
X106968407Y-66623852D01*
X106972426Y-69979905D01*
X106952822Y-70046967D01*
X106900073Y-70092786D01*
X106830926Y-70102812D01*
X106786426Y-70087440D01*
X106693189Y-70033609D01*
X106693186Y-70033608D01*
X106565892Y-69999500D01*
X106434108Y-69999500D01*
X106306812Y-70033608D01*
X106192686Y-70099500D01*
X106192683Y-70099502D01*
X106099502Y-70192683D01*
X106099500Y-70192686D01*
X106033608Y-70306812D01*
X105999500Y-70434108D01*
X105999500Y-70565891D01*
X106033608Y-70693187D01*
X106066554Y-70750250D01*
X106099500Y-70807314D01*
X106099502Y-70807316D01*
X106938208Y-71646022D01*
X106971693Y-71707345D01*
X106974527Y-71733554D01*
X106982054Y-78017330D01*
X106962450Y-78084393D01*
X106909701Y-78130212D01*
X106840554Y-78140238D01*
X106791016Y-78121795D01*
X106699559Y-78063021D01*
X106568368Y-78024500D01*
X106568367Y-78024500D01*
X106446218Y-78024500D01*
X106379179Y-78004815D01*
X106333424Y-77952011D01*
X106323480Y-77882853D01*
X106352505Y-77819298D01*
X106404127Y-77759722D01*
X106404128Y-77759720D01*
X106404130Y-77759718D01*
X106460931Y-77635342D01*
X106480390Y-77500000D01*
X106460931Y-77364658D01*
X106405267Y-77242771D01*
X106404132Y-77240285D01*
X106404127Y-77240278D01*
X106314590Y-77136946D01*
X106314586Y-77136942D01*
X106199559Y-77063021D01*
X106068368Y-77024500D01*
X106068367Y-77024500D01*
X105931633Y-77024500D01*
X105931632Y-77024500D01*
X105800440Y-77063021D01*
X105685413Y-77136942D01*
X105685413Y-77136943D01*
X105593713Y-77242771D01*
X105534935Y-77280545D01*
X105465065Y-77280545D01*
X105406287Y-77242771D01*
X105389025Y-77222850D01*
X105314589Y-77136945D01*
X105314586Y-77136943D01*
X105314586Y-77136942D01*
X105199559Y-77063021D01*
X105068368Y-77024500D01*
X105068367Y-77024500D01*
X104931633Y-77024500D01*
X104931632Y-77024500D01*
X104800440Y-77063021D01*
X104685413Y-77136942D01*
X104685409Y-77136946D01*
X104595872Y-77240278D01*
X104595867Y-77240285D01*
X104539070Y-77364654D01*
X104539068Y-77364662D01*
X104519610Y-77500000D01*
X104539068Y-77635337D01*
X104539070Y-77635345D01*
X104595867Y-77759714D01*
X104595872Y-77759721D01*
X104685409Y-77863053D01*
X104685413Y-77863057D01*
X104745979Y-77901979D01*
X104800439Y-77936978D01*
X104851637Y-77952011D01*
X104931632Y-77975500D01*
X104931633Y-77975500D01*
X105068367Y-77975500D01*
X105199561Y-77936978D01*
X105314589Y-77863055D01*
X105404127Y-77759722D01*
X105406287Y-77757229D01*
X105465065Y-77719454D01*
X105534934Y-77719454D01*
X105593713Y-77757228D01*
X105593713Y-77757229D01*
X105685409Y-77863053D01*
X105685413Y-77863057D01*
X105745979Y-77901979D01*
X105800439Y-77936978D01*
X105851637Y-77952011D01*
X105931632Y-77975500D01*
X106053782Y-77975500D01*
X106120821Y-77995185D01*
X106166576Y-78047989D01*
X106176520Y-78117147D01*
X106147495Y-78180702D01*
X106095872Y-78240277D01*
X106095867Y-78240285D01*
X106039070Y-78364654D01*
X106039068Y-78364662D01*
X106019610Y-78500000D01*
X106039068Y-78635337D01*
X106039070Y-78635345D01*
X106095867Y-78759714D01*
X106095872Y-78759721D01*
X106185409Y-78863053D01*
X106185413Y-78863057D01*
X106245979Y-78901979D01*
X106300439Y-78936978D01*
X106366036Y-78956239D01*
X106431632Y-78975500D01*
X106431633Y-78975500D01*
X106568367Y-78975500D01*
X106699561Y-78936978D01*
X106792171Y-78877461D01*
X106859210Y-78857778D01*
X106926249Y-78877463D01*
X106972004Y-78930267D01*
X106983209Y-78981629D01*
X106998111Y-91423211D01*
X107000000Y-93000000D01*
X103561449Y-93000000D01*
X103676786Y-92941233D01*
X103676785Y-92941233D01*
X103676788Y-92941232D01*
X103816928Y-92839414D01*
X103939414Y-92716928D01*
X104041232Y-92576788D01*
X104119873Y-92422445D01*
X104173402Y-92257701D01*
X104200500Y-92086611D01*
X104200500Y-91913389D01*
X104173402Y-91742299D01*
X104119873Y-91577555D01*
X104041232Y-91423212D01*
X103939414Y-91283072D01*
X103816928Y-91160586D01*
X103676788Y-91058768D01*
X103522445Y-90980127D01*
X103357701Y-90926598D01*
X103357699Y-90926597D01*
X103357698Y-90926597D01*
X103226271Y-90905781D01*
X103186611Y-90899500D01*
X102763389Y-90899500D01*
X102723728Y-90905781D01*
X102592302Y-90926597D01*
X102427552Y-90980128D01*
X102273208Y-91058769D01*
X102247384Y-91077532D01*
X102181577Y-91101011D01*
X102113523Y-91085185D01*
X102064829Y-91035078D01*
X102050500Y-90977213D01*
X102050500Y-90522786D01*
X102070185Y-90455747D01*
X102122989Y-90409992D01*
X102192147Y-90400048D01*
X102247385Y-90422467D01*
X102273212Y-90441232D01*
X102427555Y-90519873D01*
X102592299Y-90573402D01*
X102763389Y-90600500D01*
X102763390Y-90600500D01*
X103186610Y-90600500D01*
X103186611Y-90600500D01*
X103357701Y-90573402D01*
X103522445Y-90519873D01*
X103676788Y-90441232D01*
X103816928Y-90339414D01*
X103939414Y-90216928D01*
X104041232Y-90076788D01*
X104119873Y-89922445D01*
X104173402Y-89757701D01*
X104200500Y-89586611D01*
X104200500Y-89413389D01*
X104173402Y-89242299D01*
X104119873Y-89077555D01*
X104041232Y-88923212D01*
X103939414Y-88783072D01*
X103816928Y-88660586D01*
X103676788Y-88558768D01*
X103522445Y-88480127D01*
X103357701Y-88426598D01*
X103357699Y-88426597D01*
X103357698Y-88426597D01*
X103226271Y-88405781D01*
X103186611Y-88399500D01*
X102763389Y-88399500D01*
X102723728Y-88405781D01*
X102592302Y-88426597D01*
X102427552Y-88480128D01*
X102273208Y-88558769D01*
X102247384Y-88577532D01*
X102181577Y-88601011D01*
X102113523Y-88585185D01*
X102064829Y-88535078D01*
X102050500Y-88477213D01*
X102050500Y-88022786D01*
X102070185Y-87955747D01*
X102122989Y-87909992D01*
X102192147Y-87900048D01*
X102247385Y-87922467D01*
X102273212Y-87941232D01*
X102427555Y-88019873D01*
X102592299Y-88073402D01*
X102763389Y-88100500D01*
X102763390Y-88100500D01*
X103186610Y-88100500D01*
X103186611Y-88100500D01*
X103357701Y-88073402D01*
X103522445Y-88019873D01*
X103676788Y-87941232D01*
X103816928Y-87839414D01*
X103939414Y-87716928D01*
X104041232Y-87576788D01*
X104119873Y-87422445D01*
X104173402Y-87257701D01*
X104200500Y-87086611D01*
X104200500Y-86913389D01*
X104173402Y-86742299D01*
X104119873Y-86577555D01*
X104041232Y-86423212D01*
X103939414Y-86283072D01*
X103816928Y-86160586D01*
X103676788Y-86058768D01*
X103522445Y-85980127D01*
X103357701Y-85926598D01*
X103357699Y-85926597D01*
X103357698Y-85926597D01*
X103226271Y-85905781D01*
X103186611Y-85899500D01*
X102763389Y-85899500D01*
X102723728Y-85905781D01*
X102592302Y-85926597D01*
X102427552Y-85980128D01*
X102273208Y-86058769D01*
X102247384Y-86077532D01*
X102181577Y-86101011D01*
X102113523Y-86085185D01*
X102064829Y-86035078D01*
X102050500Y-85977213D01*
X102050500Y-66624000D01*
X102070185Y-66556961D01*
X102122989Y-66511206D01*
X102174500Y-66500000D01*
X106844407Y-66500000D01*
X106911446Y-66519685D01*
G37*
%TD.AperFunction*%
%TD*%
%TA.AperFunction,Conductor*%
%TO.N,+17V_SW*%
G36*
X102427555Y-93019873D02*
G01*
X102592299Y-93073402D01*
X102763389Y-93100500D01*
X102763390Y-93100500D01*
X103186610Y-93100500D01*
X103186611Y-93100500D01*
X103357701Y-93073402D01*
X103522445Y-93019873D01*
X103561448Y-93000000D01*
X107000000Y-93000000D01*
X107000001Y-93000000D01*
X109358782Y-93000000D01*
X109415078Y-93013516D01*
X109427550Y-93019871D01*
X109427552Y-93019871D01*
X109427555Y-93019873D01*
X109592299Y-93073402D01*
X109763389Y-93100500D01*
X109763390Y-93100500D01*
X110186610Y-93100500D01*
X110186611Y-93100500D01*
X110357701Y-93073402D01*
X110522445Y-93019873D01*
X110529183Y-93016440D01*
X110534922Y-93013516D01*
X110591218Y-93000000D01*
X114786331Y-93000000D01*
X114853370Y-93019685D01*
X114899125Y-93072489D01*
X114909802Y-93135441D01*
X114894785Y-93297499D01*
X114894785Y-93297500D01*
X114913602Y-93500582D01*
X114969417Y-93696747D01*
X114969422Y-93696760D01*
X115060327Y-93879321D01*
X115183237Y-94042081D01*
X115333958Y-94179480D01*
X115333960Y-94179482D01*
X115433141Y-94240892D01*
X115507363Y-94286848D01*
X115697544Y-94360524D01*
X115898024Y-94398000D01*
X115898026Y-94398000D01*
X116101974Y-94398000D01*
X116101976Y-94398000D01*
X116302456Y-94360524D01*
X116492637Y-94286848D01*
X116666041Y-94179481D01*
X116816764Y-94042079D01*
X116939673Y-93879321D01*
X117030582Y-93696750D01*
X117086397Y-93500583D01*
X117105215Y-93297500D01*
X117090198Y-93135439D01*
X117103613Y-93066872D01*
X117151970Y-93016440D01*
X117213669Y-93000000D01*
X118786331Y-93000000D01*
X118853370Y-93019685D01*
X118899125Y-93072489D01*
X118909802Y-93135441D01*
X118894785Y-93297499D01*
X118894785Y-93297500D01*
X118913602Y-93500582D01*
X118969417Y-93696747D01*
X118969422Y-93696760D01*
X119060327Y-93879321D01*
X119183237Y-94042081D01*
X119333958Y-94179480D01*
X119333960Y-94179482D01*
X119433141Y-94240892D01*
X119507363Y-94286848D01*
X119697544Y-94360524D01*
X119898024Y-94398000D01*
X119898026Y-94398000D01*
X120101974Y-94398000D01*
X120101976Y-94398000D01*
X120302456Y-94360524D01*
X120492637Y-94286848D01*
X120666041Y-94179481D01*
X120816764Y-94042079D01*
X120939673Y-93879321D01*
X121030582Y-93696750D01*
X121086397Y-93500583D01*
X121105215Y-93297500D01*
X121090198Y-93135439D01*
X121103613Y-93066872D01*
X121151970Y-93016440D01*
X121213669Y-93000000D01*
X130876000Y-93000000D01*
X130943039Y-93019685D01*
X130988794Y-93072489D01*
X131000000Y-93124000D01*
X131000000Y-97876000D01*
X130980315Y-97943039D01*
X130927511Y-97988794D01*
X130876000Y-98000000D01*
X116624500Y-98000000D01*
X116557461Y-97980315D01*
X116511706Y-97927511D01*
X116500500Y-97876000D01*
X116500500Y-97062000D01*
X116520185Y-96994961D01*
X116572989Y-96949206D01*
X116624500Y-96938000D01*
X116874676Y-96938000D01*
X116874677Y-96937999D01*
X116947740Y-96923466D01*
X117030601Y-96868101D01*
X117085966Y-96785240D01*
X117100500Y-96712174D01*
X117100500Y-94962871D01*
X118900000Y-94962871D01*
X118900000Y-95587500D01*
X119566988Y-95587500D01*
X119534075Y-95644507D01*
X119500000Y-95771674D01*
X119500000Y-95903326D01*
X119534075Y-96030493D01*
X119566988Y-96087500D01*
X118900000Y-96087500D01*
X118900000Y-96712128D01*
X118914503Y-96785040D01*
X118914505Y-96785044D01*
X118969760Y-96867739D01*
X119052455Y-96922994D01*
X119052459Y-96922996D01*
X119125371Y-96937499D01*
X119125374Y-96937500D01*
X119750000Y-96937500D01*
X119750000Y-96270512D01*
X119807007Y-96303425D01*
X119934174Y-96337500D01*
X120065826Y-96337500D01*
X120192993Y-96303425D01*
X120250000Y-96270512D01*
X120250000Y-96937500D01*
X120874626Y-96937500D01*
X120874628Y-96937499D01*
X120947540Y-96922996D01*
X120947544Y-96922994D01*
X121030239Y-96867739D01*
X121085494Y-96785044D01*
X121085496Y-96785040D01*
X121099999Y-96712128D01*
X121100000Y-96712126D01*
X121100000Y-96087500D01*
X120433012Y-96087500D01*
X120465925Y-96030493D01*
X120500000Y-95903326D01*
X120500000Y-95771674D01*
X120465925Y-95644507D01*
X120433012Y-95587500D01*
X121100000Y-95587500D01*
X121100000Y-94962873D01*
X121099999Y-94962871D01*
X121085496Y-94889959D01*
X121085494Y-94889955D01*
X121030239Y-94807260D01*
X120982514Y-94775371D01*
X127750000Y-94775371D01*
X127750000Y-95550000D01*
X128566988Y-95550000D01*
X128534075Y-95607007D01*
X128500000Y-95734174D01*
X128500000Y-95865826D01*
X128534075Y-95992993D01*
X128566988Y-96050000D01*
X127750000Y-96050000D01*
X127750000Y-96824628D01*
X127764503Y-96897540D01*
X127764505Y-96897544D01*
X127819760Y-96980239D01*
X127902455Y-97035494D01*
X127902459Y-97035496D01*
X127975371Y-97049999D01*
X127975374Y-97050000D01*
X128750000Y-97050000D01*
X128750000Y-96233012D01*
X128807007Y-96265925D01*
X128934174Y-96300000D01*
X129065826Y-96300000D01*
X129192993Y-96265925D01*
X129250000Y-96233012D01*
X129250000Y-97050000D01*
X130024626Y-97050000D01*
X130024628Y-97049999D01*
X130097540Y-97035496D01*
X130097544Y-97035494D01*
X130180239Y-96980239D01*
X130235494Y-96897544D01*
X130235496Y-96897540D01*
X130249999Y-96824628D01*
X130250000Y-96824626D01*
X130250000Y-96050000D01*
X129433012Y-96050000D01*
X129465925Y-95992993D01*
X129500000Y-95865826D01*
X129500000Y-95734174D01*
X129465925Y-95607007D01*
X129433012Y-95550000D01*
X130250000Y-95550000D01*
X130250000Y-94775373D01*
X130249999Y-94775371D01*
X130235496Y-94702459D01*
X130235494Y-94702455D01*
X130180239Y-94619760D01*
X130097544Y-94564505D01*
X130097540Y-94564503D01*
X130024627Y-94550000D01*
X129250000Y-94550000D01*
X129250000Y-95366988D01*
X129192993Y-95334075D01*
X129065826Y-95300000D01*
X128934174Y-95300000D01*
X128807007Y-95334075D01*
X128750000Y-95366988D01*
X128750000Y-94550000D01*
X127975373Y-94550000D01*
X127902459Y-94564503D01*
X127902455Y-94564505D01*
X127819760Y-94619760D01*
X127764505Y-94702455D01*
X127764503Y-94702459D01*
X127750000Y-94775371D01*
X120982514Y-94775371D01*
X120947544Y-94752005D01*
X120947540Y-94752003D01*
X120874627Y-94737500D01*
X120250000Y-94737500D01*
X120250000Y-95404488D01*
X120192993Y-95371575D01*
X120065826Y-95337500D01*
X119934174Y-95337500D01*
X119807007Y-95371575D01*
X119750000Y-95404488D01*
X119750000Y-94737500D01*
X119125373Y-94737500D01*
X119052459Y-94752003D01*
X119052455Y-94752005D01*
X118969760Y-94807260D01*
X118914505Y-94889955D01*
X118914503Y-94889959D01*
X118900000Y-94962871D01*
X117100500Y-94962871D01*
X117100500Y-94962826D01*
X117100500Y-94962823D01*
X117100499Y-94962821D01*
X117085967Y-94889764D01*
X117085966Y-94889760D01*
X117079508Y-94880095D01*
X117030601Y-94806899D01*
X116947740Y-94751534D01*
X116947739Y-94751533D01*
X116947735Y-94751532D01*
X116874677Y-94737000D01*
X116874674Y-94737000D01*
X115125326Y-94737000D01*
X115125323Y-94737000D01*
X115052264Y-94751532D01*
X115052260Y-94751533D01*
X114969399Y-94806899D01*
X114914033Y-94889760D01*
X114914032Y-94889764D01*
X114899500Y-94962821D01*
X114899500Y-96712178D01*
X114914032Y-96785235D01*
X114914033Y-96785239D01*
X114914034Y-96785240D01*
X114969399Y-96868101D01*
X115051554Y-96922994D01*
X115052260Y-96923466D01*
X115052264Y-96923467D01*
X115125321Y-96937999D01*
X115125324Y-96938000D01*
X115125326Y-96938000D01*
X115375500Y-96938000D01*
X115442539Y-96957685D01*
X115488294Y-97010489D01*
X115499500Y-97062000D01*
X115499500Y-100565891D01*
X115533608Y-100693187D01*
X115566554Y-100750250D01*
X115599500Y-100807314D01*
X115599502Y-100807316D01*
X115963681Y-101171495D01*
X115997166Y-101232818D01*
X116000000Y-101259176D01*
X116000000Y-110876000D01*
X115980315Y-110943039D01*
X115927511Y-110988794D01*
X115876000Y-111000000D01*
X102174500Y-111000000D01*
X102107461Y-110980315D01*
X102061706Y-110927511D01*
X102050500Y-110876000D01*
X102050500Y-95721739D01*
X102070185Y-95654700D01*
X102122989Y-95608945D01*
X102187762Y-95598450D01*
X102202170Y-95599999D01*
X102202172Y-95600000D01*
X102725000Y-95600000D01*
X102725000Y-94904145D01*
X102791657Y-94942630D01*
X102912465Y-94975000D01*
X103037535Y-94975000D01*
X103158343Y-94942630D01*
X103225000Y-94904145D01*
X103225000Y-95600000D01*
X103747828Y-95600000D01*
X103747844Y-95599999D01*
X103807372Y-95593598D01*
X103807379Y-95593596D01*
X103942086Y-95543354D01*
X103942093Y-95543350D01*
X104057187Y-95457190D01*
X104057190Y-95457187D01*
X104143350Y-95342093D01*
X104143354Y-95342086D01*
X104193596Y-95207379D01*
X104193598Y-95207372D01*
X104199999Y-95147844D01*
X104200000Y-95147827D01*
X104200000Y-94750000D01*
X103379146Y-94750000D01*
X103417630Y-94683343D01*
X103450000Y-94562535D01*
X103450000Y-94437465D01*
X103417630Y-94316657D01*
X103379146Y-94250000D01*
X104200000Y-94250000D01*
X104200000Y-93852172D01*
X104199999Y-93852155D01*
X108750000Y-93852155D01*
X108750000Y-94250000D01*
X109570854Y-94250000D01*
X109532370Y-94316657D01*
X109500000Y-94437465D01*
X109500000Y-94562535D01*
X109532370Y-94683343D01*
X109570854Y-94750000D01*
X108750000Y-94750000D01*
X108750000Y-95147844D01*
X108756401Y-95207372D01*
X108756403Y-95207379D01*
X108806645Y-95342086D01*
X108806649Y-95342093D01*
X108892809Y-95457187D01*
X108892812Y-95457190D01*
X109007906Y-95543350D01*
X109007913Y-95543354D01*
X109142620Y-95593596D01*
X109142627Y-95593598D01*
X109202155Y-95599999D01*
X109202172Y-95600000D01*
X109725000Y-95600000D01*
X109725000Y-94904145D01*
X109791657Y-94942630D01*
X109912465Y-94975000D01*
X110037535Y-94975000D01*
X110158343Y-94942630D01*
X110225000Y-94904145D01*
X110225000Y-95600000D01*
X110747828Y-95600000D01*
X110747844Y-95599999D01*
X110807372Y-95593598D01*
X110807379Y-95593596D01*
X110942086Y-95543354D01*
X110942093Y-95543350D01*
X111057187Y-95457190D01*
X111057190Y-95457187D01*
X111143350Y-95342093D01*
X111143354Y-95342086D01*
X111193596Y-95207379D01*
X111193598Y-95207372D01*
X111199999Y-95147844D01*
X111200000Y-95147827D01*
X111200000Y-94750000D01*
X110379146Y-94750000D01*
X110417630Y-94683343D01*
X110450000Y-94562535D01*
X110450000Y-94437465D01*
X110417630Y-94316657D01*
X110379146Y-94250000D01*
X111200000Y-94250000D01*
X111200000Y-93852172D01*
X111199999Y-93852155D01*
X111193598Y-93792627D01*
X111193596Y-93792620D01*
X111143354Y-93657913D01*
X111143350Y-93657906D01*
X111057190Y-93542812D01*
X111057187Y-93542809D01*
X110942093Y-93456649D01*
X110942086Y-93456645D01*
X110807379Y-93406403D01*
X110807372Y-93406401D01*
X110747844Y-93400000D01*
X110225000Y-93400000D01*
X110225000Y-94095854D01*
X110158343Y-94057370D01*
X110037535Y-94025000D01*
X109912465Y-94025000D01*
X109791657Y-94057370D01*
X109725000Y-94095854D01*
X109725000Y-93400000D01*
X109202155Y-93400000D01*
X109142627Y-93406401D01*
X109142620Y-93406403D01*
X109007913Y-93456645D01*
X109007906Y-93456649D01*
X108892812Y-93542809D01*
X108892809Y-93542812D01*
X108806649Y-93657906D01*
X108806645Y-93657913D01*
X108756403Y-93792620D01*
X108756401Y-93792627D01*
X108750000Y-93852155D01*
X104199999Y-93852155D01*
X104193598Y-93792627D01*
X104193596Y-93792620D01*
X104143354Y-93657913D01*
X104143350Y-93657906D01*
X104057190Y-93542812D01*
X104057187Y-93542809D01*
X103942093Y-93456649D01*
X103942086Y-93456645D01*
X103807379Y-93406403D01*
X103807372Y-93406401D01*
X103747844Y-93400000D01*
X103225000Y-93400000D01*
X103225000Y-94095854D01*
X103158343Y-94057370D01*
X103037535Y-94025000D01*
X102912465Y-94025000D01*
X102791657Y-94057370D01*
X102725000Y-94095854D01*
X102725000Y-93400000D01*
X102202172Y-93400000D01*
X102187755Y-93401550D01*
X102118996Y-93389144D01*
X102067858Y-93341534D01*
X102050500Y-93278260D01*
X102050500Y-93022786D01*
X102057191Y-93000000D01*
X102388552Y-93000000D01*
X102427555Y-93019873D01*
G37*
%TD.AperFunction*%
%TD*%
M02*
