%TF.GenerationSoftware,KiCad,Pcbnew,8.0.2-1*%
%TF.CreationDate,2024-11-11T16:17:41-08:00*%
%TF.ProjectId,Main_Board_V2,4d61696e-5f42-46f6-9172-645f56322e6b,rev?*%
%TF.SameCoordinates,Original*%
%TF.FileFunction,Copper,L4,Bot*%
%TF.FilePolarity,Positive*%
%FSLAX46Y46*%
G04 Gerber Fmt 4.6, Leading zero omitted, Abs format (unit mm)*
G04 Created by KiCad (PCBNEW 8.0.2-1) date 2024-11-11 16:17:41*
%MOMM*%
%LPD*%
G01*
G04 APERTURE LIST*
G04 Aperture macros list*
%AMRoundRect*
0 Rectangle with rounded corners*
0 $1 Rounding radius*
0 $2 $3 $4 $5 $6 $7 $8 $9 X,Y pos of 4 corners*
0 Add a 4 corners polygon primitive as box body*
4,1,4,$2,$3,$4,$5,$6,$7,$8,$9,$2,$3,0*
0 Add four circle primitives for the rounded corners*
1,1,$1+$1,$2,$3*
1,1,$1+$1,$4,$5*
1,1,$1+$1,$6,$7*
1,1,$1+$1,$8,$9*
0 Add four rect primitives between the rounded corners*
20,1,$1+$1,$2,$3,$4,$5,0*
20,1,$1+$1,$4,$5,$6,$7,0*
20,1,$1+$1,$6,$7,$8,$9,0*
20,1,$1+$1,$8,$9,$2,$3,0*%
G04 Aperture macros list end*
%TA.AperFunction,ComponentPad*%
%ADD10R,2.000000X2.000000*%
%TD*%
%TA.AperFunction,ComponentPad*%
%ADD11C,2.000000*%
%TD*%
%TA.AperFunction,ComponentPad*%
%ADD12C,1.508000*%
%TD*%
%TA.AperFunction,ComponentPad*%
%ADD13R,2.550000X2.550000*%
%TD*%
%TA.AperFunction,ComponentPad*%
%ADD14C,2.550000*%
%TD*%
%TA.AperFunction,ComponentPad*%
%ADD15C,1.700000*%
%TD*%
%TA.AperFunction,ComponentPad*%
%ADD16R,0.900000X2.000000*%
%TD*%
%TA.AperFunction,ComponentPad*%
%ADD17RoundRect,1.025000X-1.025000X-1.025000X1.025000X-1.025000X1.025000X1.025000X-1.025000X1.025000X0*%
%TD*%
%TA.AperFunction,ComponentPad*%
%ADD18C,4.100000*%
%TD*%
%TA.AperFunction,ComponentPad*%
%ADD19O,1.100000X1.600000*%
%TD*%
%TA.AperFunction,ComponentPad*%
%ADD20R,1.700000X1.700000*%
%TD*%
%TA.AperFunction,ComponentPad*%
%ADD21O,1.700000X1.700000*%
%TD*%
%TA.AperFunction,ComponentPad*%
%ADD22R,2.000000X0.900000*%
%TD*%
%TA.AperFunction,ComponentPad*%
%ADD23RoundRect,1.025000X-1.025000X1.025000X-1.025000X-1.025000X1.025000X-1.025000X1.025000X1.025000X0*%
%TD*%
%TA.AperFunction,ComponentPad*%
%ADD24C,0.600000*%
%TD*%
%TA.AperFunction,SMDPad,CuDef*%
%ADD25R,4.500000X2.950000*%
%TD*%
%TA.AperFunction,ComponentPad*%
%ADD26RoundRect,0.250000X0.725000X-0.600000X0.725000X0.600000X-0.725000X0.600000X-0.725000X-0.600000X0*%
%TD*%
%TA.AperFunction,ComponentPad*%
%ADD27O,1.950000X1.700000*%
%TD*%
%TA.AperFunction,ViaPad*%
%ADD28C,0.450000*%
%TD*%
%TA.AperFunction,Conductor*%
%ADD29C,0.500000*%
%TD*%
%TA.AperFunction,Conductor*%
%ADD30C,0.200000*%
%TD*%
G04 APERTURE END LIST*
D10*
%TO.P,BZ3,1,+*%
%TO.N,+17V_SW*%
X129000000Y-95800000D03*
D11*
%TO.P,BZ3,2,-*%
%TO.N,unconnected-(Q8-D-Pad3)*%
X129000000Y-88200000D03*
%TD*%
D12*
%TO.P,J1,*%
%TO.N,*%
X136000000Y-51500000D03*
X147000000Y-51500000D03*
D13*
%TO.P,J1,1,P*%
%TO.N,+17V_SW*%
X144000000Y-56500000D03*
D14*
%TO.P,J1,2,N*%
%TO.N,GND*%
X139000000Y-56500000D03*
%TD*%
D15*
%TO.P,U10,1,GND*%
%TO.N,GND*%
X134420000Y-102519492D03*
%TO.P,U10,2,GND*%
X134420000Y-105059492D03*
%TO.P,U10,3,GND*%
X134420000Y-107599492D03*
%TO.P,U10,4,6V*%
%TO.N,+6V*%
X131880000Y-102519492D03*
%TO.P,U10,5,6V*%
X131880000Y-105059492D03*
%TO.P,U10,6,6V*%
X131880000Y-107599492D03*
%TO.P,U10,7,CH1*%
%TO.N,unconnected-(U10-CH1-Pad7)*%
X129340000Y-102519492D03*
%TO.P,U10,8,CH1*%
%TO.N,/Drive System/STEERING_RECEIVER*%
X129340000Y-105059492D03*
%TO.P,U10,9,CH2*%
%TO.N,/Drive System/THROTTLE_RECEIVER*%
X129340000Y-107599492D03*
%TD*%
D16*
%TO.P,J4,*%
%TO.N,*%
X102250000Y-52150000D03*
X115750000Y-52150000D03*
D17*
%TO.P,J4,1,-*%
%TO.N,GND*%
X105400000Y-58150000D03*
D18*
%TO.P,J4,2,+*%
%TO.N,+17V*%
X112600000Y-58150000D03*
%TD*%
D19*
%TO.P,J13,S1,SHIELD*%
%TO.N,GND*%
X145070000Y-106500000D03*
%TO.P,J13,S2,SHIELD*%
X145070000Y-98500000D03*
%TO.P,J13,S3,SHIELD*%
X147930000Y-106500000D03*
%TO.P,J13,S4,SHIELD*%
X147930000Y-98500000D03*
%TD*%
D16*
%TO.P,J8,*%
%TO.N,*%
X119250000Y-52000000D03*
X132750000Y-52000000D03*
D17*
%TO.P,J8,1,-*%
%TO.N,GND*%
X129600000Y-58000000D03*
D18*
%TO.P,J8,2,+*%
%TO.N,+17V_SW*%
X122400000Y-58000000D03*
%TD*%
D20*
%TO.P,J5,1,Pin_1*%
%TO.N,/PWR & USB/ON*%
X148000000Y-65300000D03*
D21*
%TO.P,J5,2,Pin_2*%
%TO.N,GND*%
X148000000Y-62760000D03*
%TO.P,J5,3,Pin_3*%
%TO.N,/ESP32/PWRBUT*%
X148000000Y-60220000D03*
%TO.P,J5,4,Pin_4*%
%TO.N,GND*%
X148000000Y-57680000D03*
%TD*%
D22*
%TO.P,J6,*%
%TO.N,*%
X147350000Y-109750000D03*
X147350000Y-123250000D03*
D23*
%TO.P,J6,1,-*%
%TO.N,GND*%
X141350000Y-120100000D03*
D18*
%TO.P,J6,2,+*%
%TO.N,+17V*%
X141350000Y-112900000D03*
%TD*%
D20*
%TO.P,M2,1,+*%
%TO.N,+17V_SW*%
X120000000Y-95837500D03*
D21*
%TO.P,M2,2,-*%
%TO.N,Net-(M2--)*%
X120000000Y-93297500D03*
%TD*%
D20*
%TO.P,J7,1,Pin_1*%
%TO.N,/Drive System/THROTTLE_RECEIVER*%
X138500000Y-67540000D03*
D21*
%TO.P,J7,2,Pin_2*%
%TO.N,+6V*%
X138500000Y-65000000D03*
%TO.P,J7,3,Pin_3*%
%TO.N,GND*%
X138500000Y-62460000D03*
%TD*%
D20*
%TO.P,J2,1,Pin_1*%
%TO.N,/Drive System/STEERING_RECEIVER*%
X142500000Y-67540000D03*
D21*
%TO.P,J2,2,Pin_2*%
%TO.N,unconnected-(J2-Pin_2-Pad2)*%
X142500000Y-65000000D03*
%TO.P,J2,3,Pin_3*%
%TO.N,GND*%
X142500000Y-62460000D03*
%TD*%
D24*
%TO.P,U8,9,GND*%
%TO.N,GND*%
X115700000Y-113600000D03*
X116900000Y-113600000D03*
X118200000Y-113600000D03*
X119300000Y-113600000D03*
D25*
X117500000Y-113000000D03*
D24*
X115700000Y-112400000D03*
X116900000Y-112400000D03*
X118200000Y-112400000D03*
X119300000Y-112400000D03*
%TD*%
D26*
%TO.P,J3,1,Pin_1*%
%TO.N,+17V_SW*%
X102975000Y-94500000D03*
D27*
%TO.P,J3,2,Pin_2*%
%TO.N,Net-(J3-Pin_2)*%
X102975000Y-92000000D03*
%TO.P,J3,3,Pin_3*%
%TO.N,/ESP32/LED_SIG_FRONT*%
X102975000Y-89500000D03*
%TO.P,J3,4,Pin_4*%
%TO.N,GND*%
X102975000Y-87000000D03*
%TD*%
D24*
%TO.P,U7,9,GND*%
%TO.N,GND*%
X105700000Y-113600000D03*
X106900000Y-113600000D03*
X108200000Y-113600000D03*
X109300000Y-113600000D03*
D25*
X107500000Y-113000000D03*
D24*
X105700000Y-112400000D03*
X106900000Y-112400000D03*
X108200000Y-112400000D03*
X109300000Y-112400000D03*
%TD*%
D26*
%TO.P,J12,1,Pin_1*%
%TO.N,+17V_SW*%
X109975000Y-94500000D03*
D27*
%TO.P,J12,2,Pin_2*%
%TO.N,Net-(J12-Pin_2)*%
X109975000Y-92000000D03*
%TO.P,J12,3,Pin_3*%
%TO.N,/ESP32/LED_SIG_REAR*%
X109975000Y-89500000D03*
%TO.P,J12,4,Pin_4*%
%TO.N,GND*%
X109975000Y-87000000D03*
%TD*%
D20*
%TO.P,M3,1,+*%
%TO.N,+6V*%
X116000000Y-95837500D03*
D21*
%TO.P,M3,2,-*%
%TO.N,Net-(M3--)*%
X116000000Y-93297500D03*
%TD*%
D28*
%TO.N,/PWR & USB/ON*%
X135500000Y-68500000D03*
X130000000Y-70500000D03*
X130500000Y-67500000D03*
X124500000Y-67500000D03*
%TO.N,/Drive System/STEERING_RECEIVER*%
X138500000Y-81000000D03*
%TO.N,GND*%
X106500000Y-78500000D03*
X141000000Y-76000000D03*
X105000000Y-77500000D03*
X118750000Y-123000000D03*
X147750000Y-69500000D03*
X133750000Y-70500000D03*
X141000000Y-79000000D03*
X154000000Y-66000000D03*
X148500000Y-96000000D03*
X135000000Y-86250000D03*
X141000000Y-77500000D03*
X119000000Y-86250000D03*
X115000000Y-86250000D03*
X150500000Y-53000000D03*
X141500000Y-94000000D03*
X152000000Y-59000000D03*
X114000000Y-79500000D03*
X125500000Y-72500000D03*
X119250000Y-123500000D03*
X148500000Y-92000000D03*
X121500000Y-84000000D03*
X145525000Y-87490000D03*
X106000000Y-77500000D03*
%TO.N,+3V3*%
X150500000Y-57000000D03*
X122500000Y-124000000D03*
X147000000Y-86500000D03*
X147000000Y-67500000D03*
X133500000Y-73500000D03*
X146925000Y-82500000D03*
%TO.N,+5V*%
X146500000Y-101250000D03*
X106500000Y-70500000D03*
X146500000Y-103750000D03*
X136250000Y-103000000D03*
X145000000Y-95000000D03*
X107500000Y-83000000D03*
%TO.N,+17V*%
X115000000Y-63000000D03*
X112000000Y-67500000D03*
X110500000Y-69000000D03*
X112000000Y-66000000D03*
X115000000Y-69000000D03*
X112000000Y-64500000D03*
X118000000Y-67500000D03*
X113500000Y-67500000D03*
X116500000Y-69000000D03*
X116500000Y-64500000D03*
X110500000Y-67500000D03*
X115000000Y-67500000D03*
X113500000Y-66000000D03*
X121000000Y-69000000D03*
X129500000Y-69000000D03*
X133000000Y-69000000D03*
X115000000Y-64500000D03*
X118000000Y-63000000D03*
X110500000Y-63000000D03*
X116500000Y-67500000D03*
X128500000Y-69000000D03*
X115000000Y-66000000D03*
X127000000Y-69000000D03*
X118000000Y-66000000D03*
X125500000Y-69000000D03*
X113500000Y-69000000D03*
X119500000Y-69000000D03*
X113500000Y-63000000D03*
X124000000Y-69000000D03*
X116500000Y-63000000D03*
X131500000Y-69000000D03*
X110500000Y-66000000D03*
X112000000Y-69000000D03*
X118000000Y-69000000D03*
X118000000Y-64500000D03*
X122500000Y-69000000D03*
X116500000Y-66000000D03*
X112000000Y-63000000D03*
X113500000Y-64500000D03*
%TO.N,/Drive System/THROTTLE_RECEIVER*%
X137969668Y-80030332D03*
%TO.N,/ESP32/DN*%
X144350000Y-86000000D03*
X146000000Y-102225000D03*
X144349996Y-83496852D03*
X146997102Y-102775000D03*
%TO.N,/ESP32/DP*%
X143650000Y-86000000D03*
X143700001Y-83500000D03*
%TO.N,/ESP32/PWRBUT*%
X144500000Y-71500000D03*
%TO.N,+17V_SW*%
X135000000Y-64500000D03*
X126000000Y-64500000D03*
X135000000Y-62500000D03*
X126000000Y-63500000D03*
X127500000Y-65500000D03*
X105000000Y-109000000D03*
X104000000Y-69000000D03*
X126000000Y-65500000D03*
X113500000Y-109000000D03*
X105500000Y-69000000D03*
X127500000Y-63500000D03*
X129000000Y-63500000D03*
X133500000Y-64500000D03*
X133500000Y-63500000D03*
X121500000Y-62500000D03*
X135000000Y-65500000D03*
X127500000Y-62500000D03*
X132000000Y-62500000D03*
X127500000Y-64500000D03*
X104000000Y-68000000D03*
X132000000Y-64500000D03*
X105500000Y-108000000D03*
X123000000Y-64500000D03*
X135000000Y-63500000D03*
X102500000Y-68000000D03*
X115000000Y-109000000D03*
X115500000Y-108000000D03*
X133500000Y-65500000D03*
X129000000Y-65500000D03*
X121500000Y-64500000D03*
X103500000Y-109000000D03*
X123000000Y-62500000D03*
X129000000Y-64500000D03*
X105500000Y-68000000D03*
X132000000Y-65500000D03*
X132000000Y-63500000D03*
X123000000Y-65500000D03*
X102500000Y-67000000D03*
X120000000Y-64500000D03*
X121500000Y-65500000D03*
X120000000Y-62500000D03*
X102500000Y-69000000D03*
X126000000Y-62500000D03*
X104000000Y-67000000D03*
X123000000Y-63500000D03*
X120000000Y-63500000D03*
X121500000Y-63500000D03*
X133500000Y-62500000D03*
X120000000Y-65500000D03*
X129000000Y-62500000D03*
%TO.N,/ESP32/ADXL_SCL*%
X123500000Y-121000000D03*
X116250000Y-120990000D03*
%TO.N,/ESP32/ONBOARD_LED_SIG*%
X153000000Y-62500000D03*
X153000000Y-61000000D03*
%TO.N,Net-(U1-IO0{slash}BOOT)*%
X144999991Y-83500126D03*
X144975000Y-86500000D03*
%TD*%
D29*
%TO.N,/PWR & USB/ON*%
X130000000Y-70500000D02*
X130500000Y-70000000D01*
X135000000Y-68500000D02*
X134000000Y-67500000D01*
X134000000Y-67500000D02*
X130500000Y-67500000D01*
X130500000Y-70000000D02*
X130500000Y-67500000D01*
X135500000Y-68500000D02*
X135000000Y-68500000D01*
X124500000Y-67500000D02*
X130500000Y-67500000D01*
D30*
%TO.N,/Drive System/STEERING_RECEIVER*%
X138500000Y-81000000D02*
X138500000Y-70000000D01*
X140960000Y-67540000D02*
X142000000Y-67540000D01*
X138500000Y-70000000D02*
X140960000Y-67540000D01*
%TO.N,/Drive System/THROTTLE_RECEIVER*%
X137969668Y-80030332D02*
X138000000Y-80000000D01*
X138000000Y-68040000D02*
X138500000Y-67540000D01*
X138000000Y-80000000D02*
X138000000Y-68040000D01*
%TO.N,/ESP32/DN*%
X144225001Y-85875001D02*
X144350000Y-86000000D01*
X146550000Y-102775000D02*
X146000000Y-102225000D01*
X146997102Y-102775000D02*
X146550000Y-102775000D01*
X144225001Y-83621847D02*
X144225001Y-85875001D01*
X144349996Y-83496852D02*
X144225001Y-83621847D01*
%TO.N,/ESP32/DP*%
X143700001Y-83500000D02*
X143774999Y-83574998D01*
X143774999Y-85875001D02*
X143650000Y-86000000D01*
X143774999Y-83574998D02*
X143774999Y-85875001D01*
%TO.N,/ESP32/PWRBUT*%
X144500000Y-62500000D02*
X146780000Y-60220000D01*
X146780000Y-60220000D02*
X148000000Y-60220000D01*
X144500000Y-71500000D02*
X144500000Y-62500000D01*
%TO.N,/ESP32/ADXL_SCL*%
X116260000Y-121000000D02*
X123500000Y-121000000D01*
X116250000Y-120990000D02*
X116260000Y-121000000D01*
%TO.N,/ESP32/ONBOARD_LED_SIG*%
X153000000Y-62500000D02*
X153000000Y-61000000D01*
%TO.N,Net-(U1-IO0{slash}BOOT)*%
X144975000Y-83525117D02*
X144999991Y-83500126D01*
X144975000Y-86500000D02*
X144975000Y-83525117D01*
%TD*%
%TA.AperFunction,Conductor*%
%TO.N,+17V_SW*%
G36*
X146443039Y-53519685D02*
G01*
X146488794Y-53572489D01*
X146500000Y-53624000D01*
X146500000Y-60023667D01*
X146480315Y-60090706D01*
X146463681Y-60111348D01*
X146111348Y-60463681D01*
X146050025Y-60497166D01*
X146023667Y-60500000D01*
X136000000Y-60500000D01*
X136000000Y-65876000D01*
X135980315Y-65943039D01*
X135927511Y-65988794D01*
X135876000Y-66000000D01*
X119124000Y-66000000D01*
X119056961Y-65980315D01*
X119011206Y-65927511D01*
X119000000Y-65876000D01*
X119000000Y-57999994D01*
X119844958Y-57999994D01*
X119844958Y-58000005D01*
X119865103Y-58320221D01*
X119865104Y-58320228D01*
X119925230Y-58635417D01*
X120024382Y-58940575D01*
X120024384Y-58940580D01*
X120160998Y-59230897D01*
X120161003Y-59230907D01*
X120277855Y-59415035D01*
X120277856Y-59415036D01*
X121157603Y-58535289D01*
X121245377Y-58707554D01*
X121370278Y-58879466D01*
X121520534Y-59029722D01*
X121692446Y-59154623D01*
X121864709Y-59242396D01*
X120983951Y-60123153D01*
X120983952Y-60123154D01*
X121030933Y-60157288D01*
X121030952Y-60157300D01*
X121312116Y-60311871D01*
X121312124Y-60311875D01*
X121610444Y-60429987D01*
X121921233Y-60509784D01*
X121921242Y-60509786D01*
X122239556Y-60549999D01*
X122239570Y-60550000D01*
X122560430Y-60550000D01*
X122560443Y-60549999D01*
X122878757Y-60509786D01*
X122878766Y-60509784D01*
X123189555Y-60429987D01*
X123487875Y-60311875D01*
X123487876Y-60311874D01*
X123769060Y-60157291D01*
X123769066Y-60157288D01*
X123816046Y-60123154D01*
X123816046Y-60123153D01*
X122935289Y-59242396D01*
X123107554Y-59154623D01*
X123279466Y-59029722D01*
X123429722Y-58879466D01*
X123554623Y-58707554D01*
X123642396Y-58535289D01*
X124522143Y-59415036D01*
X124522143Y-59415035D01*
X124638994Y-59230909D01*
X124639005Y-59230890D01*
X124775615Y-58940580D01*
X124775617Y-58940575D01*
X124874769Y-58635417D01*
X124934895Y-58320228D01*
X124934896Y-58320221D01*
X124955042Y-58000005D01*
X124955042Y-57999994D01*
X124934896Y-57679778D01*
X124934895Y-57679771D01*
X124874769Y-57364582D01*
X124775617Y-57059424D01*
X124775615Y-57059419D01*
X124706273Y-56912061D01*
X127349500Y-56912061D01*
X127349500Y-59087924D01*
X127349501Y-59087939D01*
X127359696Y-59217484D01*
X127413596Y-59431395D01*
X127504826Y-59632243D01*
X127630449Y-59813568D01*
X127786431Y-59969550D01*
X127967756Y-60095173D01*
X127967757Y-60095173D01*
X127967761Y-60095176D01*
X128101875Y-60156093D01*
X128168604Y-60186403D01*
X128168605Y-60186403D01*
X128168607Y-60186404D01*
X128382515Y-60240304D01*
X128512067Y-60250500D01*
X130687932Y-60250499D01*
X130817485Y-60240304D01*
X131031393Y-60186404D01*
X131232239Y-60095176D01*
X131413567Y-59969551D01*
X131569551Y-59813567D01*
X131695176Y-59632239D01*
X131786404Y-59431393D01*
X131840304Y-59217485D01*
X131850500Y-59087933D01*
X131850499Y-56912068D01*
X131840304Y-56782515D01*
X131786404Y-56568607D01*
X131755239Y-56499994D01*
X137519443Y-56499994D01*
X137519443Y-56500005D01*
X137539634Y-56743683D01*
X137539636Y-56743695D01*
X137599663Y-56980734D01*
X137697888Y-57204666D01*
X137831632Y-57409378D01*
X137997242Y-57589277D01*
X137997252Y-57589286D01*
X138190208Y-57739470D01*
X138190212Y-57739473D01*
X138405267Y-57855855D01*
X138405270Y-57855856D01*
X138636541Y-57935251D01*
X138636543Y-57935251D01*
X138636545Y-57935252D01*
X138877737Y-57975500D01*
X138877738Y-57975500D01*
X139122262Y-57975500D01*
X139122263Y-57975500D01*
X139363455Y-57935252D01*
X139594733Y-57855855D01*
X139809788Y-57739473D01*
X140002754Y-57589281D01*
X140168368Y-57409377D01*
X140302111Y-57204667D01*
X140400336Y-56980736D01*
X140460364Y-56743692D01*
X140474872Y-56568607D01*
X140480557Y-56500005D01*
X140480557Y-56499994D01*
X140460365Y-56256316D01*
X140460363Y-56256304D01*
X140400336Y-56019265D01*
X140373531Y-55958156D01*
X140302111Y-55795333D01*
X140168368Y-55590623D01*
X140168367Y-55590621D01*
X140002757Y-55410722D01*
X140002747Y-55410713D01*
X139809791Y-55260529D01*
X139809787Y-55260526D01*
X139655731Y-55177155D01*
X142225000Y-55177155D01*
X142225000Y-56000000D01*
X143311803Y-56000000D01*
X143246740Y-56097374D01*
X143182665Y-56252064D01*
X143150000Y-56416282D01*
X143150000Y-56583718D01*
X143182665Y-56747936D01*
X143246740Y-56902626D01*
X143311803Y-57000000D01*
X142225000Y-57000000D01*
X142225000Y-57822844D01*
X142231401Y-57882372D01*
X142231403Y-57882379D01*
X142281645Y-58017086D01*
X142281649Y-58017093D01*
X142367809Y-58132187D01*
X142367812Y-58132190D01*
X142482906Y-58218350D01*
X142482913Y-58218354D01*
X142617620Y-58268596D01*
X142617627Y-58268598D01*
X142677155Y-58274999D01*
X142677172Y-58275000D01*
X143500000Y-58275000D01*
X143500000Y-57188197D01*
X143597374Y-57253260D01*
X143752064Y-57317335D01*
X143916282Y-57350000D01*
X144083718Y-57350000D01*
X144247936Y-57317335D01*
X144402626Y-57253260D01*
X144500000Y-57188197D01*
X144500000Y-58275000D01*
X145322828Y-58275000D01*
X145322844Y-58274999D01*
X145382372Y-58268598D01*
X145382379Y-58268596D01*
X145517086Y-58218354D01*
X145517093Y-58218350D01*
X145632187Y-58132190D01*
X145632190Y-58132187D01*
X145718350Y-58017093D01*
X145718354Y-58017086D01*
X145768596Y-57882379D01*
X145768598Y-57882372D01*
X145774999Y-57822844D01*
X145775000Y-57822827D01*
X145775000Y-57000000D01*
X144688197Y-57000000D01*
X144753260Y-56902626D01*
X144817335Y-56747936D01*
X144850000Y-56583718D01*
X144850000Y-56416282D01*
X144817335Y-56252064D01*
X144753260Y-56097374D01*
X144688197Y-56000000D01*
X145775000Y-56000000D01*
X145775000Y-55177172D01*
X145774999Y-55177155D01*
X145768598Y-55117627D01*
X145768596Y-55117620D01*
X145718354Y-54982913D01*
X145718350Y-54982906D01*
X145632190Y-54867812D01*
X145632187Y-54867809D01*
X145517093Y-54781649D01*
X145517086Y-54781645D01*
X145382379Y-54731403D01*
X145382372Y-54731401D01*
X145322844Y-54725000D01*
X144500000Y-54725000D01*
X144500000Y-55811802D01*
X144402626Y-55746740D01*
X144247936Y-55682665D01*
X144083718Y-55650000D01*
X143916282Y-55650000D01*
X143752064Y-55682665D01*
X143597374Y-55746740D01*
X143500000Y-55811802D01*
X143500000Y-54725000D01*
X142677155Y-54725000D01*
X142617627Y-54731401D01*
X142617620Y-54731403D01*
X142482913Y-54781645D01*
X142482906Y-54781649D01*
X142367812Y-54867809D01*
X142367809Y-54867812D01*
X142281649Y-54982906D01*
X142281645Y-54982913D01*
X142231403Y-55117620D01*
X142231401Y-55117627D01*
X142225000Y-55177155D01*
X139655731Y-55177155D01*
X139594734Y-55144145D01*
X139594729Y-55144143D01*
X139363458Y-55064748D01*
X139182561Y-55034562D01*
X139122263Y-55024500D01*
X138877737Y-55024500D01*
X138829498Y-55032549D01*
X138636541Y-55064748D01*
X138405270Y-55144143D01*
X138405265Y-55144145D01*
X138190212Y-55260526D01*
X138190208Y-55260529D01*
X137997252Y-55410713D01*
X137997242Y-55410722D01*
X137831632Y-55590621D01*
X137697888Y-55795333D01*
X137599663Y-56019265D01*
X137539636Y-56256304D01*
X137539634Y-56256316D01*
X137519443Y-56499994D01*
X131755239Y-56499994D01*
X131695176Y-56367761D01*
X131617966Y-56256316D01*
X131569550Y-56186431D01*
X131413568Y-56030449D01*
X131232243Y-55904826D01*
X131031395Y-55813596D01*
X130888787Y-55777662D01*
X130817485Y-55759696D01*
X130687933Y-55749500D01*
X130687931Y-55749500D01*
X128512075Y-55749500D01*
X128512060Y-55749501D01*
X128382515Y-55759696D01*
X128168604Y-55813596D01*
X127967756Y-55904826D01*
X127786431Y-56030449D01*
X127630449Y-56186431D01*
X127504826Y-56367756D01*
X127413596Y-56568604D01*
X127359696Y-56782515D01*
X127349500Y-56912061D01*
X124706273Y-56912061D01*
X124639001Y-56769101D01*
X124638993Y-56769086D01*
X124522143Y-56584963D01*
X123642396Y-57464709D01*
X123554623Y-57292446D01*
X123429722Y-57120534D01*
X123279466Y-56970278D01*
X123107554Y-56845377D01*
X122935289Y-56757603D01*
X123816047Y-55876845D01*
X123816046Y-55876843D01*
X123769071Y-55842714D01*
X123769053Y-55842702D01*
X123487883Y-55688128D01*
X123487875Y-55688124D01*
X123189555Y-55570012D01*
X122878766Y-55490215D01*
X122878757Y-55490213D01*
X122560443Y-55450000D01*
X122239556Y-55450000D01*
X121921242Y-55490213D01*
X121921233Y-55490215D01*
X121610444Y-55570012D01*
X121312124Y-55688124D01*
X121312116Y-55688128D01*
X121030943Y-55842704D01*
X121030941Y-55842706D01*
X120983952Y-55876844D01*
X120983952Y-55876845D01*
X121864710Y-56757603D01*
X121692446Y-56845377D01*
X121520534Y-56970278D01*
X121370278Y-57120534D01*
X121245377Y-57292446D01*
X121157603Y-57464710D01*
X120277855Y-56584962D01*
X120161001Y-56769096D01*
X120160998Y-56769102D01*
X120024384Y-57059419D01*
X120024382Y-57059424D01*
X119925230Y-57364582D01*
X119865104Y-57679771D01*
X119865103Y-57679778D01*
X119844958Y-57999994D01*
X119000000Y-57999994D01*
X119000000Y-53624000D01*
X119019685Y-53556961D01*
X119072489Y-53511206D01*
X119124000Y-53500000D01*
X146376000Y-53500000D01*
X146443039Y-53519685D01*
G37*
%TD.AperFunction*%
%TD*%
M02*
