M48
; DRILL file {KiCad 8.0.2-1} date 2024-11-11T16:17:36-0800
; FORMAT={-:-/ absolute / inch / decimal}
; #@! TF.CreationDate,2024-11-11T16:17:36-08:00
; #@! TF.GenerationSoftware,Kicad,Pcbnew,8.0.2-1
; #@! TF.FileFunction,Plated,1,4,PTH
FMAT,2
INCH
; #@! TA.AperFunction,Plated,PTH,ViaDrill
T1C0.0079
; #@! TA.AperFunction,Plated,PTH,ComponentDrill
T2C0.0118
; #@! TA.AperFunction,Plated,PTH,ComponentDrill
T3C0.0236
; #@! TA.AperFunction,Plated,PTH,ComponentDrill
T4C0.0374
; #@! TA.AperFunction,Plated,PTH,ComponentDrill
T5C0.0394
; #@! TA.AperFunction,Plated,PTH,ComponentDrill
T6C0.0669
; #@! TA.AperFunction,Plated,PTH,ComponentDrill
T7C0.1063
%
G90
G05
T1
X4.0354Y-2.6378
X4.0354Y-2.6772
X4.0354Y-2.7165
X4.0748Y-4.2913
X4.0945Y-2.6378
X4.0945Y-2.6772
X4.0945Y-2.7165
X4.1339Y-3.0512
X4.1339Y-4.2913
X4.1535Y-2.6772
X4.1535Y-2.7165
X4.1535Y-4.252
X4.1732Y-3.0512
X4.1929Y-2.7756
X4.1929Y-3.0906
X4.2323Y-3.2677
X4.3504Y-2.4803
X4.3504Y-2.5984
X4.3504Y-2.6575
X4.3504Y-2.7165
X4.4094Y-2.4803
X4.4094Y-2.5394
X4.4094Y-2.5984
X4.4094Y-2.6575
X4.4094Y-2.7165
X4.4685Y-2.4803
X4.4685Y-2.5394
X4.4685Y-2.5984
X4.4685Y-2.6575
X4.4685Y-2.7165
X4.4685Y-4.2913
X4.4882Y-3.1299
X4.5276Y-2.4803
X4.5276Y-2.5394
X4.5276Y-2.5984
X4.5276Y-2.6575
X4.5276Y-2.7165
X4.5276Y-3.3957
X4.5276Y-4.2913
X4.5472Y-4.252
X4.5768Y-4.7634
X4.5866Y-2.4803
X4.5866Y-2.5394
X4.5866Y-2.5984
X4.5866Y-2.6575
X4.5866Y-2.7165
X4.6457Y-2.4803
X4.6457Y-2.5394
X4.6457Y-2.5984
X4.6457Y-2.6575
X4.6457Y-2.7165
X4.6752Y-4.8425
X4.685Y-3.3957
X4.6949Y-4.8622
X4.7047Y-2.7165
X4.7244Y-2.4606
X4.7244Y-2.5
X4.7244Y-2.5394
X4.7244Y-2.5787
X4.7638Y-2.7165
X4.7835Y-2.4606
X4.7835Y-2.5
X4.7835Y-2.5394
X4.7835Y-2.5787
X4.7835Y-3.3071
X4.8228Y-2.7165
X4.8228Y-4.8819
X4.8425Y-2.4606
X4.8425Y-2.5
X4.8425Y-2.5394
X4.8425Y-2.5787
X4.8622Y-4.7638
X4.8819Y-2.7165
X4.9016Y-2.6575
X4.9409Y-2.7165
X4.9409Y-2.8543
X4.9606Y-2.4606
X4.9606Y-2.5
X4.9606Y-2.5394
X4.9606Y-2.5787
X5.0Y-2.7165
X5.0197Y-2.4606
X5.0197Y-2.5
X5.0197Y-2.5394
X5.0197Y-2.5787
X5.0591Y-2.7165
X5.0787Y-2.4606
X5.0787Y-2.5
X5.0787Y-2.5394
X5.0787Y-2.5787
X5.0984Y-2.7165
X5.1181Y-2.7756
X5.1378Y-2.6575
X5.1772Y-2.7165
X5.1969Y-2.4606
X5.1969Y-2.5
X5.1969Y-2.5394
X5.1969Y-2.5787
X5.2362Y-2.7165
X5.2559Y-2.4606
X5.2559Y-2.5
X5.2559Y-2.5394
X5.2559Y-2.5787
X5.2559Y-2.8937
X5.2657Y-2.7756
X5.315Y-2.4606
X5.315Y-2.5
X5.315Y-2.5394
X5.315Y-2.5787
X5.315Y-3.3957
X5.3346Y-2.6969
X5.3642Y-4.0551
X5.4319Y-3.1508
X5.4528Y-3.189
X5.5512Y-2.9921
X5.5512Y-3.0512
X5.5512Y-3.1102
X5.5709Y-3.7008
X5.6555Y-3.3858
X5.6575Y-3.2874
X5.6831Y-3.2873
X5.6831Y-3.3858
X5.689Y-2.815
X5.7077Y-3.4055
X5.7087Y-3.2874
X5.7087Y-3.7402
X5.7293Y-3.4445
X5.748Y-4.0246
X5.7677Y-3.9862
X5.7677Y-4.0846
X5.7844Y-3.248
X5.7873Y-4.0463
X5.7874Y-2.6575
X5.7874Y-3.4055
X5.8169Y-2.7362
X5.8465Y-3.622
X5.8465Y-3.7795
X5.9252Y-2.0866
X5.9252Y-2.2441
X5.9843Y-2.3228
X6.0236Y-2.4016
X6.0236Y-2.4606
X6.063Y-2.5984
T2
X4.1614Y-4.4252
X4.1614Y-4.4724
X4.2087Y-4.4252
X4.2087Y-4.4724
X4.2598Y-4.4252
X4.2598Y-4.4724
X4.3031Y-4.4252
X4.3031Y-4.4724
X4.5551Y-4.4252
X4.5551Y-4.4724
X4.6024Y-4.4252
X4.6024Y-4.4724
X4.6535Y-4.4252
X4.6535Y-4.4724
X4.6969Y-4.4252
X4.6969Y-4.4724
T4
X4.0541Y-3.4252
X4.0541Y-3.5236
X4.0541Y-3.622
X4.0541Y-3.7205
X4.3297Y-3.4252
X4.3297Y-3.5236
X4.3297Y-3.622
X4.3297Y-3.7205
T5
X4.5669Y-3.6731
X4.5669Y-3.7731
X4.7244Y-3.6731
X4.7244Y-3.7731
X5.0787Y-3.4724
X5.0787Y-3.7717
X5.0921Y-4.0362
X5.0921Y-4.1362
X5.0921Y-4.2362
X5.1921Y-4.0362
X5.1921Y-4.1362
X5.1921Y-4.2362
X5.2921Y-4.0362
X5.2921Y-4.1362
X5.2921Y-4.2362
X5.3543Y-2.0276
X5.4528Y-2.4591
X5.4528Y-2.5591
X5.4528Y-2.6591
X5.6102Y-2.4591
X5.6102Y-2.5591
X5.6102Y-2.6591
X5.7874Y-2.0276
X5.8268Y-2.2709
X5.8268Y-2.3709
X5.8268Y-2.4709
X5.8268Y-2.5709
T6
X5.4724Y-2.2244
X5.6693Y-2.2244
T7
X4.1496Y-2.2894
X4.4331Y-2.2894
X4.8189Y-2.2835
X5.1024Y-2.2835
X5.565Y-4.4449
X5.565Y-4.7283
T3
G00X4.0256Y-2.0315
M15
G01X4.0256Y-2.0748
M16
G05
G00X4.5571Y-2.0315
M15
G01X4.5571Y-2.0748
M16
G05
G00X4.6949Y-2.0256
M15
G01X4.6949Y-2.0689
M16
G05
G00X5.2264Y-2.0256
M15
G01X5.2264Y-2.0689
M16
G05
G00X5.7114Y-3.8878
M15
G01X5.7114Y-3.8681
M16
G05
G00X5.7114Y-4.2028
M15
G01X5.7114Y-4.1831
M16
G05
G00X5.8228Y-4.3209
M15
G01X5.7795Y-4.3209
M16
G05
G00X5.8228Y-4.8524
M15
G01X5.7795Y-4.8524
M16
G05
G00X5.824Y-3.8878
M15
G01X5.824Y-3.8681
M16
G05
G00X5.824Y-4.2028
M15
G01X5.824Y-4.1831
M16
G05
M30
