%TF.GenerationSoftware,KiCad,Pcbnew,8.0.2-1*%
%TF.CreationDate,2024-11-11T16:17:41-08:00*%
%TF.ProjectId,Main_Board_V2,4d61696e-5f42-46f6-9172-645f56322e6b,rev?*%
%TF.SameCoordinates,Original*%
%TF.FileFunction,Copper,L1,Top*%
%TF.FilePolarity,Positive*%
%FSLAX46Y46*%
G04 Gerber Fmt 4.6, Leading zero omitted, Abs format (unit mm)*
G04 Created by KiCad (PCBNEW 8.0.2-1) date 2024-11-11 16:17:41*
%MOMM*%
%LPD*%
G01*
G04 APERTURE LIST*
G04 Aperture macros list*
%AMRoundRect*
0 Rectangle with rounded corners*
0 $1 Rounding radius*
0 $2 $3 $4 $5 $6 $7 $8 $9 X,Y pos of 4 corners*
0 Add a 4 corners polygon primitive as box body*
4,1,4,$2,$3,$4,$5,$6,$7,$8,$9,$2,$3,0*
0 Add four circle primitives for the rounded corners*
1,1,$1+$1,$2,$3*
1,1,$1+$1,$4,$5*
1,1,$1+$1,$6,$7*
1,1,$1+$1,$8,$9*
0 Add four rect primitives between the rounded corners*
20,1,$1+$1,$2,$3,$4,$5,0*
20,1,$1+$1,$4,$5,$6,$7,0*
20,1,$1+$1,$6,$7,$8,$9,0*
20,1,$1+$1,$8,$9,$2,$3,0*%
%AMFreePoly0*
4,1,14,0.603536,0.603536,0.605000,0.600000,0.605000,-0.600000,0.603536,-0.603536,0.600000,-0.605000,-0.600000,-0.605000,-0.603536,-0.603536,-0.605000,-0.600000,-0.605000,0.000000,-0.603536,0.003536,-0.003536,0.603536,0.000000,0.605000,0.600000,0.605000,0.603536,0.603536,0.603536,0.603536,$1*%
G04 Aperture macros list end*
%TA.AperFunction,ComponentPad*%
%ADD10R,2.000000X2.000000*%
%TD*%
%TA.AperFunction,ComponentPad*%
%ADD11C,2.000000*%
%TD*%
%TA.AperFunction,SMDPad,CuDef*%
%ADD12RoundRect,0.135000X0.135000X0.185000X-0.135000X0.185000X-0.135000X-0.185000X0.135000X-0.185000X0*%
%TD*%
%TA.AperFunction,SMDPad,CuDef*%
%ADD13RoundRect,0.250000X-0.475000X0.250000X-0.475000X-0.250000X0.475000X-0.250000X0.475000X0.250000X0*%
%TD*%
%TA.AperFunction,SMDPad,CuDef*%
%ADD14R,0.400000X0.800000*%
%TD*%
%TA.AperFunction,SMDPad,CuDef*%
%ADD15R,0.800000X0.400000*%
%TD*%
%TA.AperFunction,SMDPad,CuDef*%
%ADD16R,1.200000X1.200000*%
%TD*%
%TA.AperFunction,SMDPad,CuDef*%
%ADD17FreePoly0,270.000000*%
%TD*%
%TA.AperFunction,SMDPad,CuDef*%
%ADD18R,0.800000X0.800000*%
%TD*%
%TA.AperFunction,SMDPad,CuDef*%
%ADD19RoundRect,0.135000X0.185000X-0.135000X0.185000X0.135000X-0.185000X0.135000X-0.185000X-0.135000X0*%
%TD*%
%TA.AperFunction,ComponentPad*%
%ADD20C,1.508000*%
%TD*%
%TA.AperFunction,ComponentPad*%
%ADD21R,2.550000X2.550000*%
%TD*%
%TA.AperFunction,ComponentPad*%
%ADD22C,2.550000*%
%TD*%
%TA.AperFunction,SMDPad,CuDef*%
%ADD23RoundRect,0.135000X-0.135000X-0.185000X0.135000X-0.185000X0.135000X0.185000X-0.135000X0.185000X0*%
%TD*%
%TA.AperFunction,SMDPad,CuDef*%
%ADD24RoundRect,0.150000X0.587500X0.150000X-0.587500X0.150000X-0.587500X-0.150000X0.587500X-0.150000X0*%
%TD*%
%TA.AperFunction,SMDPad,CuDef*%
%ADD25C,1.500000*%
%TD*%
%TA.AperFunction,SMDPad,CuDef*%
%ADD26RoundRect,0.150000X0.512500X0.150000X-0.512500X0.150000X-0.512500X-0.150000X0.512500X-0.150000X0*%
%TD*%
%TA.AperFunction,SMDPad,CuDef*%
%ADD27RoundRect,0.140000X0.140000X0.170000X-0.140000X0.170000X-0.140000X-0.170000X0.140000X-0.170000X0*%
%TD*%
%TA.AperFunction,SMDPad,CuDef*%
%ADD28RoundRect,0.225000X-0.250000X0.225000X-0.250000X-0.225000X0.250000X-0.225000X0.250000X0.225000X0*%
%TD*%
%TA.AperFunction,SMDPad,CuDef*%
%ADD29RoundRect,0.225000X-0.225000X-0.250000X0.225000X-0.250000X0.225000X0.250000X-0.225000X0.250000X0*%
%TD*%
%TA.AperFunction,SMDPad,CuDef*%
%ADD30RoundRect,0.135000X-0.185000X0.135000X-0.185000X-0.135000X0.185000X-0.135000X0.185000X0.135000X0*%
%TD*%
%TA.AperFunction,ComponentPad*%
%ADD31C,1.700000*%
%TD*%
%TA.AperFunction,SMDPad,CuDef*%
%ADD32R,1.600000X5.700000*%
%TD*%
%TA.AperFunction,SMDPad,CuDef*%
%ADD33RoundRect,0.140000X-0.170000X0.140000X-0.170000X-0.140000X0.170000X-0.140000X0.170000X0.140000X0*%
%TD*%
%TA.AperFunction,ComponentPad*%
%ADD34R,0.900000X2.000000*%
%TD*%
%TA.AperFunction,ComponentPad*%
%ADD35RoundRect,1.025000X-1.025000X-1.025000X1.025000X-1.025000X1.025000X1.025000X-1.025000X1.025000X0*%
%TD*%
%TA.AperFunction,ComponentPad*%
%ADD36C,4.100000*%
%TD*%
%TA.AperFunction,SMDPad,CuDef*%
%ADD37RoundRect,0.250000X0.300000X-0.300000X0.300000X0.300000X-0.300000X0.300000X-0.300000X-0.300000X0*%
%TD*%
%TA.AperFunction,SMDPad,CuDef*%
%ADD38R,0.610000X1.270000*%
%TD*%
%TA.AperFunction,SMDPad,CuDef*%
%ADD39R,3.910000X3.810000*%
%TD*%
%TA.AperFunction,SMDPad,CuDef*%
%ADD40R,0.610000X1.020000*%
%TD*%
%TA.AperFunction,SMDPad,CuDef*%
%ADD41R,1.150000X0.300000*%
%TD*%
%TA.AperFunction,ComponentPad*%
%ADD42O,1.100000X1.600000*%
%TD*%
%TA.AperFunction,SMDPad,CuDef*%
%ADD43R,0.900000X1.500000*%
%TD*%
%TA.AperFunction,SMDPad,CuDef*%
%ADD44RoundRect,0.175000X-0.175000X-0.325000X0.175000X-0.325000X0.175000X0.325000X-0.175000X0.325000X0*%
%TD*%
%TA.AperFunction,SMDPad,CuDef*%
%ADD45RoundRect,0.150000X-0.200000X-0.150000X0.200000X-0.150000X0.200000X0.150000X-0.200000X0.150000X0*%
%TD*%
%TA.AperFunction,ComponentPad*%
%ADD46R,1.700000X1.700000*%
%TD*%
%TA.AperFunction,ComponentPad*%
%ADD47O,1.700000X1.700000*%
%TD*%
%TA.AperFunction,ComponentPad*%
%ADD48R,2.000000X0.900000*%
%TD*%
%TA.AperFunction,ComponentPad*%
%ADD49RoundRect,1.025000X-1.025000X1.025000X-1.025000X-1.025000X1.025000X-1.025000X1.025000X1.025000X0*%
%TD*%
%TA.AperFunction,SMDPad,CuDef*%
%ADD50RoundRect,0.150000X-0.150000X0.587500X-0.150000X-0.587500X0.150000X-0.587500X0.150000X0.587500X0*%
%TD*%
%TA.AperFunction,SMDPad,CuDef*%
%ADD51RoundRect,0.150000X0.150000X-0.325000X0.150000X0.325000X-0.150000X0.325000X-0.150000X-0.325000X0*%
%TD*%
%TA.AperFunction,SMDPad,CuDef*%
%ADD52RoundRect,0.150000X0.325000X-0.150000X0.325000X0.150000X-0.325000X0.150000X-0.325000X-0.150000X0*%
%TD*%
%TA.AperFunction,SMDPad,CuDef*%
%ADD53R,0.600000X1.550000*%
%TD*%
%TA.AperFunction,ComponentPad*%
%ADD54C,0.600000*%
%TD*%
%TA.AperFunction,SMDPad,CuDef*%
%ADD55R,3.100000X2.600000*%
%TD*%
%TA.AperFunction,SMDPad,CuDef*%
%ADD56R,4.500000X2.950000*%
%TD*%
%TA.AperFunction,SMDPad,CuDef*%
%ADD57RoundRect,0.140000X-0.140000X-0.170000X0.140000X-0.170000X0.140000X0.170000X-0.140000X0.170000X0*%
%TD*%
%TA.AperFunction,ComponentPad*%
%ADD58RoundRect,0.250000X0.725000X-0.600000X0.725000X0.600000X-0.725000X0.600000X-0.725000X-0.600000X0*%
%TD*%
%TA.AperFunction,ComponentPad*%
%ADD59O,1.950000X1.700000*%
%TD*%
%TA.AperFunction,SMDPad,CuDef*%
%ADD60R,0.650000X1.050000*%
%TD*%
%TA.AperFunction,SMDPad,CuDef*%
%ADD61R,0.800000X1.700000*%
%TD*%
%TA.AperFunction,SMDPad,CuDef*%
%ADD62RoundRect,0.250000X-0.300000X-0.300000X0.300000X-0.300000X0.300000X0.300000X-0.300000X0.300000X0*%
%TD*%
%TA.AperFunction,ViaPad*%
%ADD63C,0.450000*%
%TD*%
%TA.AperFunction,Conductor*%
%ADD64C,0.500000*%
%TD*%
%TA.AperFunction,Conductor*%
%ADD65C,0.200000*%
%TD*%
%TA.AperFunction,Conductor*%
%ADD66C,1.500000*%
%TD*%
G04 APERTURE END LIST*
D10*
%TO.P,BZ3,1,+*%
%TO.N,+17V_SW*%
X129000000Y-95800000D03*
D11*
%TO.P,BZ3,2,-*%
%TO.N,unconnected-(Q8-D-Pad3)*%
X129000000Y-88200000D03*
%TD*%
D12*
%TO.P,R25,1*%
%TO.N,/ESP32/PWRBUT*%
X127510000Y-72500000D03*
%TO.P,R25,2*%
%TO.N,GND*%
X126490000Y-72500000D03*
%TD*%
D13*
%TO.P,C6,1*%
%TO.N,+3V3*%
X116000000Y-75550000D03*
%TO.P,C6,2*%
%TO.N,GND*%
X116000000Y-77450000D03*
%TD*%
D14*
%TO.P,U1,1,GND*%
%TO.N,GND*%
X147950000Y-70500000D03*
%TO.P,U1,2,GND*%
X147100000Y-70500000D03*
%TO.P,U1,3,3V3*%
%TO.N,+3V3*%
X146250000Y-70500000D03*
%TO.P,U1,4,IO0/BOOT*%
%TO.N,Net-(U1-IO0{slash}BOOT)*%
X145400000Y-70500000D03*
%TO.P,U1,5,IO1*%
%TO.N,/ESP32/ONBOARD_LED_SIG*%
X144550000Y-70500000D03*
%TO.P,U1,6,IO2*%
%TO.N,unconnected-(U1-IO2-Pad6)*%
X143700000Y-70500000D03*
%TO.P,U1,7,IO3*%
%TO.N,unconnected-(U1-IO3-Pad7)*%
X142850000Y-70500000D03*
%TO.P,U1,8,IO4*%
%TO.N,unconnected-(U1-IO4-Pad8)*%
X142000000Y-70500000D03*
%TO.P,U1,9,IO5*%
%TO.N,unconnected-(U1-IO5-Pad9)*%
X141150000Y-70500000D03*
%TO.P,U1,10,IO6*%
%TO.N,unconnected-(U1-IO6-Pad10)*%
X140300000Y-70500000D03*
%TO.P,U1,11,IO7*%
%TO.N,unconnected-(U1-IO7-Pad11)*%
X139450000Y-70500000D03*
%TO.P,U1,12,IO8*%
%TO.N,unconnected-(U1-IO8-Pad12)*%
X138600000Y-70500000D03*
%TO.P,U1,13,IO9*%
%TO.N,unconnected-(U1-IO9-Pad13)*%
X137750000Y-70500000D03*
%TO.P,U1,14,IO10*%
%TO.N,unconnected-(U1-IO10-Pad14)*%
X136900000Y-70500000D03*
%TO.P,U1,15,IO11*%
%TO.N,unconnected-(U1-IO11-Pad15)*%
X136050000Y-70500000D03*
D15*
%TO.P,U1,16,IO12*%
%TO.N,unconnected-(U1-IO12-Pad16)*%
X135000000Y-71550000D03*
%TO.P,U1,17,IO13*%
%TO.N,/ESP32/PWRBUT*%
X135000000Y-72400000D03*
%TO.P,U1,18,IO14*%
%TO.N,unconnected-(U1-IO14-Pad18)*%
X135000000Y-73250000D03*
%TO.P,U1,19,IO15*%
%TO.N,/ESP32/LED_SIG_FRONT*%
X135000000Y-74100000D03*
%TO.P,U1,20,IO16*%
%TO.N,/ESP32/LED_PWM_FRONT*%
X135000000Y-74950000D03*
%TO.P,U1,21,IO17*%
%TO.N,/ESP32/LED_SIG_REAR*%
X135000000Y-75800000D03*
%TO.P,U1,22,IO18*%
%TO.N,/Drive System/MOT_FAN*%
X135000000Y-76650000D03*
%TO.P,U1,23,IO19/DN*%
%TO.N,/ESP32/DN*%
X135000000Y-77500000D03*
%TO.P,U1,24,IO20/DP*%
%TO.N,/ESP32/DP*%
X135000000Y-78350000D03*
%TO.P,U1,25,IO21*%
%TO.N,/ESP32/LED_PWM_REAR*%
X135000000Y-79200000D03*
%TO.P,U1,26,IO26*%
%TO.N,unconnected-(U1-IO26-Pad26)*%
X135000000Y-80050000D03*
%TO.P,U1,27,IO47*%
%TO.N,unconnected-(U1-IO47-Pad27)*%
X135000000Y-80900000D03*
%TO.P,U1,28,IO33*%
%TO.N,/Drive System/ESC_FAN*%
X135000000Y-81750000D03*
%TO.P,U1,29,IO34*%
%TO.N,/ESP32/BUZZER*%
X135000000Y-82600000D03*
%TO.P,U1,30,IO48*%
%TO.N,/Drive System/THROTTLE_RECEIVER*%
X135000000Y-83450000D03*
D14*
%TO.P,U1,31,IO35*%
%TO.N,/Drive System/STEERING_RECEIVER*%
X136050000Y-84500000D03*
%TO.P,U1,32,IO36*%
%TO.N,/ESP32/ADXL_SDA*%
X136900000Y-84500000D03*
%TO.P,U1,33,IO37*%
%TO.N,/ESP32/ADXL_SCL*%
X137750000Y-84500000D03*
%TO.P,U1,34,IO38*%
%TO.N,unconnected-(U1-IO38-Pad34)*%
X138600000Y-84500000D03*
%TO.P,U1,35,IO39*%
%TO.N,unconnected-(U1-IO39-Pad35)*%
X139450000Y-84500000D03*
%TO.P,U1,36,IO40*%
%TO.N,unconnected-(U1-IO40-Pad36)*%
X140300000Y-84500000D03*
%TO.P,U1,37,IO41*%
%TO.N,unconnected-(U1-IO41-Pad37)*%
X141150000Y-84500000D03*
%TO.P,U1,38,IO42*%
%TO.N,unconnected-(U1-IO42-Pad38)*%
X142000000Y-84500000D03*
%TO.P,U1,39,TXD0*%
%TO.N,unconnected-(U1-TXD0-Pad39)*%
X142850000Y-84500000D03*
%TO.P,U1,40,RXD0*%
%TO.N,unconnected-(U1-RXD0-Pad40)*%
X143700000Y-84500000D03*
%TO.P,U1,41,IO45*%
%TO.N,unconnected-(U1-IO45-Pad41)*%
X144550000Y-84500000D03*
%TO.P,U1,42,GND*%
%TO.N,GND*%
X145400000Y-84500000D03*
%TO.P,U1,43,GND*%
X146250000Y-84500000D03*
%TO.P,U1,44,IO46*%
%TO.N,unconnected-(U1-IO46-Pad44)*%
X147100000Y-84500000D03*
%TO.P,U1,45,EN*%
%TO.N,Net-(U1-EN)*%
X147950000Y-84500000D03*
D15*
%TO.P,U1,46,GND*%
%TO.N,GND*%
X149000000Y-83450000D03*
%TO.P,U1,47,GND*%
X149000000Y-82600000D03*
%TO.P,U1,48,GND*%
X149000000Y-81750000D03*
%TO.P,U1,49,GND*%
X149000000Y-80900000D03*
%TO.P,U1,50,GND*%
X149000000Y-80050000D03*
%TO.P,U1,51,GND*%
X149000000Y-79200000D03*
%TO.P,U1,52,GND*%
X149000000Y-78350000D03*
%TO.P,U1,53,GND*%
X149000000Y-77500000D03*
%TO.P,U1,54,GND*%
X149000000Y-76650000D03*
%TO.P,U1,55,GND*%
X149000000Y-75800000D03*
%TO.P,U1,56,GND*%
X149000000Y-74950000D03*
%TO.P,U1,57,GND*%
X149000000Y-74100000D03*
%TO.P,U1,58,GND*%
X149000000Y-73250000D03*
%TO.P,U1,59,GND*%
X149000000Y-72400000D03*
%TO.P,U1,60,GND*%
X149000000Y-71550000D03*
D16*
%TO.P,U1,61,GND*%
X142000000Y-77500000D03*
D17*
%TO.P,U1,61_1,GND*%
X143650000Y-75850000D03*
D16*
%TO.P,U1,61_2,GND*%
X143650000Y-77500000D03*
%TO.P,U1,61_3,GND*%
X143650000Y-79150000D03*
%TO.P,U1,61_4,GND*%
X142000000Y-79150000D03*
%TO.P,U1,61_5,GND*%
X140350000Y-79150000D03*
%TO.P,U1,61_6,GND*%
X140350000Y-77500000D03*
%TO.P,U1,61_7,GND*%
X140350000Y-75850000D03*
%TO.P,U1,61_8,GND*%
X142000000Y-75850000D03*
D18*
%TO.P,U1,62,GND*%
X149000000Y-70500000D03*
%TO.P,U1,63,GND*%
X135000000Y-70500000D03*
%TO.P,U1,64,GND*%
X135000000Y-84500000D03*
%TO.P,U1,65,GND*%
X149000000Y-84500000D03*
%TD*%
D19*
%TO.P,R2,1*%
%TO.N,GND*%
X148500000Y-95010000D03*
%TO.P,R2,2*%
%TO.N,Net-(U1-IO0{slash}BOOT)*%
X148500000Y-93990000D03*
%TD*%
D20*
%TO.P,J1,*%
%TO.N,*%
X136000000Y-51500000D03*
X147000000Y-51500000D03*
D21*
%TO.P,J1,1,P*%
%TO.N,+17V_SW*%
X144000000Y-56500000D03*
D22*
%TO.P,J1,2,N*%
%TO.N,GND*%
X139000000Y-56500000D03*
%TD*%
D23*
%TO.P,R4,1*%
%TO.N,Net-(U2-VSENSE)*%
X105490000Y-80000000D03*
%TO.P,R4,2*%
%TO.N,GND*%
X106510000Y-80000000D03*
%TD*%
D24*
%TO.P,Q9,1,G*%
%TO.N,/ESP32/PWRBUT*%
X131437500Y-72450000D03*
%TO.P,Q9,2,S*%
%TO.N,GND*%
X131437500Y-70550000D03*
%TO.P,Q9,3,D*%
%TO.N,/PWR & USB/ON*%
X129562500Y-71500000D03*
%TD*%
D25*
%TO.P,TP2,1,1*%
%TO.N,+3V3*%
X116000000Y-73000000D03*
%TD*%
D26*
%TO.P,U2,1,EN*%
%TO.N,unconnected-(U2-EN-Pad1)*%
X107637500Y-78450000D03*
%TO.P,U2,2,GND*%
%TO.N,GND*%
X107637500Y-77500000D03*
%TO.P,U2,3,PH*%
%TO.N,Net-(U2-PH)*%
X107637500Y-76550000D03*
%TO.P,U2,4,VIN*%
%TO.N,Net-(D1-K)*%
X105362500Y-76550000D03*
%TO.P,U2,5,VSENSE*%
%TO.N,Net-(U2-VSENSE)*%
X105362500Y-78450000D03*
%TD*%
D27*
%TO.P,C3,1*%
%TO.N,+3V3*%
X146980000Y-86500000D03*
%TO.P,C3,2*%
%TO.N,GND*%
X146020000Y-86500000D03*
%TD*%
D12*
%TO.P,R19,1*%
%TO.N,GND*%
X120520000Y-108500000D03*
%TO.P,R19,2*%
%TO.N,Net-(U8-FS)*%
X119500000Y-108500000D03*
%TD*%
%TO.P,R17,1*%
%TO.N,GND*%
X110500000Y-108500000D03*
%TO.P,R17,2*%
%TO.N,Net-(U7-FS)*%
X109480000Y-108500000D03*
%TD*%
D28*
%TO.P,C14,1*%
%TO.N,+17V_SW*%
X114000000Y-110205000D03*
%TO.P,C14,2*%
%TO.N,GND*%
X114000000Y-111755000D03*
%TD*%
D29*
%TO.P,C11,1*%
%TO.N,Net-(U7-VCC)*%
X105225000Y-117500000D03*
%TO.P,C11,2*%
%TO.N,GND*%
X106775000Y-117500000D03*
%TD*%
D30*
%TO.P,R26,1*%
%TO.N,+17V*%
X127500000Y-69490000D03*
%TO.P,R26,2*%
%TO.N,/PWR & USB/ON*%
X127500000Y-70510000D03*
%TD*%
D31*
%TO.P,U10,1,GND*%
%TO.N,GND*%
X134420000Y-102519492D03*
%TO.P,U10,2,GND*%
X134420000Y-105059492D03*
%TO.P,U10,3,GND*%
X134420000Y-107599492D03*
%TO.P,U10,4,6V*%
%TO.N,+6V*%
X131880000Y-102519492D03*
%TO.P,U10,5,6V*%
X131880000Y-105059492D03*
%TO.P,U10,6,6V*%
X131880000Y-107599492D03*
%TO.P,U10,7,CH1*%
%TO.N,unconnected-(U10-CH1-Pad7)*%
X129340000Y-102519492D03*
%TO.P,U10,8,CH1*%
%TO.N,/Drive System/STEERING_RECEIVER*%
X129340000Y-105059492D03*
%TO.P,U10,9,CH2*%
%TO.N,/Drive System/THROTTLE_RECEIVER*%
X129340000Y-107599492D03*
%TD*%
D32*
%TO.P,L3,1,1*%
%TO.N,Net-(J12-Pin_2)*%
X112150000Y-102500000D03*
%TO.P,L3,2,2*%
%TO.N,Net-(D4-A)*%
X116850000Y-102500000D03*
%TD*%
D33*
%TO.P,C5,1*%
%TO.N,Net-(D1-K)*%
X103500000Y-76520000D03*
%TO.P,C5,2*%
%TO.N,GND*%
X103500000Y-77480000D03*
%TD*%
D27*
%TO.P,C1,1*%
%TO.N,Net-(U1-EN)*%
X147980000Y-89000000D03*
%TO.P,C1,2*%
%TO.N,GND*%
X147020000Y-89000000D03*
%TD*%
D34*
%TO.P,J4,*%
%TO.N,*%
X102250000Y-52150000D03*
X115750000Y-52150000D03*
D35*
%TO.P,J4,1,-*%
%TO.N,GND*%
X105400000Y-58150000D03*
D36*
%TO.P,J4,2,+*%
%TO.N,+17V*%
X112600000Y-58150000D03*
%TD*%
D37*
%TO.P,D2,1,K*%
%TO.N,Net-(D1-K)*%
X105000000Y-73400000D03*
%TO.P,D2,2,A*%
%TO.N,+5V*%
X105000000Y-70600000D03*
%TD*%
D38*
%TO.P,Q10,1,S*%
%TO.N,+17V*%
X131595000Y-67360000D03*
%TO.P,Q10,2,S*%
X132865000Y-67360000D03*
%TO.P,Q10,3,S*%
X134135000Y-67360000D03*
%TO.P,Q10,4,G*%
%TO.N,/PWR & USB/ON*%
X135405000Y-67360000D03*
D39*
%TO.P,Q10,5,D*%
%TO.N,+17V_SW*%
X133500000Y-64000000D03*
D40*
X131595000Y-61895000D03*
X132865000Y-61895000D03*
X134135000Y-61895000D03*
X135405000Y-61895000D03*
%TD*%
D41*
%TO.P,J13,A1,GND_A*%
%TO.N,GND*%
X145015000Y-105250000D03*
%TO.P,J13,A4,VBUS_A*%
%TO.N,+5V*%
X145015000Y-103750000D03*
%TO.P,J13,A5,CC1*%
%TO.N,Net-(J13-CC1)*%
X145015000Y-103250000D03*
%TO.P,J13,A6,DP1*%
%TO.N,/ESP32/DP*%
X145015000Y-102750000D03*
%TO.P,J13,A7,DN1*%
%TO.N,/ESP32/DN*%
X145015000Y-102250000D03*
%TO.P,J13,A8,SBU1*%
%TO.N,unconnected-(J13-SBU1-PadA8)*%
X145015000Y-101750000D03*
%TO.P,J13,A9,VBUS_A*%
%TO.N,+5V*%
X145015000Y-101250000D03*
%TO.P,J13,A12,GND_A*%
%TO.N,GND*%
X145015000Y-99750000D03*
%TO.P,J13,B1,GND_B*%
X147985000Y-99750000D03*
%TO.P,J13,B4,VBUS_B*%
%TO.N,+5V*%
X147985000Y-101250000D03*
%TO.P,J13,B5,CC2*%
%TO.N,Net-(J13-CC2)*%
X147985000Y-101750000D03*
%TO.P,J13,B6,DP2*%
%TO.N,/ESP32/DP*%
X147985000Y-102250000D03*
%TO.P,J13,B7,DN2*%
%TO.N,/ESP32/DN*%
X147985000Y-102750000D03*
%TO.P,J13,B8,SBU2*%
%TO.N,unconnected-(J13-SBU2-PadB8)*%
X147985000Y-103250000D03*
%TO.P,J13,B9,VBUS_B*%
%TO.N,+5V*%
X147985000Y-103750000D03*
%TO.P,J13,B12,GND_B*%
%TO.N,GND*%
X147985000Y-105250000D03*
D42*
%TO.P,J13,S1,SHIELD*%
X145070000Y-106500000D03*
%TO.P,J13,S2,SHIELD*%
X145070000Y-98500000D03*
%TO.P,J13,S3,SHIELD*%
X147930000Y-106500000D03*
%TO.P,J13,S4,SHIELD*%
X147930000Y-98500000D03*
%TD*%
D19*
%TO.P,R8,1*%
%TO.N,+3V3*%
X122500000Y-122010000D03*
%TO.P,R8,2*%
%TO.N,Net-(U4-~{CS})*%
X122500000Y-120990000D03*
%TD*%
D34*
%TO.P,J8,*%
%TO.N,*%
X119250000Y-52000000D03*
X132750000Y-52000000D03*
D35*
%TO.P,J8,1,-*%
%TO.N,GND*%
X129600000Y-58000000D03*
D36*
%TO.P,J8,2,+*%
%TO.N,+17V_SW*%
X122400000Y-58000000D03*
%TD*%
D43*
%TO.P,U3,1,VDD*%
%TO.N,+3V3*%
X153650000Y-50050000D03*
%TO.P,U3,2,DOUT*%
%TO.N,unconnected-(U3-DOUT-Pad2)*%
X150350000Y-50050000D03*
%TO.P,U3,3,GND*%
%TO.N,GND*%
X150350000Y-54950000D03*
%TO.P,U3,4,DIN*%
%TO.N,/ESP32/ONBOARD_LED_SIG*%
X153650000Y-54950000D03*
%TD*%
D29*
%TO.P,C13,1*%
%TO.N,Net-(U8-VCC)*%
X115205000Y-117500000D03*
%TO.P,C13,2*%
%TO.N,GND*%
X116755000Y-117500000D03*
%TD*%
D44*
%TO.P,D5,1*%
%TO.N,GND*%
X143000000Y-94250000D03*
D45*
%TO.P,D5,2*%
%TO.N,/ESP32/DP*%
X143000000Y-95950000D03*
%TO.P,D5,3*%
%TO.N,/ESP32/DN*%
X145000000Y-95950000D03*
%TO.P,D5,4*%
%TO.N,+5V*%
X145000000Y-94050000D03*
%TD*%
D46*
%TO.P,J5,1,Pin_1*%
%TO.N,/PWR & USB/ON*%
X148000000Y-65300000D03*
D47*
%TO.P,J5,2,Pin_2*%
%TO.N,GND*%
X148000000Y-62760000D03*
%TO.P,J5,3,Pin_3*%
%TO.N,/ESP32/PWRBUT*%
X148000000Y-60220000D03*
%TO.P,J5,4,Pin_4*%
%TO.N,GND*%
X148000000Y-57680000D03*
%TD*%
D48*
%TO.P,J6,*%
%TO.N,*%
X147350000Y-109750000D03*
X147350000Y-123250000D03*
D49*
%TO.P,J6,1,-*%
%TO.N,GND*%
X141350000Y-120100000D03*
D36*
%TO.P,J6,2,+*%
%TO.N,+17V*%
X141350000Y-112900000D03*
%TD*%
D13*
%TO.P,C7,1*%
%TO.N,+3V3*%
X113500000Y-75550000D03*
%TO.P,C7,2*%
%TO.N,GND*%
X113500000Y-77450000D03*
%TD*%
D46*
%TO.P,M2,1,+*%
%TO.N,+17V_SW*%
X120000000Y-95837500D03*
D47*
%TO.P,M2,2,-*%
%TO.N,Net-(M2--)*%
X120000000Y-93297500D03*
%TD*%
D50*
%TO.P,Q8,1,G*%
%TO.N,/ESP32/BUZZER*%
X124450000Y-84062500D03*
%TO.P,Q8,2,S*%
%TO.N,GND*%
X122550000Y-84062500D03*
%TO.P,Q8,3,D*%
%TO.N,unconnected-(Q8-D-Pad3)*%
X123500000Y-85937500D03*
%TD*%
D37*
%TO.P,D1,1,K*%
%TO.N,Net-(D1-K)*%
X102000000Y-73400000D03*
%TO.P,D1,2,A*%
%TO.N,+17V_SW*%
X102000000Y-70600000D03*
%TD*%
D46*
%TO.P,J7,1,Pin_1*%
%TO.N,/Drive System/THROTTLE_RECEIVER*%
X138500000Y-67540000D03*
D47*
%TO.P,J7,2,Pin_2*%
%TO.N,+6V*%
X138500000Y-65000000D03*
%TO.P,J7,3,Pin_3*%
%TO.N,GND*%
X138500000Y-62460000D03*
%TD*%
D30*
%TO.P,R11,1*%
%TO.N,Net-(J13-CC1)*%
X140500000Y-106490000D03*
%TO.P,R11,2*%
%TO.N,GND*%
X140500000Y-107510000D03*
%TD*%
D27*
%TO.P,C8,1*%
%TO.N,+3V3*%
X120980000Y-123500000D03*
%TO.P,C8,2*%
%TO.N,GND*%
X120020000Y-123500000D03*
%TD*%
D51*
%TO.P,U4,1,Vdd_I/O*%
%TO.N,+3V3*%
X117000000Y-122000000D03*
%TO.P,U4,2,GND*%
%TO.N,GND*%
X117800000Y-122000000D03*
%TO.P,U4,3,RES*%
%TO.N,unconnected-(U4-RES-Pad3)*%
X118600000Y-122000000D03*
%TO.P,U4,4,GND*%
%TO.N,GND*%
X119400000Y-122000000D03*
%TO.P,U4,5,GND*%
X120200000Y-122000000D03*
%TO.P,U4,6,Vs*%
%TO.N,+3V3*%
X121000000Y-122000000D03*
D52*
%TO.P,U4,7,~{CS}*%
%TO.N,Net-(U4-~{CS})*%
X121000000Y-121000000D03*
D51*
%TO.P,U4,8,INT1*%
%TO.N,unconnected-(U4-INT1-Pad8)*%
X121000000Y-120000000D03*
%TO.P,U4,9,INT2*%
%TO.N,unconnected-(U4-INT2-Pad9)*%
X120200000Y-120000000D03*
%TO.P,U4,10,NC*%
%TO.N,unconnected-(U4-NC-Pad10)*%
X119400000Y-120000000D03*
%TO.P,U4,11,RES*%
%TO.N,unconnected-(U4-RES-Pad11)*%
X118600000Y-120000000D03*
%TO.P,U4,12,SDO/ADDR*%
%TO.N,GND*%
X117800000Y-120000000D03*
%TO.P,U4,13,SDA/SDI/SDIO*%
%TO.N,/ESP32/ADXL_SDA*%
X117000000Y-120000000D03*
D52*
%TO.P,U4,14,SCL/SCLK*%
%TO.N,/ESP32/ADXL_SCL*%
X117000000Y-121000000D03*
%TD*%
D13*
%TO.P,C4,1*%
%TO.N,Net-(D1-K)*%
X101500000Y-75550000D03*
%TO.P,C4,2*%
%TO.N,GND*%
X101500000Y-77450000D03*
%TD*%
D46*
%TO.P,J2,1,Pin_1*%
%TO.N,/Drive System/STEERING_RECEIVER*%
X142500000Y-67540000D03*
D47*
%TO.P,J2,2,Pin_2*%
%TO.N,unconnected-(J2-Pin_2-Pad2)*%
X142500000Y-65000000D03*
%TO.P,J2,3,Pin_3*%
%TO.N,GND*%
X142500000Y-62460000D03*
%TD*%
D53*
%TO.P,U8,1,VCC*%
%TO.N,Net-(U8-VCC)*%
X115595000Y-115700000D03*
%TO.P,U8,2,PGND*%
%TO.N,GND*%
X116865000Y-115700000D03*
%TO.P,U8,3,IADJ*%
%TO.N,Net-(U8-IADJ)*%
X118135000Y-115700000D03*
%TO.P,U8,4,GND*%
%TO.N,GND*%
X119405000Y-115700000D03*
%TO.P,U8,5,FS*%
%TO.N,Net-(U8-FS)*%
X119405000Y-110300000D03*
%TO.P,U8,6,DIM*%
%TO.N,/ESP32/LED_PWM_REAR*%
X118135000Y-110300000D03*
%TO.P,U8,7,LX*%
%TO.N,Net-(D4-A)*%
X116865000Y-110300000D03*
%TO.P,U8,8,VIN*%
%TO.N,+17V_SW*%
X115595000Y-110300000D03*
D54*
%TO.P,U8,9,GND*%
%TO.N,GND*%
X115700000Y-113600000D03*
X116900000Y-113600000D03*
X118200000Y-113600000D03*
X119300000Y-113600000D03*
D55*
X117500000Y-113000000D03*
D56*
X117500000Y-113000000D03*
D54*
X115700000Y-112400000D03*
X116900000Y-112400000D03*
X118200000Y-112400000D03*
X119300000Y-112400000D03*
%TD*%
D30*
%TO.P,R12,1*%
%TO.N,Net-(J13-CC2)*%
X142500000Y-106490000D03*
%TO.P,R12,2*%
%TO.N,GND*%
X142500000Y-107510000D03*
%TD*%
D57*
%TO.P,C10,1*%
%TO.N,+3V3*%
X117020000Y-123500000D03*
%TO.P,C10,2*%
%TO.N,GND*%
X117980000Y-123500000D03*
%TD*%
D58*
%TO.P,J3,1,Pin_1*%
%TO.N,+17V_SW*%
X102975000Y-94500000D03*
D59*
%TO.P,J3,2,Pin_2*%
%TO.N,Net-(J3-Pin_2)*%
X102975000Y-92000000D03*
%TO.P,J3,3,Pin_3*%
%TO.N,/ESP32/LED_SIG_FRONT*%
X102975000Y-89500000D03*
%TO.P,J3,4,Pin_4*%
%TO.N,GND*%
X102975000Y-87000000D03*
%TD*%
D12*
%TO.P,R18,1*%
%TO.N,GND*%
X119500000Y-117500000D03*
%TO.P,R18,2*%
%TO.N,Net-(U8-IADJ)*%
X118480000Y-117500000D03*
%TD*%
D23*
%TO.P,R5,1*%
%TO.N,+3V3*%
X146990000Y-87500000D03*
%TO.P,R5,2*%
%TO.N,Net-(U1-EN)*%
X148010000Y-87500000D03*
%TD*%
D19*
%TO.P,R9,1*%
%TO.N,+3V3*%
X115500000Y-122010000D03*
%TO.P,R9,2*%
%TO.N,/ESP32/ADXL_SCL*%
X115500000Y-120990000D03*
%TD*%
%TO.P,R1,1*%
%TO.N,GND*%
X148500000Y-91010000D03*
%TO.P,R1,2*%
%TO.N,Net-(U1-EN)*%
X148500000Y-89990000D03*
%TD*%
D33*
%TO.P,C15,1*%
%TO.N,+17V*%
X126000000Y-69520000D03*
%TO.P,C15,2*%
%TO.N,/PWR & USB/ON*%
X126000000Y-70480000D03*
%TD*%
D60*
%TO.P,SW1,1,1*%
%TO.N,GND*%
X151925000Y-61075000D03*
X151925000Y-56925000D03*
%TO.P,SW1,2,2*%
%TO.N,/ESP32/PWRBUT*%
X154075000Y-61075000D03*
X154075000Y-56950000D03*
%TD*%
D53*
%TO.P,U7,1,VCC*%
%TO.N,Net-(U7-VCC)*%
X105595000Y-115700000D03*
%TO.P,U7,2,PGND*%
%TO.N,GND*%
X106865000Y-115700000D03*
%TO.P,U7,3,IADJ*%
%TO.N,Net-(U7-IADJ)*%
X108135000Y-115700000D03*
%TO.P,U7,4,GND*%
%TO.N,GND*%
X109405000Y-115700000D03*
%TO.P,U7,5,FS*%
%TO.N,Net-(U7-FS)*%
X109405000Y-110300000D03*
%TO.P,U7,6,DIM*%
%TO.N,/ESP32/LED_PWM_FRONT*%
X108135000Y-110300000D03*
%TO.P,U7,7,LX*%
%TO.N,Net-(D3-A)*%
X106865000Y-110300000D03*
%TO.P,U7,8,VIN*%
%TO.N,+17V_SW*%
X105595000Y-110300000D03*
D54*
%TO.P,U7,9,GND*%
%TO.N,GND*%
X105700000Y-113600000D03*
X106900000Y-113600000D03*
X108200000Y-113600000D03*
X109300000Y-113600000D03*
D55*
X107500000Y-113000000D03*
D56*
X107500000Y-113000000D03*
D54*
X105700000Y-112400000D03*
X106900000Y-112400000D03*
X108200000Y-112400000D03*
X109300000Y-112400000D03*
%TD*%
D61*
%TO.P,L1,1,1*%
%TO.N,Net-(U2-PH)*%
X109700000Y-75500000D03*
%TO.P,L1,2,2*%
%TO.N,+3V3*%
X111300000Y-75500000D03*
%TD*%
D28*
%TO.P,C12,1*%
%TO.N,+17V_SW*%
X104000000Y-110225000D03*
%TO.P,C12,2*%
%TO.N,GND*%
X104000000Y-111775000D03*
%TD*%
D25*
%TO.P,TP1,1,1*%
%TO.N,+17V_SW*%
X101500000Y-68000000D03*
%TD*%
D29*
%TO.P,C2,1*%
%TO.N,+3V3*%
X146225000Y-68500000D03*
%TO.P,C2,2*%
%TO.N,GND*%
X147775000Y-68500000D03*
%TD*%
D12*
%TO.P,R20,1*%
%TO.N,/ESP32/BUZZER*%
X124010000Y-82500000D03*
%TO.P,R20,2*%
%TO.N,GND*%
X122990000Y-82500000D03*
%TD*%
D58*
%TO.P,J12,1,Pin_1*%
%TO.N,+17V_SW*%
X109975000Y-94500000D03*
D59*
%TO.P,J12,2,Pin_2*%
%TO.N,Net-(J12-Pin_2)*%
X109975000Y-92000000D03*
%TO.P,J12,3,Pin_3*%
%TO.N,/ESP32/LED_SIG_REAR*%
X109975000Y-89500000D03*
%TO.P,J12,4,Pin_4*%
%TO.N,GND*%
X109975000Y-87000000D03*
%TD*%
D25*
%TO.P,TP4,1,1*%
%TO.N,GND*%
X116000000Y-79500000D03*
%TD*%
%TO.P,TP3,1,1*%
%TO.N,+5V*%
X111500000Y-73000000D03*
%TD*%
D50*
%TO.P,Q1,1,G*%
%TO.N,/Drive System/ESC_FAN*%
X120950000Y-87625000D03*
%TO.P,Q1,2,S*%
%TO.N,GND*%
X119050000Y-87625000D03*
%TO.P,Q1,3,D*%
%TO.N,Net-(M2--)*%
X120000000Y-89500000D03*
%TD*%
D60*
%TO.P,SW3,1,1*%
%TO.N,/PWR & USB/ON*%
X151925000Y-68075000D03*
X151925000Y-63925000D03*
%TO.P,SW3,2,2*%
%TO.N,GND*%
X154075000Y-68075000D03*
X154075000Y-63950000D03*
%TD*%
D12*
%TO.P,R16,1*%
%TO.N,GND*%
X109510000Y-117500000D03*
%TO.P,R16,2*%
%TO.N,Net-(U7-IADJ)*%
X108490000Y-117500000D03*
%TD*%
D46*
%TO.P,M3,1,+*%
%TO.N,+6V*%
X116000000Y-95837500D03*
D47*
%TO.P,M3,2,-*%
%TO.N,Net-(M3--)*%
X116000000Y-93297500D03*
%TD*%
D23*
%TO.P,R6,1*%
%TO.N,/ESP32/LED_PWM_FRONT*%
X109490000Y-107000000D03*
%TO.P,R6,2*%
%TO.N,GND*%
X110510000Y-107000000D03*
%TD*%
D50*
%TO.P,Q2,1,G*%
%TO.N,/Drive System/MOT_FAN*%
X116950000Y-87625000D03*
%TO.P,Q2,2,S*%
%TO.N,GND*%
X115050000Y-87625000D03*
%TO.P,Q2,3,D*%
%TO.N,Net-(M3--)*%
X116000000Y-89500000D03*
%TD*%
D19*
%TO.P,R3,1*%
%TO.N,+3V3*%
X104000000Y-81010000D03*
%TO.P,R3,2*%
%TO.N,Net-(U2-VSENSE)*%
X104000000Y-79990000D03*
%TD*%
D23*
%TO.P,R7,1*%
%TO.N,/ESP32/LED_PWM_REAR*%
X119490000Y-107000000D03*
%TO.P,R7,2*%
%TO.N,GND*%
X120510000Y-107000000D03*
%TD*%
D19*
%TO.P,R10,1*%
%TO.N,+3V3*%
X114000000Y-122010000D03*
%TO.P,R10,2*%
%TO.N,/ESP32/ADXL_SDA*%
X114000000Y-120990000D03*
%TD*%
D38*
%TO.P,Q4,1,S*%
%TO.N,+17V*%
X125595000Y-67360000D03*
%TO.P,Q4,2,S*%
X126865000Y-67360000D03*
%TO.P,Q4,3,S*%
X128135000Y-67360000D03*
%TO.P,Q4,4,G*%
%TO.N,/PWR & USB/ON*%
X129405000Y-67360000D03*
D39*
%TO.P,Q4,5,D*%
%TO.N,+17V_SW*%
X127500000Y-64000000D03*
D40*
X125595000Y-61895000D03*
X126865000Y-61895000D03*
X128135000Y-61895000D03*
X129405000Y-61895000D03*
%TD*%
D62*
%TO.P,D4,1,K*%
%TO.N,+17V_SW*%
X114100000Y-107500000D03*
%TO.P,D4,2,A*%
%TO.N,Net-(D4-A)*%
X116900000Y-107500000D03*
%TD*%
%TO.P,D3,1,K*%
%TO.N,+17V_SW*%
X104100000Y-107500000D03*
%TO.P,D3,2,A*%
%TO.N,Net-(D3-A)*%
X106900000Y-107500000D03*
%TD*%
D38*
%TO.P,Q3,1,S*%
%TO.N,+17V*%
X119595000Y-67360000D03*
%TO.P,Q3,2,S*%
X120865000Y-67360000D03*
%TO.P,Q3,3,S*%
X122135000Y-67360000D03*
%TO.P,Q3,4,G*%
%TO.N,/PWR & USB/ON*%
X123405000Y-67360000D03*
D39*
%TO.P,Q3,5,D*%
%TO.N,+17V_SW*%
X121500000Y-64000000D03*
D40*
X119595000Y-61895000D03*
X120865000Y-61895000D03*
X122135000Y-61895000D03*
X123405000Y-61895000D03*
%TD*%
D32*
%TO.P,L2,1,1*%
%TO.N,Net-(J3-Pin_2)*%
X102150000Y-102500000D03*
%TO.P,L2,2,2*%
%TO.N,Net-(D3-A)*%
X106850000Y-102500000D03*
%TD*%
D63*
%TO.N,/PWR & USB/ON*%
X135500000Y-68500000D03*
X130000000Y-70500000D03*
X130500000Y-67500000D03*
X124500000Y-67500000D03*
%TO.N,/Drive System/STEERING_RECEIVER*%
X138500000Y-81000000D03*
%TO.N,GND*%
X106500000Y-78500000D03*
X141000000Y-76000000D03*
X105000000Y-77500000D03*
X118750000Y-123000000D03*
X147750000Y-69500000D03*
X133750000Y-70500000D03*
X141000000Y-79000000D03*
X154000000Y-66000000D03*
X148500000Y-96000000D03*
X135000000Y-86250000D03*
X141000000Y-77500000D03*
X119000000Y-86250000D03*
X115000000Y-86250000D03*
X150500000Y-53000000D03*
X141500000Y-94000000D03*
X152000000Y-59000000D03*
X114000000Y-79500000D03*
X125500000Y-72500000D03*
X119250000Y-123500000D03*
X148500000Y-92000000D03*
X121500000Y-84000000D03*
X145525000Y-87490000D03*
X106000000Y-77500000D03*
%TO.N,+3V3*%
X150500000Y-57000000D03*
X122500000Y-124000000D03*
X147000000Y-86500000D03*
X147000000Y-67500000D03*
X133500000Y-73500000D03*
X146925000Y-82500000D03*
%TO.N,+5V*%
X146500000Y-101250000D03*
X106500000Y-70500000D03*
X146500000Y-103750000D03*
X136250000Y-103000000D03*
X145000000Y-95000000D03*
X107500000Y-83000000D03*
%TO.N,+17V*%
X115000000Y-63000000D03*
X112000000Y-67500000D03*
X110500000Y-69000000D03*
X112000000Y-66000000D03*
X115000000Y-69000000D03*
X112000000Y-64500000D03*
X118000000Y-67500000D03*
X113500000Y-67500000D03*
X116500000Y-69000000D03*
X116500000Y-64500000D03*
X110500000Y-67500000D03*
X115000000Y-67500000D03*
X113500000Y-66000000D03*
X121000000Y-69000000D03*
X129500000Y-69000000D03*
X133000000Y-69000000D03*
X115000000Y-64500000D03*
X118000000Y-63000000D03*
X110500000Y-63000000D03*
X116500000Y-67500000D03*
X128500000Y-69000000D03*
X115000000Y-66000000D03*
X127000000Y-69000000D03*
X118000000Y-66000000D03*
X125500000Y-69000000D03*
X113500000Y-69000000D03*
X119500000Y-69000000D03*
X113500000Y-63000000D03*
X124000000Y-69000000D03*
X116500000Y-63000000D03*
X131500000Y-69000000D03*
X110500000Y-66000000D03*
X112000000Y-69000000D03*
X118000000Y-69000000D03*
X118000000Y-64500000D03*
X122500000Y-69000000D03*
X116500000Y-66000000D03*
X112000000Y-63000000D03*
X113500000Y-64500000D03*
%TO.N,/Drive System/THROTTLE_RECEIVER*%
X137969668Y-80030332D03*
%TO.N,/ESP32/DN*%
X144350000Y-86000000D03*
X146000000Y-102225000D03*
X144349996Y-83496852D03*
X146997102Y-102775000D03*
%TO.N,/ESP32/DP*%
X143650000Y-86000000D03*
X143700001Y-83500000D03*
%TO.N,/ESP32/PWRBUT*%
X144500000Y-71500000D03*
%TO.N,+17V_SW*%
X135000000Y-64500000D03*
X126000000Y-64500000D03*
X135000000Y-62500000D03*
X126000000Y-63500000D03*
X127500000Y-65500000D03*
X105000000Y-109000000D03*
X104000000Y-69000000D03*
X126000000Y-65500000D03*
X113500000Y-109000000D03*
X105500000Y-69000000D03*
X127500000Y-63500000D03*
X129000000Y-63500000D03*
X133500000Y-64500000D03*
X133500000Y-63500000D03*
X121500000Y-62500000D03*
X135000000Y-65500000D03*
X127500000Y-62500000D03*
X132000000Y-62500000D03*
X127500000Y-64500000D03*
X104000000Y-68000000D03*
X132000000Y-64500000D03*
X105500000Y-108000000D03*
X123000000Y-64500000D03*
X135000000Y-63500000D03*
X102500000Y-68000000D03*
X115000000Y-109000000D03*
X115500000Y-108000000D03*
X133500000Y-65500000D03*
X129000000Y-65500000D03*
X121500000Y-64500000D03*
X103500000Y-109000000D03*
X123000000Y-62500000D03*
X129000000Y-64500000D03*
X105500000Y-68000000D03*
X132000000Y-65500000D03*
X132000000Y-63500000D03*
X123000000Y-65500000D03*
X102500000Y-67000000D03*
X120000000Y-64500000D03*
X121500000Y-65500000D03*
X120000000Y-62500000D03*
X102500000Y-69000000D03*
X126000000Y-62500000D03*
X104000000Y-67000000D03*
X123000000Y-63500000D03*
X120000000Y-63500000D03*
X121500000Y-63500000D03*
X133500000Y-62500000D03*
X120000000Y-65500000D03*
X129000000Y-62500000D03*
%TO.N,/ESP32/ADXL_SCL*%
X123500000Y-121000000D03*
X116250000Y-120990000D03*
%TO.N,/ESP32/ONBOARD_LED_SIG*%
X153000000Y-62500000D03*
X153000000Y-61000000D03*
%TO.N,Net-(U1-IO0{slash}BOOT)*%
X144999991Y-83500126D03*
X144975000Y-86500000D03*
%TD*%
D64*
%TO.N,unconnected-(Q8-D-Pad3)*%
X125762500Y-88200000D02*
X129000000Y-88200000D01*
X123500000Y-85937500D02*
X125762500Y-88200000D01*
D65*
%TO.N,/PWR & USB/ON*%
X151925000Y-63925000D02*
X149375000Y-63925000D01*
D64*
X128170000Y-70480000D02*
X126000000Y-70480000D01*
X129562500Y-71500000D02*
X129562500Y-70937500D01*
X130360000Y-67360000D02*
X129405000Y-67360000D01*
D65*
X151925000Y-63925000D02*
X151925000Y-68075000D01*
D64*
X128562500Y-70500000D02*
X129562500Y-71500000D01*
X124360000Y-67360000D02*
X124500000Y-67500000D01*
D65*
X135405000Y-67360000D02*
X136520000Y-66245000D01*
D64*
X130500000Y-67500000D02*
X130360000Y-67360000D01*
D65*
X136520000Y-66245000D02*
X147055000Y-66245000D01*
X149375000Y-63925000D02*
X148000000Y-65300000D01*
X147055000Y-66245000D02*
X148000000Y-65300000D01*
D64*
X135405000Y-68405000D02*
X135500000Y-68500000D01*
X128190000Y-70500000D02*
X128562500Y-70500000D01*
X123405000Y-67360000D02*
X124360000Y-67360000D01*
X129562500Y-70937500D02*
X130000000Y-70500000D01*
X128190000Y-70500000D02*
X128170000Y-70480000D01*
X135405000Y-67360000D02*
X135405000Y-68405000D01*
D65*
%TO.N,/Drive System/STEERING_RECEIVER*%
X128190000Y-103909492D02*
X128190000Y-99810000D01*
X136050000Y-84500000D02*
X136050000Y-84150000D01*
X129340000Y-105059492D02*
X128190000Y-103909492D01*
X136050000Y-91950000D02*
X136050000Y-84500000D01*
X128190000Y-99810000D02*
X136050000Y-91950000D01*
X138500000Y-81700000D02*
X138500000Y-81000000D01*
X136050000Y-84150000D02*
X136400000Y-83800000D01*
X136400000Y-83800000D02*
X138500000Y-81700000D01*
D64*
%TO.N,GND*%
X147775000Y-69525000D02*
X147775000Y-70325000D01*
D65*
X151925000Y-59075000D02*
X151925000Y-61075000D01*
D64*
X143000000Y-94250000D02*
X141750000Y-94250000D01*
D65*
X154075000Y-66075000D02*
X154000000Y-66000000D01*
X150350000Y-54950000D02*
X150350000Y-53150000D01*
D64*
X131810000Y-70550000D02*
X133700000Y-70550000D01*
X116000000Y-79500000D02*
X114000000Y-79500000D01*
X133700000Y-70550000D02*
X133750000Y-70500000D01*
D66*
X140350000Y-75850000D02*
X140350000Y-79150000D01*
D65*
X151925000Y-56925000D02*
X151925000Y-58925000D01*
X148500000Y-95010000D02*
X148500000Y-96000000D01*
X147930000Y-98500000D02*
X147930000Y-99695000D01*
X135000000Y-84500000D02*
X135000000Y-86250000D01*
X126490000Y-72500000D02*
X125500000Y-72500000D01*
D66*
X141150000Y-75850000D02*
X143650000Y-75850000D01*
D65*
X147930000Y-99695000D02*
X147985000Y-99750000D01*
X119050000Y-87625000D02*
X119050000Y-86300000D01*
X146020000Y-86500000D02*
X146020000Y-86995000D01*
D66*
X140350000Y-79150000D02*
X140850000Y-79150000D01*
D65*
X119050000Y-86300000D02*
X119000000Y-86250000D01*
D64*
X141750000Y-94250000D02*
X141500000Y-94000000D01*
D65*
X145400000Y-84500000D02*
X146250000Y-84500000D01*
X115050000Y-86300000D02*
X115000000Y-86250000D01*
D64*
X149000000Y-70500000D02*
X149000000Y-84500000D01*
D65*
X145500000Y-87480000D02*
X147020000Y-89000000D01*
D64*
X122550000Y-84062500D02*
X121562500Y-84062500D01*
D65*
X154075000Y-68075000D02*
X154075000Y-66075000D01*
X115050000Y-87625000D02*
X115050000Y-86300000D01*
D64*
X140500000Y-107510000D02*
X142500000Y-107510000D01*
X147750000Y-69500000D02*
X147775000Y-69525000D01*
D65*
X145400000Y-85900000D02*
X145500000Y-86000000D01*
X133750000Y-70500000D02*
X135000000Y-70500000D01*
D64*
X122990000Y-83622500D02*
X122990000Y-82500000D01*
X147100000Y-70500000D02*
X149000000Y-70500000D01*
D65*
X150350000Y-53150000D02*
X150500000Y-53000000D01*
X145015000Y-105250000D02*
X147985000Y-105250000D01*
X117800000Y-122000000D02*
X117800000Y-120000000D01*
D66*
X141000000Y-79000000D02*
X141150000Y-79150000D01*
D65*
X145400000Y-84500000D02*
X145400000Y-85900000D01*
D66*
X141000000Y-77500000D02*
X143650000Y-77500000D01*
X140850000Y-75850000D02*
X141000000Y-76000000D01*
D65*
X147930000Y-105305000D02*
X147985000Y-105250000D01*
X154000000Y-66000000D02*
X154075000Y-65925000D01*
D64*
X121562500Y-84062500D02*
X121500000Y-84000000D01*
X144060000Y-107510000D02*
X145070000Y-106500000D01*
D66*
X140850000Y-79150000D02*
X141000000Y-79000000D01*
D65*
X152000000Y-59000000D02*
X151925000Y-59075000D01*
D64*
X122550000Y-84062500D02*
X122990000Y-83622500D01*
D65*
X146020000Y-86995000D02*
X145525000Y-87490000D01*
X145015000Y-99750000D02*
X147985000Y-99750000D01*
D64*
X147775000Y-70325000D02*
X147950000Y-70500000D01*
D66*
X141150000Y-79150000D02*
X143650000Y-79150000D01*
D65*
X145500000Y-86000000D02*
X145500000Y-87480000D01*
X148500000Y-91010000D02*
X148500000Y-92000000D01*
D66*
X140350000Y-77500000D02*
X141000000Y-77500000D01*
D64*
X142500000Y-107510000D02*
X144060000Y-107510000D01*
D66*
X140350000Y-75850000D02*
X140850000Y-75850000D01*
D64*
X147230000Y-70370000D02*
X147100000Y-70500000D01*
X147775000Y-69475000D02*
X147750000Y-69500000D01*
D66*
X143650000Y-75850000D02*
X143650000Y-79150000D01*
D65*
X154075000Y-65925000D02*
X154075000Y-63950000D01*
D66*
X141000000Y-76000000D02*
X141150000Y-75850000D01*
D65*
X147930000Y-106500000D02*
X147930000Y-105305000D01*
D66*
X142000000Y-75850000D02*
X142000000Y-79150000D01*
D65*
X151925000Y-58925000D02*
X152000000Y-59000000D01*
D64*
X147775000Y-68500000D02*
X147775000Y-69475000D01*
D65*
%TO.N,Net-(U1-EN)*%
X148010000Y-89500000D02*
X148010000Y-87000000D01*
X148500000Y-89990000D02*
X148010000Y-89500000D01*
X148010000Y-87000000D02*
X147950000Y-86940000D01*
X147950000Y-86940000D02*
X147950000Y-84500000D01*
D64*
%TO.N,+3V3*%
X146250000Y-68525000D02*
X146225000Y-68500000D01*
D65*
X104000000Y-81010000D02*
X116990000Y-81010000D01*
D64*
X152450000Y-50050000D02*
X153650000Y-50050000D01*
D65*
X116990000Y-81010000D02*
X118000000Y-80000000D01*
D64*
X146250000Y-70500000D02*
X146250000Y-71750000D01*
X152000000Y-55200000D02*
X152000000Y-50500000D01*
X146270000Y-70480000D02*
X146250000Y-70500000D01*
X146925000Y-72425000D02*
X146925000Y-82500000D01*
X147000000Y-87490000D02*
X146990000Y-87500000D01*
X152000000Y-50500000D02*
X152450000Y-50050000D01*
X146250000Y-70500000D02*
X146250000Y-68525000D01*
X146250000Y-71750000D02*
X146925000Y-72425000D01*
D65*
X117050000Y-75550000D02*
X116000000Y-75550000D01*
D64*
X146225000Y-68275000D02*
X147000000Y-67500000D01*
X116000000Y-73000000D02*
X116000000Y-75550000D01*
D65*
X118000000Y-80000000D02*
X118000000Y-76500000D01*
D64*
X150500000Y-57000000D02*
X150500000Y-56700000D01*
X146225000Y-68500000D02*
X146225000Y-68275000D01*
D65*
X118000000Y-76500000D02*
X117050000Y-75550000D01*
D64*
X118000000Y-75000000D02*
X119500000Y-73500000D01*
X119500000Y-73500000D02*
X133500000Y-73500000D01*
X150500000Y-56700000D02*
X152000000Y-55200000D01*
X147000000Y-86500000D02*
X147000000Y-87490000D01*
D65*
%TO.N,+5V*%
X145015000Y-101250000D02*
X146500000Y-101250000D01*
D64*
X117329737Y-118361091D02*
X116940828Y-118750000D01*
X104000000Y-105250000D02*
X104000000Y-100297056D01*
X107500000Y-96797056D02*
X107500000Y-83000000D01*
X104000000Y-100297056D02*
X107500000Y-96797056D01*
X104000000Y-118750000D02*
X102250000Y-117000000D01*
X136250000Y-103000000D02*
X136250000Y-114972182D01*
X106500000Y-70500000D02*
X109000000Y-70500000D01*
X105100000Y-70500000D02*
X105000000Y-70600000D01*
X132861091Y-118361091D02*
X117329737Y-118361091D01*
X109000000Y-70500000D02*
X111500000Y-73000000D01*
X102250000Y-107000000D02*
X104000000Y-105250000D01*
X102250000Y-117000000D02*
X102250000Y-107000000D01*
X136250000Y-114972182D02*
X132861091Y-118361091D01*
X116940828Y-118750000D02*
X104000000Y-118750000D01*
X106500000Y-70500000D02*
X105100000Y-70500000D01*
X145000000Y-95000000D02*
X145000000Y-94050000D01*
D65*
X146500000Y-103750000D02*
X145015000Y-103750000D01*
X146500000Y-101250000D02*
X147985000Y-101250000D01*
X147985000Y-103750000D02*
X146500000Y-103750000D01*
%TO.N,/Drive System/THROTTLE_RECEIVER*%
X127790000Y-106049492D02*
X127790000Y-99644314D01*
X134050000Y-83450000D02*
X135000000Y-83450000D01*
X135000000Y-83450000D02*
X135550000Y-83450000D01*
X135000000Y-83450000D02*
X135050000Y-83400000D01*
X127790000Y-99644314D02*
X133500000Y-93934314D01*
X133500000Y-93934314D02*
X133500000Y-84000000D01*
X129340000Y-107599492D02*
X127790000Y-106049492D01*
X133500000Y-84000000D02*
X134050000Y-83450000D01*
X135550000Y-83450000D02*
X137969668Y-81030332D01*
X137969668Y-81030332D02*
X137969668Y-80030332D01*
D66*
%TO.N,Net-(J3-Pin_2)*%
X102150000Y-102500000D02*
X102150000Y-100450000D01*
X104900000Y-92900000D02*
X104000000Y-92000000D01*
X102150000Y-100450000D02*
X104900000Y-97700000D01*
X104900000Y-97700000D02*
X104900000Y-92900000D01*
X104000000Y-92000000D02*
X102975000Y-92000000D01*
D65*
%TO.N,/ESP32/DN*%
X143450001Y-97499999D02*
X145000000Y-95950000D01*
X145015000Y-102250000D02*
X144152499Y-102250000D01*
X144152499Y-102250000D02*
X144127499Y-102275000D01*
X147985000Y-102750000D02*
X147022102Y-102750000D01*
X147022102Y-102750000D02*
X146997102Y-102775000D01*
X144349996Y-83496852D02*
X144225001Y-83371857D01*
X143093200Y-80275000D02*
X139593200Y-80275000D01*
X143450001Y-101631801D02*
X143450001Y-97499999D01*
X144225001Y-81406801D02*
X143093200Y-80275000D01*
X144225001Y-95175001D02*
X144225001Y-86124999D01*
X144093200Y-102275000D02*
X143450001Y-101631801D01*
X146000000Y-102225000D02*
X145040000Y-102225000D01*
X135800001Y-77700000D02*
X135600001Y-77500000D01*
X144225001Y-86124999D02*
X144350000Y-86000000D01*
X144127499Y-102275000D02*
X144093200Y-102275000D01*
X137018200Y-77700000D02*
X135800001Y-77700000D01*
X135600001Y-77500000D02*
X135000000Y-77500000D01*
X139593200Y-80275000D02*
X137018200Y-77700000D01*
X144225001Y-83371857D02*
X144225001Y-81406801D01*
X145000000Y-95950000D02*
X144225001Y-95175001D01*
X145040000Y-102225000D02*
X145015000Y-102250000D01*
%TO.N,/ESP32/DP*%
X143700001Y-83500000D02*
X143774999Y-83425002D01*
X135800001Y-78150000D02*
X135600001Y-78350000D01*
X136831800Y-78150000D02*
X135800001Y-78150000D01*
X142906800Y-80725000D02*
X139406800Y-80725000D01*
X145015000Y-102750000D02*
X146250000Y-102750000D01*
X144152499Y-102750000D02*
X144127499Y-102725000D01*
X143774999Y-81593199D02*
X142906800Y-80725000D01*
X143000000Y-95950000D02*
X143774999Y-95175001D01*
X145015000Y-102750000D02*
X144152499Y-102750000D01*
X143906800Y-102725000D02*
X143000000Y-101818200D01*
X143000000Y-101818200D02*
X143000000Y-95950000D01*
X143774999Y-95175001D02*
X143774999Y-86124999D01*
X143774999Y-83425002D02*
X143774999Y-81593199D01*
X146750000Y-102250000D02*
X147985000Y-102250000D01*
X146250000Y-102750000D02*
X146750000Y-102250000D01*
X139406800Y-80725000D02*
X136831800Y-78150000D01*
X135600001Y-78350000D02*
X135000000Y-78350000D01*
X144127499Y-102725000D02*
X143906800Y-102725000D01*
X143774999Y-86124999D02*
X143650000Y-86000000D01*
%TO.N,/ESP32/PWRBUT*%
X154075000Y-61075000D02*
X154075000Y-56950000D01*
X143600000Y-72400000D02*
X144500000Y-71500000D01*
X153250000Y-61900000D02*
X149680000Y-61900000D01*
D64*
X131760000Y-72500000D02*
X131810000Y-72450000D01*
D65*
X135000000Y-72400000D02*
X127610000Y-72400000D01*
X127610000Y-72400000D02*
X127510000Y-72500000D01*
X135000000Y-72400000D02*
X143600000Y-72400000D01*
X154075000Y-61075000D02*
X153250000Y-61900000D01*
X149680000Y-61900000D02*
X148000000Y-60220000D01*
D66*
%TO.N,Net-(J12-Pin_2)*%
X110503984Y-92000000D02*
X109975000Y-92000000D01*
X112150000Y-93646016D02*
X110503984Y-92000000D01*
X112150000Y-102500000D02*
X112150000Y-93646016D01*
D65*
%TO.N,/ESP32/LED_SIG_REAR*%
X135000000Y-75800000D02*
X124331372Y-75800000D01*
X124331372Y-75800000D02*
X110631372Y-89500000D01*
X110631372Y-89500000D02*
X109975000Y-89500000D01*
D64*
%TO.N,Net-(M2--)*%
X120000000Y-93297500D02*
X120000000Y-89500000D01*
%TO.N,Net-(M3--)*%
X116000000Y-89500000D02*
X116000000Y-93297500D01*
D65*
%TO.N,/Drive System/ESC_FAN*%
X120950000Y-83050000D02*
X120950000Y-87625000D01*
X122250000Y-81750000D02*
X120950000Y-83050000D01*
X135000000Y-81750000D02*
X122250000Y-81750000D01*
%TO.N,/Drive System/MOT_FAN*%
X124047058Y-76650000D02*
X135000000Y-76650000D01*
X116950000Y-83747058D02*
X124047058Y-76650000D01*
X116950000Y-87625000D02*
X116950000Y-83747058D01*
%TO.N,/ESP32/BUZZER*%
X135000000Y-82600000D02*
X124110000Y-82600000D01*
X124110000Y-82600000D02*
X124010000Y-82500000D01*
X124010000Y-82500000D02*
X124010000Y-83622500D01*
X124010000Y-83622500D02*
X124450000Y-84062500D01*
%TO.N,Net-(U7-IADJ)*%
X108135000Y-115700000D02*
X108135000Y-117145000D01*
X108135000Y-117145000D02*
X108490000Y-117500000D01*
%TO.N,Net-(U7-FS)*%
X109405000Y-110300000D02*
X109405000Y-108575000D01*
X109405000Y-108575000D02*
X109480000Y-108500000D01*
%TO.N,Net-(U8-IADJ)*%
X118135000Y-115700000D02*
X118135000Y-117155000D01*
X118135000Y-117155000D02*
X118480000Y-117500000D01*
%TO.N,Net-(U8-FS)*%
X119405000Y-110300000D02*
X119405000Y-108595000D01*
X119405000Y-108595000D02*
X119500000Y-108500000D01*
%TO.N,/ESP32/LED_PWM_FRONT*%
X109490000Y-107000000D02*
X108135000Y-107000000D01*
X135000000Y-74950000D02*
X124615686Y-74950000D01*
X117065686Y-82500000D02*
X109000000Y-82500000D01*
X109000000Y-82500000D02*
X108135000Y-83365000D01*
X108135000Y-83365000D02*
X108135000Y-107000000D01*
X108135000Y-107000000D02*
X108135000Y-110300000D01*
X124615686Y-74950000D02*
X117065686Y-82500000D01*
%TO.N,/ESP32/LED_PWM_REAR*%
X118135000Y-83127744D02*
X118381372Y-82881372D01*
X119490000Y-107000000D02*
X118135000Y-107000000D01*
X135000000Y-79200000D02*
X122062744Y-79200000D01*
X118135000Y-107000000D02*
X118135000Y-83127744D01*
X122062744Y-79200000D02*
X118381372Y-82881372D01*
X118135000Y-110300000D02*
X118135000Y-107000000D01*
%TO.N,/ESP32/ADXL_SCL*%
X116990000Y-120990000D02*
X117000000Y-121000000D01*
X116260000Y-121000000D02*
X117000000Y-121000000D01*
X116250000Y-120990000D02*
X116260000Y-121000000D01*
X131565686Y-121000000D02*
X137750000Y-114815686D01*
X137750000Y-114815686D02*
X137750000Y-84500000D01*
X115500000Y-120990000D02*
X116990000Y-120990000D01*
X123500000Y-121000000D02*
X131565686Y-121000000D01*
%TO.N,/ESP32/ONBOARD_LED_SIG*%
X144550000Y-66950000D02*
X144855000Y-66645000D01*
X150500000Y-69000000D02*
X152500000Y-69000000D01*
X147365685Y-66500000D02*
X148000000Y-66500000D01*
X144855000Y-66645000D02*
X147220685Y-66645000D01*
X147220685Y-66645000D02*
X147365685Y-66500000D01*
X153000000Y-68500000D02*
X153000000Y-62500000D01*
X144550000Y-70500000D02*
X144550000Y-66950000D01*
X153000000Y-61000000D02*
X153000000Y-55600000D01*
X152500000Y-69000000D02*
X153000000Y-68500000D01*
X153000000Y-55600000D02*
X153650000Y-54950000D01*
X148000000Y-66500000D02*
X150500000Y-69000000D01*
%TO.N,/ESP32/ADXL_SDA*%
X133000000Y-119000000D02*
X136900000Y-115100000D01*
X117000000Y-120000000D02*
X117000000Y-119500000D01*
X117500000Y-119000000D02*
X133000000Y-119000000D01*
X114990000Y-120000000D02*
X117000000Y-120000000D01*
X136900000Y-115100000D02*
X136900000Y-84500000D01*
X117000000Y-119500000D02*
X117500000Y-119000000D01*
X114000000Y-120990000D02*
X114990000Y-120000000D01*
%TO.N,unconnected-(U1-IO12-Pad16)*%
X134950000Y-71500000D02*
X135000000Y-71550000D01*
%TO.N,Net-(U4-~{CS})*%
X122490000Y-121000000D02*
X122500000Y-120990000D01*
X121000000Y-121000000D02*
X122490000Y-121000000D01*
%TO.N,Net-(J13-CC1)*%
X143984315Y-103440000D02*
X142924315Y-104500000D01*
X145015000Y-103250000D02*
X144190000Y-103250000D01*
X142000000Y-104500000D02*
X140500000Y-106000000D01*
X142924315Y-104500000D02*
X142000000Y-104500000D01*
X144190000Y-103250000D02*
X144000000Y-103440000D01*
X140500000Y-106000000D02*
X140500000Y-106490000D01*
X144000000Y-103440000D02*
X143984315Y-103440000D01*
%TO.N,Net-(J13-CC2)*%
X148860000Y-101850000D02*
X148860000Y-104640000D01*
X147985000Y-101750000D02*
X148760000Y-101750000D01*
X148760000Y-101750000D02*
X148860000Y-101850000D01*
X144190000Y-104800000D02*
X142500000Y-106490000D01*
X148700000Y-104800000D02*
X144190000Y-104800000D01*
X148860000Y-104640000D02*
X148700000Y-104800000D01*
%TO.N,/ESP32/LED_SIG_FRONT*%
X135000000Y-74100000D02*
X124900000Y-74100000D01*
X105000000Y-82500000D02*
X105000000Y-87475000D01*
X124900000Y-74100000D02*
X117000000Y-82000000D01*
X117000000Y-82000000D02*
X105500000Y-82000000D01*
X105500000Y-82000000D02*
X105000000Y-82500000D01*
X105000000Y-87475000D02*
X102975000Y-89500000D01*
%TO.N,Net-(U1-IO0{slash}BOOT)*%
X144999991Y-82574650D02*
X145400000Y-82174641D01*
X144975000Y-86500000D02*
X145000000Y-86525000D01*
X145000000Y-86525000D02*
X145000000Y-90490000D01*
X144999991Y-83500126D02*
X144999991Y-82574650D01*
X145400000Y-82174641D02*
X145400000Y-70500000D01*
X145000000Y-90490000D02*
X148500000Y-93990000D01*
%TD*%
%TA.AperFunction,Conductor*%
%TO.N,Net-(U2-PH)*%
G36*
X108993039Y-74519685D02*
G01*
X109038794Y-74572489D01*
X109050000Y-74624000D01*
X109050000Y-75250000D01*
X109826000Y-75250000D01*
X109893039Y-75269685D01*
X109938794Y-75322489D01*
X109950000Y-75374000D01*
X109950000Y-76600000D01*
X110120500Y-76600000D01*
X110187539Y-76619685D01*
X110233294Y-76672489D01*
X110244500Y-76724000D01*
X110244500Y-76876000D01*
X110224815Y-76943039D01*
X110172011Y-76988794D01*
X110120500Y-77000000D01*
X108648423Y-77000000D01*
X108581384Y-76980315D01*
X108535629Y-76927511D01*
X108525685Y-76858353D01*
X108533165Y-76834753D01*
X108532151Y-76834424D01*
X108535165Y-76825146D01*
X108539149Y-76800000D01*
X107511500Y-76800000D01*
X107444461Y-76780315D01*
X107398706Y-76727511D01*
X107387500Y-76676000D01*
X107387500Y-76374628D01*
X109050000Y-76374628D01*
X109064503Y-76447540D01*
X109064505Y-76447544D01*
X109119760Y-76530239D01*
X109202455Y-76585494D01*
X109202459Y-76585496D01*
X109275371Y-76599999D01*
X109275374Y-76600000D01*
X109450000Y-76600000D01*
X109450000Y-75750000D01*
X109050000Y-75750000D01*
X109050000Y-76374628D01*
X107387500Y-76374628D01*
X107387500Y-76300000D01*
X107887500Y-76300000D01*
X108539148Y-76300000D01*
X108535166Y-76274856D01*
X108477639Y-76161953D01*
X108477636Y-76161949D01*
X108388050Y-76072363D01*
X108388046Y-76072360D01*
X108275144Y-76014833D01*
X108181486Y-76000000D01*
X107887500Y-76000000D01*
X107887500Y-76300000D01*
X107387500Y-76300000D01*
X107387500Y-76000000D01*
X107093520Y-76000000D01*
X106999850Y-76014835D01*
X106999844Y-76014837D01*
X106886958Y-76072356D01*
X106886949Y-76072363D01*
X106797363Y-76161949D01*
X106797360Y-76161953D01*
X106735405Y-76283548D01*
X106732565Y-76282100D01*
X106702489Y-76326081D01*
X106638129Y-76353276D01*
X106569283Y-76341359D01*
X106517810Y-76294112D01*
X106500000Y-76230084D01*
X106500000Y-74624000D01*
X106519685Y-74556961D01*
X106572489Y-74511206D01*
X106624000Y-74500000D01*
X108926000Y-74500000D01*
X108993039Y-74519685D01*
G37*
%TD.AperFunction*%
%TD*%
%TA.AperFunction,Conductor*%
%TO.N,+17V_SW*%
G36*
X101542539Y-53019685D02*
G01*
X101588294Y-53072489D01*
X101599500Y-53124000D01*
X101599500Y-53169752D01*
X101611131Y-53228229D01*
X101611132Y-53228230D01*
X101655447Y-53294552D01*
X101721769Y-53338867D01*
X101721770Y-53338868D01*
X101780247Y-53350499D01*
X101780250Y-53350500D01*
X101780252Y-53350500D01*
X102719750Y-53350500D01*
X102719751Y-53350499D01*
X102734568Y-53347552D01*
X102778229Y-53338868D01*
X102778229Y-53338867D01*
X102778231Y-53338867D01*
X102844552Y-53294552D01*
X102888867Y-53228231D01*
X102888867Y-53228229D01*
X102888868Y-53228229D01*
X102900499Y-53169752D01*
X102900500Y-53169750D01*
X102900500Y-53124000D01*
X102920185Y-53056961D01*
X102972989Y-53011206D01*
X103024500Y-53000000D01*
X114975500Y-53000000D01*
X115042539Y-53019685D01*
X115088294Y-53072489D01*
X115099500Y-53124000D01*
X115099500Y-53169752D01*
X115111131Y-53228229D01*
X115111132Y-53228230D01*
X115155447Y-53294552D01*
X115221769Y-53338867D01*
X115221770Y-53338868D01*
X115280247Y-53350499D01*
X115280250Y-53350500D01*
X115280252Y-53350500D01*
X116219750Y-53350500D01*
X116219751Y-53350499D01*
X116234568Y-53347552D01*
X116278229Y-53338868D01*
X116278229Y-53338867D01*
X116278231Y-53338867D01*
X116344552Y-53294552D01*
X116388867Y-53228231D01*
X116388867Y-53228229D01*
X116388868Y-53228229D01*
X116400499Y-53169752D01*
X116400500Y-53169750D01*
X116400500Y-53124000D01*
X116420185Y-53056961D01*
X116472989Y-53011206D01*
X116524500Y-53000000D01*
X118495874Y-53000000D01*
X118562913Y-53019685D01*
X118608668Y-53072489D01*
X118610434Y-53076544D01*
X118611132Y-53078231D01*
X118655447Y-53144552D01*
X118721769Y-53188867D01*
X118721770Y-53188868D01*
X118780247Y-53200499D01*
X118780250Y-53200500D01*
X118780252Y-53200500D01*
X119719750Y-53200500D01*
X119719751Y-53200499D01*
X119734568Y-53197552D01*
X119778229Y-53188868D01*
X119778231Y-53188867D01*
X119807108Y-53169572D01*
X119873785Y-53148693D01*
X119941166Y-53167177D01*
X119987856Y-53219155D01*
X120000000Y-53272673D01*
X120000000Y-55000000D01*
X107000000Y-55000000D01*
X107000000Y-55847832D01*
X106980315Y-55914871D01*
X106927511Y-55960626D01*
X106858353Y-55970570D01*
X106835050Y-55964875D01*
X106831401Y-55963598D01*
X106818764Y-55960413D01*
X106617485Y-55909696D01*
X106487933Y-55899500D01*
X106487931Y-55899500D01*
X104312075Y-55899500D01*
X104312060Y-55899501D01*
X104182515Y-55909696D01*
X103968604Y-55963596D01*
X103767756Y-56054826D01*
X103586431Y-56180449D01*
X103430449Y-56336431D01*
X103304826Y-56517756D01*
X103213596Y-56718604D01*
X103159696Y-56932515D01*
X103149500Y-57062061D01*
X103149500Y-59237924D01*
X103149501Y-59237939D01*
X103159696Y-59367484D01*
X103213596Y-59581395D01*
X103304826Y-59782243D01*
X103430449Y-59963568D01*
X103586431Y-60119550D01*
X103767756Y-60245173D01*
X103767757Y-60245173D01*
X103767761Y-60245176D01*
X103901875Y-60306093D01*
X103968604Y-60336403D01*
X103968605Y-60336403D01*
X103968607Y-60336404D01*
X104182515Y-60390304D01*
X104312067Y-60400500D01*
X106487932Y-60400499D01*
X106617485Y-60390304D01*
X106831393Y-60336404D01*
X106831402Y-60336399D01*
X106835038Y-60335128D01*
X106904817Y-60331562D01*
X106965446Y-60366287D01*
X106997677Y-60428279D01*
X107000000Y-60452167D01*
X107000000Y-60931060D01*
X106980315Y-60998099D01*
X106927511Y-61043854D01*
X106876000Y-61055060D01*
X106813217Y-61055060D01*
X106441856Y-61095447D01*
X106077022Y-61175754D01*
X105723020Y-61295030D01*
X105383999Y-61451878D01*
X105383986Y-61451885D01*
X105117623Y-61612151D01*
X105063905Y-61644473D01*
X104971728Y-61714543D01*
X104766526Y-61870533D01*
X104766517Y-61870541D01*
X104495315Y-62127437D01*
X104253485Y-62412140D01*
X104253477Y-62412150D01*
X104043847Y-62721330D01*
X104043846Y-62721333D01*
X103868869Y-63051374D01*
X103868860Y-63051392D01*
X103730595Y-63398413D01*
X103730594Y-63398415D01*
X103630661Y-63758343D01*
X103630656Y-63758364D01*
X103570225Y-64126974D01*
X103570224Y-64126991D01*
X103550000Y-64499997D01*
X103550000Y-64500002D01*
X103570224Y-64873008D01*
X103570225Y-64873025D01*
X103630656Y-65241635D01*
X103630661Y-65241656D01*
X103730594Y-65601584D01*
X103730595Y-65601586D01*
X103868860Y-65948607D01*
X103868869Y-65948625D01*
X104043846Y-66278666D01*
X104043847Y-66278669D01*
X104253477Y-66587849D01*
X104253485Y-66587859D01*
X104303524Y-66646769D01*
X104495316Y-66872563D01*
X104766517Y-67129459D01*
X105063905Y-67355527D01*
X105383991Y-67548117D01*
X105383995Y-67548118D01*
X105383999Y-67548121D01*
X105723020Y-67704969D01*
X105723023Y-67704970D01*
X106077027Y-67824247D01*
X106441852Y-67904552D01*
X106813221Y-67944940D01*
X106813227Y-67944940D01*
X106876000Y-67944940D01*
X106943039Y-67964625D01*
X106988794Y-68017429D01*
X107000000Y-68068940D01*
X107000000Y-69925500D01*
X106980315Y-69992539D01*
X106927511Y-70038294D01*
X106876000Y-70049500D01*
X105737628Y-70049500D01*
X105670589Y-70029815D01*
X105637858Y-69999134D01*
X105622150Y-69977850D01*
X105512882Y-69897207D01*
X105512880Y-69897206D01*
X105384700Y-69852353D01*
X105354270Y-69849500D01*
X105354266Y-69849500D01*
X104645734Y-69849500D01*
X104645730Y-69849500D01*
X104615300Y-69852353D01*
X104615298Y-69852353D01*
X104487119Y-69897206D01*
X104487117Y-69897207D01*
X104377850Y-69977850D01*
X104297207Y-70087117D01*
X104297206Y-70087119D01*
X104252353Y-70215298D01*
X104252353Y-70215300D01*
X104249500Y-70245730D01*
X104249500Y-70954269D01*
X104252353Y-70984699D01*
X104252353Y-70984701D01*
X104297206Y-71112880D01*
X104297207Y-71112882D01*
X104377850Y-71222150D01*
X104487118Y-71302793D01*
X104529845Y-71317744D01*
X104615299Y-71347646D01*
X104645730Y-71350500D01*
X104645734Y-71350500D01*
X105354270Y-71350500D01*
X105384699Y-71347646D01*
X105384701Y-71347646D01*
X105448790Y-71325219D01*
X105512882Y-71302793D01*
X105622150Y-71222150D01*
X105702793Y-71112882D01*
X105720827Y-71061341D01*
X105730555Y-71033544D01*
X105771277Y-70976769D01*
X105836230Y-70951022D01*
X105847596Y-70950500D01*
X106440691Y-70950500D01*
X106876000Y-70950500D01*
X106943039Y-70970185D01*
X106988794Y-71022989D01*
X107000000Y-71074500D01*
X107000000Y-72376000D01*
X106980315Y-72443039D01*
X106927511Y-72488794D01*
X106876000Y-72500000D01*
X106807972Y-72500000D01*
X106740933Y-72480315D01*
X106700218Y-72437360D01*
X106681892Y-72405178D01*
X106681889Y-72405175D01*
X106681888Y-72405172D01*
X106636133Y-72352368D01*
X106603359Y-72320743D01*
X106515024Y-72274535D01*
X106515023Y-72274534D01*
X106515022Y-72274534D01*
X106515022Y-72274533D01*
X106447990Y-72254851D01*
X106447978Y-72254848D01*
X106376001Y-72244500D01*
X106376000Y-72244500D01*
X105705392Y-72244500D01*
X105705391Y-72244500D01*
X105678094Y-72245963D01*
X105678089Y-72245963D01*
X105678077Y-72245964D01*
X105678069Y-72245964D01*
X105678040Y-72245967D01*
X105651719Y-72248797D01*
X105651717Y-72248798D01*
X105556592Y-72278585D01*
X105556585Y-72278587D01*
X105495265Y-72312070D01*
X105457395Y-72337373D01*
X105457393Y-72337375D01*
X105393469Y-72413863D01*
X105393466Y-72413867D01*
X105381694Y-72435427D01*
X105332288Y-72484832D01*
X105272862Y-72500000D01*
X104726580Y-72500000D01*
X104659541Y-72480315D01*
X104618826Y-72437360D01*
X104600500Y-72405178D01*
X104600497Y-72405175D01*
X104600496Y-72405172D01*
X104554741Y-72352368D01*
X104521967Y-72320743D01*
X104433632Y-72274535D01*
X104433631Y-72274534D01*
X104433630Y-72274534D01*
X104433630Y-72274533D01*
X104366598Y-72254851D01*
X104366586Y-72254848D01*
X104294609Y-72244500D01*
X104294608Y-72244500D01*
X102705392Y-72244500D01*
X102705391Y-72244500D01*
X102678094Y-72245963D01*
X102678089Y-72245963D01*
X102678077Y-72245964D01*
X102678069Y-72245964D01*
X102678040Y-72245967D01*
X102651719Y-72248797D01*
X102651717Y-72248798D01*
X102556592Y-72278585D01*
X102556585Y-72278587D01*
X102495265Y-72312070D01*
X102457395Y-72337373D01*
X102457393Y-72337375D01*
X102393469Y-72413863D01*
X102393466Y-72413867D01*
X102381694Y-72435427D01*
X102332288Y-72484832D01*
X102272862Y-72500000D01*
X101726580Y-72500000D01*
X101659541Y-72480315D01*
X101618826Y-72437360D01*
X101600500Y-72405178D01*
X101600497Y-72405175D01*
X101600496Y-72405172D01*
X101554741Y-72352368D01*
X101521967Y-72320743D01*
X101433632Y-72274535D01*
X101433631Y-72274534D01*
X101433630Y-72274534D01*
X101433630Y-72274533D01*
X101366598Y-72254851D01*
X101366586Y-72254848D01*
X101294609Y-72244500D01*
X101294608Y-72244500D01*
X100624000Y-72244500D01*
X100556961Y-72224815D01*
X100511206Y-72172011D01*
X100500000Y-72120500D01*
X100500000Y-53124000D01*
X100519685Y-53056961D01*
X100572489Y-53011206D01*
X100624000Y-53000000D01*
X101475500Y-53000000D01*
X101542539Y-53019685D01*
G37*
%TD.AperFunction*%
%TD*%
%TA.AperFunction,Conductor*%
%TO.N,Net-(U8-VCC)*%
G36*
X114988039Y-115275185D02*
G01*
X115033794Y-115327989D01*
X115045000Y-115379500D01*
X115045000Y-115450000D01*
X115721000Y-115450000D01*
X115788039Y-115469685D01*
X115833794Y-115522489D01*
X115845000Y-115574000D01*
X115845000Y-115826000D01*
X115825315Y-115893039D01*
X115772511Y-115938794D01*
X115721000Y-115950000D01*
X115045000Y-115950000D01*
X115045000Y-116499628D01*
X115059503Y-116572540D01*
X115059504Y-116572544D01*
X115065896Y-116582109D01*
X115086774Y-116648786D01*
X115068290Y-116716166D01*
X115016311Y-116762857D01*
X114962798Y-116775000D01*
X114934567Y-116775000D01*
X114934559Y-116775001D01*
X114877992Y-116781081D01*
X114750018Y-116828813D01*
X114750015Y-116828815D01*
X114640670Y-116910670D01*
X114558815Y-117020015D01*
X114558814Y-117020016D01*
X114511083Y-117147989D01*
X114505000Y-117204571D01*
X114505000Y-117250000D01*
X115331000Y-117250000D01*
X115398039Y-117269685D01*
X115443794Y-117322489D01*
X115455000Y-117374000D01*
X115455000Y-117626000D01*
X115435315Y-117693039D01*
X115382511Y-117738794D01*
X115331000Y-117750000D01*
X114505001Y-117750000D01*
X114505001Y-117795439D01*
X114511911Y-117859720D01*
X114509343Y-117859995D01*
X114506269Y-117917264D01*
X114465397Y-117973932D01*
X114400377Y-117999507D01*
X114389336Y-118000000D01*
X113624000Y-118000000D01*
X113556961Y-117980315D01*
X113511206Y-117927511D01*
X113500000Y-117876000D01*
X113500000Y-115379500D01*
X113519685Y-115312461D01*
X113572489Y-115266706D01*
X113624000Y-115255500D01*
X114921000Y-115255500D01*
X114988039Y-115275185D01*
G37*
%TD.AperFunction*%
%TD*%
%TA.AperFunction,Conductor*%
%TO.N,Net-(D3-A)*%
G36*
X107443039Y-99019685D02*
G01*
X107488794Y-99072489D01*
X107500000Y-99124000D01*
X107500000Y-99276000D01*
X107480315Y-99343039D01*
X107427511Y-99388794D01*
X107376000Y-99400000D01*
X107100000Y-99400000D01*
X107100000Y-105600000D01*
X107376000Y-105600000D01*
X107443039Y-105619685D01*
X107488794Y-105672489D01*
X107500000Y-105724000D01*
X107500000Y-106599652D01*
X107480315Y-106666691D01*
X107427511Y-106712446D01*
X107358353Y-106722390D01*
X107332669Y-106715835D01*
X107307379Y-106706403D01*
X107307372Y-106706401D01*
X107247844Y-106700000D01*
X107150000Y-106700000D01*
X107150000Y-108300000D01*
X107247828Y-108300000D01*
X107247844Y-108299999D01*
X107307372Y-108293598D01*
X107307376Y-108293597D01*
X107332666Y-108284165D01*
X107402358Y-108279181D01*
X107463681Y-108312665D01*
X107497166Y-108373989D01*
X107500000Y-108400347D01*
X107500000Y-109216180D01*
X107480315Y-109283219D01*
X107427511Y-109328974D01*
X107358353Y-109338918D01*
X107307109Y-109319282D01*
X107262544Y-109289505D01*
X107262540Y-109289503D01*
X107189627Y-109275000D01*
X107115000Y-109275000D01*
X107115000Y-110426000D01*
X107095315Y-110493039D01*
X107042511Y-110538794D01*
X106991000Y-110550000D01*
X106739000Y-110550000D01*
X106671961Y-110530315D01*
X106626206Y-110477511D01*
X106615000Y-110426000D01*
X106615000Y-109275000D01*
X106540373Y-109275000D01*
X106467459Y-109289503D01*
X106467453Y-109289505D01*
X106442142Y-109306418D01*
X106375465Y-109327295D01*
X106308085Y-109308810D01*
X106261395Y-109256830D01*
X106250220Y-109187860D01*
X106250506Y-109185729D01*
X106255500Y-109151000D01*
X106255500Y-108383749D01*
X106275185Y-108316710D01*
X106327989Y-108270955D01*
X106397147Y-108261011D01*
X106422834Y-108267567D01*
X106492623Y-108293597D01*
X106492627Y-108293598D01*
X106552155Y-108299999D01*
X106552172Y-108300000D01*
X106650000Y-108300000D01*
X106650000Y-106700000D01*
X106552155Y-106700000D01*
X106492627Y-106706401D01*
X106492616Y-106706404D01*
X106422599Y-106732518D01*
X106352907Y-106737502D01*
X106291584Y-106704016D01*
X106258100Y-106642692D01*
X106256027Y-106627282D01*
X106255855Y-106627301D01*
X106249661Y-106569687D01*
X106238456Y-106518181D01*
X106238455Y-106518176D01*
X106231219Y-106491802D01*
X106222529Y-106476541D01*
X106181894Y-106405181D01*
X106181890Y-106405176D01*
X106181888Y-106405172D01*
X106136133Y-106352368D01*
X106103359Y-106320743D01*
X106015024Y-106274535D01*
X106015023Y-106274534D01*
X106015022Y-106274534D01*
X106015022Y-106274533D01*
X105947990Y-106254851D01*
X105947978Y-106254848D01*
X105876001Y-106244500D01*
X105876000Y-106244500D01*
X105124000Y-106244500D01*
X105056961Y-106224815D01*
X105011206Y-106172011D01*
X105000000Y-106120500D01*
X105000000Y-105374628D01*
X105800000Y-105374628D01*
X105814503Y-105447540D01*
X105814505Y-105447544D01*
X105869760Y-105530239D01*
X105952455Y-105585494D01*
X105952459Y-105585496D01*
X106025371Y-105599999D01*
X106025374Y-105600000D01*
X106600000Y-105600000D01*
X106600000Y-102750000D01*
X105800000Y-102750000D01*
X105800000Y-105374628D01*
X105000000Y-105374628D01*
X105000000Y-100056232D01*
X105019685Y-99989193D01*
X105036319Y-99968551D01*
X105192651Y-99812219D01*
X105379499Y-99625371D01*
X105800000Y-99625371D01*
X105800000Y-102250000D01*
X106600000Y-102250000D01*
X106600000Y-99400000D01*
X106025373Y-99400000D01*
X105952459Y-99414503D01*
X105952456Y-99414504D01*
X105908046Y-99444178D01*
X105858357Y-99459735D01*
X105849907Y-99498583D01*
X105844178Y-99508046D01*
X105814504Y-99552456D01*
X105814503Y-99552459D01*
X105800000Y-99625371D01*
X105379499Y-99625371D01*
X105653396Y-99351473D01*
X105714717Y-99317990D01*
X105719301Y-99318317D01*
X105744009Y-99261557D01*
X105751464Y-99253405D01*
X105968551Y-99036319D01*
X106029874Y-99002834D01*
X106056232Y-99000000D01*
X107376000Y-99000000D01*
X107443039Y-99019685D01*
G37*
%TD.AperFunction*%
%TD*%
%TA.AperFunction,Conductor*%
%TO.N,Net-(U7-VCC)*%
G36*
X104988039Y-115275185D02*
G01*
X105033794Y-115327989D01*
X105045000Y-115379500D01*
X105045000Y-115450000D01*
X105721000Y-115450000D01*
X105788039Y-115469685D01*
X105833794Y-115522489D01*
X105845000Y-115574000D01*
X105845000Y-115826000D01*
X105825315Y-115893039D01*
X105772511Y-115938794D01*
X105721000Y-115950000D01*
X105045000Y-115950000D01*
X105045000Y-116499628D01*
X105059503Y-116572540D01*
X105059504Y-116572544D01*
X105065896Y-116582109D01*
X105086774Y-116648786D01*
X105068290Y-116716166D01*
X105016311Y-116762857D01*
X104962805Y-116775000D01*
X104954571Y-116775000D01*
X104954559Y-116775001D01*
X104897992Y-116781081D01*
X104770018Y-116828813D01*
X104770015Y-116828815D01*
X104660670Y-116910670D01*
X104578815Y-117020015D01*
X104578814Y-117020016D01*
X104531083Y-117147989D01*
X104525000Y-117204571D01*
X104525000Y-117250000D01*
X105351000Y-117250000D01*
X105418039Y-117269685D01*
X105463794Y-117322489D01*
X105475000Y-117374000D01*
X105475000Y-117626000D01*
X105455315Y-117693039D01*
X105402511Y-117738794D01*
X105351000Y-117750000D01*
X104525001Y-117750000D01*
X104525001Y-117795439D01*
X104531911Y-117859720D01*
X104529343Y-117859995D01*
X104526269Y-117917264D01*
X104485397Y-117973932D01*
X104420377Y-117999507D01*
X104409336Y-118000000D01*
X104009176Y-118000000D01*
X103942137Y-117980315D01*
X103921495Y-117963681D01*
X103536319Y-117578505D01*
X103502834Y-117517182D01*
X103500000Y-117490824D01*
X103500000Y-115379500D01*
X103519685Y-115312461D01*
X103572489Y-115266706D01*
X103624000Y-115255500D01*
X104921000Y-115255500D01*
X104988039Y-115275185D01*
G37*
%TD.AperFunction*%
%TD*%
%TA.AperFunction,Conductor*%
%TO.N,GND*%
G36*
X118009191Y-121768907D02*
G01*
X118045155Y-121818407D01*
X118050000Y-121849000D01*
X118050000Y-122665269D01*
X118051247Y-122665088D01*
X118155950Y-122613902D01*
X118216532Y-122605331D01*
X118242911Y-122613902D01*
X118348604Y-122665572D01*
X118348605Y-122665572D01*
X118348607Y-122665573D01*
X118416740Y-122675500D01*
X118416743Y-122675500D01*
X118783257Y-122675500D01*
X118783260Y-122675500D01*
X118851393Y-122665573D01*
X118956483Y-122614198D01*
X118956484Y-122614196D01*
X118957087Y-122613902D01*
X119017669Y-122605331D01*
X119044048Y-122613902D01*
X119148751Y-122665088D01*
X119149999Y-122665269D01*
X119150000Y-122665269D01*
X119150000Y-122250001D01*
X119650000Y-122250001D01*
X119650000Y-122665269D01*
X119651247Y-122665088D01*
X119756519Y-122613624D01*
X119817101Y-122605053D01*
X119843481Y-122613624D01*
X119948752Y-122665088D01*
X119950000Y-122665269D01*
X119950000Y-122250001D01*
X119949999Y-122250000D01*
X119650001Y-122250000D01*
X119650000Y-122250001D01*
X119150000Y-122250001D01*
X119150000Y-121849000D01*
X119168907Y-121790809D01*
X119218407Y-121754845D01*
X119249000Y-121750000D01*
X120351000Y-121750000D01*
X120409191Y-121768907D01*
X120445155Y-121818407D01*
X120450000Y-121849000D01*
X120450000Y-122665268D01*
X120465789Y-122678934D01*
X120497415Y-122731313D01*
X120500000Y-122753790D01*
X120500000Y-122957997D01*
X120481093Y-123016188D01*
X120431593Y-123052152D01*
X120370407Y-123052152D01*
X120359161Y-123047721D01*
X120270001Y-123006145D01*
X120270000Y-123006145D01*
X120270000Y-123651000D01*
X120251093Y-123709191D01*
X120201593Y-123745155D01*
X120171000Y-123750000D01*
X117829000Y-123750000D01*
X117770809Y-123731093D01*
X117734845Y-123681593D01*
X117730000Y-123651000D01*
X117730000Y-123249999D01*
X118230000Y-123249999D01*
X118230001Y-123250000D01*
X118454712Y-123250000D01*
X119545287Y-123250000D01*
X119769999Y-123250000D01*
X119770000Y-123249999D01*
X119770000Y-123006145D01*
X119769998Y-123006145D01*
X119681979Y-123047189D01*
X119597190Y-123131978D01*
X119546520Y-123240641D01*
X119546519Y-123240644D01*
X119545287Y-123250000D01*
X118454712Y-123250000D01*
X118453480Y-123240644D01*
X118453479Y-123240641D01*
X118402809Y-123131978D01*
X118318020Y-123047189D01*
X118230001Y-123006145D01*
X118230000Y-123006145D01*
X118230000Y-123249999D01*
X117730000Y-123249999D01*
X117730000Y-123006145D01*
X117729998Y-123006145D01*
X117640839Y-123047721D01*
X117580110Y-123055178D01*
X117526596Y-123025515D01*
X117500738Y-122970062D01*
X117500000Y-122957997D01*
X117500000Y-122753790D01*
X117518907Y-122695599D01*
X117534211Y-122678934D01*
X117550000Y-122665268D01*
X117550000Y-121849000D01*
X117568907Y-121790809D01*
X117618407Y-121754845D01*
X117649000Y-121750000D01*
X117951000Y-121750000D01*
X118009191Y-121768907D01*
G37*
%TD.AperFunction*%
%TD*%
%TA.AperFunction,Conductor*%
%TO.N,GND*%
G36*
X102930221Y-77019685D02*
G01*
X102975976Y-77072489D01*
X102985920Y-77141647D01*
X102973667Y-77180295D01*
X102954465Y-77217980D01*
X102952561Y-77229999D01*
X102952561Y-77230000D01*
X104047438Y-77230000D01*
X104045535Y-77217983D01*
X104045534Y-77217980D01*
X104026333Y-77180296D01*
X104013436Y-77111627D01*
X104039711Y-77046886D01*
X104096817Y-77006629D01*
X104136817Y-77000000D01*
X104532760Y-77000000D01*
X104599799Y-77019685D01*
X104605642Y-77023679D01*
X104611653Y-77028045D01*
X104611658Y-77028050D01*
X104724694Y-77085645D01*
X104724698Y-77085647D01*
X104818475Y-77100499D01*
X104818481Y-77100500D01*
X105906518Y-77100499D01*
X106000304Y-77085646D01*
X106113342Y-77028050D01*
X106113346Y-77028045D01*
X106119358Y-77023679D01*
X106185165Y-77000202D01*
X106192240Y-77000000D01*
X106652054Y-77000000D01*
X106719093Y-77019685D01*
X106764848Y-77072489D01*
X106774792Y-77141647D01*
X106762539Y-77180295D01*
X106739833Y-77224856D01*
X106735851Y-77250000D01*
X108596314Y-77250000D01*
X108596314Y-77251995D01*
X108614504Y-77250623D01*
X108648423Y-77255500D01*
X108648425Y-77255500D01*
X110120500Y-77255500D01*
X110174813Y-77249661D01*
X110226324Y-77238455D01*
X110252698Y-77231219D01*
X110310339Y-77198395D01*
X110378333Y-77182327D01*
X110429172Y-77196274D01*
X110455844Y-77210226D01*
X110484973Y-77225464D01*
X110484977Y-77225466D01*
X110529218Y-77238456D01*
X110552015Y-77245150D01*
X110552019Y-77245150D01*
X110552021Y-77245151D01*
X110563652Y-77246823D01*
X110624000Y-77255500D01*
X110624001Y-77255500D01*
X112487449Y-77255500D01*
X112532790Y-77251442D01*
X112532792Y-77251441D01*
X112532810Y-77251440D01*
X112576142Y-77243622D01*
X112593959Y-77239747D01*
X112651660Y-77212141D01*
X112705174Y-77200000D01*
X114294376Y-77200000D01*
X114351852Y-77214125D01*
X114373531Y-77225465D01*
X114373532Y-77225466D01*
X114417773Y-77238456D01*
X114440570Y-77245150D01*
X114440574Y-77245150D01*
X114440576Y-77245151D01*
X114452207Y-77246823D01*
X114512555Y-77255500D01*
X114512556Y-77255500D01*
X114987449Y-77255500D01*
X115032790Y-77251442D01*
X115032792Y-77251441D01*
X115032810Y-77251440D01*
X115076142Y-77243622D01*
X115093959Y-77239747D01*
X115151660Y-77212141D01*
X115205174Y-77200000D01*
X116794376Y-77200000D01*
X116851852Y-77214125D01*
X116873531Y-77225465D01*
X116873532Y-77225466D01*
X116917773Y-77238456D01*
X116940570Y-77245150D01*
X116940574Y-77245150D01*
X116940576Y-77245151D01*
X116952207Y-77246823D01*
X117012555Y-77255500D01*
X117376000Y-77255500D01*
X117443039Y-77275185D01*
X117488794Y-77327989D01*
X117500000Y-77379500D01*
X117500000Y-77876000D01*
X117480315Y-77943039D01*
X117427511Y-77988794D01*
X117376000Y-78000000D01*
X117075347Y-78000000D01*
X117008308Y-77980315D01*
X116962553Y-77927511D01*
X116952609Y-77858353D01*
X116959165Y-77832666D01*
X116968597Y-77807376D01*
X116968598Y-77807372D01*
X116974999Y-77747844D01*
X116975000Y-77747827D01*
X116975000Y-77700000D01*
X115025000Y-77700000D01*
X115025000Y-77747844D01*
X115031401Y-77807372D01*
X115031402Y-77807376D01*
X115040835Y-77832666D01*
X115045819Y-77902358D01*
X115012335Y-77963681D01*
X114951011Y-77997166D01*
X114924653Y-78000000D01*
X114575347Y-78000000D01*
X114508308Y-77980315D01*
X114462553Y-77927511D01*
X114452609Y-77858353D01*
X114459165Y-77832666D01*
X114468597Y-77807376D01*
X114468598Y-77807372D01*
X114474999Y-77747844D01*
X114475000Y-77747827D01*
X114475000Y-77700000D01*
X112525000Y-77700000D01*
X112525000Y-77747844D01*
X112531401Y-77807372D01*
X112531402Y-77807376D01*
X112540835Y-77832666D01*
X112545819Y-77902358D01*
X112512335Y-77963681D01*
X112451011Y-77997166D01*
X112424653Y-78000000D01*
X108622946Y-78000000D01*
X108555907Y-77980315D01*
X108510152Y-77927511D01*
X108500208Y-77858353D01*
X108512461Y-77819705D01*
X108535166Y-77775143D01*
X108539149Y-77750000D01*
X106735851Y-77750000D01*
X106739833Y-77775143D01*
X106797360Y-77888046D01*
X106803098Y-77895944D01*
X106801725Y-77896940D01*
X106829764Y-77948289D01*
X106824780Y-78017981D01*
X106802073Y-78053311D01*
X106802689Y-78053759D01*
X106796951Y-78061657D01*
X106739352Y-78174698D01*
X106724500Y-78268475D01*
X106724500Y-78631517D01*
X106735292Y-78699657D01*
X106739354Y-78725304D01*
X106796950Y-78838342D01*
X106796952Y-78838344D01*
X106796954Y-78838347D01*
X106886652Y-78928045D01*
X106886658Y-78928050D01*
X106932295Y-78951303D01*
X106983090Y-78999276D01*
X107000000Y-79061787D01*
X107000000Y-79361359D01*
X106980315Y-79428398D01*
X106927511Y-79474153D01*
X106858353Y-79484097D01*
X106821540Y-79472759D01*
X106760000Y-79442674D01*
X106760000Y-80126000D01*
X106740315Y-80193039D01*
X106687511Y-80238794D01*
X106636000Y-80250000D01*
X106384000Y-80250000D01*
X106316961Y-80230315D01*
X106271206Y-80177511D01*
X106260000Y-80126000D01*
X106260000Y-79391151D01*
X106255500Y-79371094D01*
X106255500Y-79123999D01*
X106249661Y-79069686D01*
X106238455Y-79018175D01*
X106231219Y-78991801D01*
X106208164Y-78951315D01*
X106192097Y-78883319D01*
X106205434Y-78833662D01*
X106260646Y-78725304D01*
X106260646Y-78725302D01*
X106260647Y-78725301D01*
X106275499Y-78631524D01*
X106275500Y-78631519D01*
X106275499Y-78268482D01*
X106260646Y-78174696D01*
X106203050Y-78061658D01*
X106203046Y-78061654D01*
X106203045Y-78061652D01*
X106113347Y-77971954D01*
X106113344Y-77971952D01*
X106113342Y-77971950D01*
X106026126Y-77927511D01*
X106000301Y-77914352D01*
X105906524Y-77899500D01*
X104818481Y-77899500D01*
X104740587Y-77911837D01*
X104671294Y-77902881D01*
X104627477Y-77870564D01*
X104611718Y-77852376D01*
X104611716Y-77852374D01*
X104578936Y-77820743D01*
X104490599Y-77774534D01*
X104490599Y-77774533D01*
X104423567Y-77754851D01*
X104423555Y-77754848D01*
X104351578Y-77744500D01*
X104351577Y-77744500D01*
X104116989Y-77744500D01*
X104067608Y-77730000D01*
X102952562Y-77730000D01*
X102954464Y-77742016D01*
X102954466Y-77742022D01*
X102994048Y-77819705D01*
X103006945Y-77888374D01*
X102980669Y-77953114D01*
X102923563Y-77993372D01*
X102883564Y-78000000D01*
X102575347Y-78000000D01*
X102508308Y-77980315D01*
X102462553Y-77927511D01*
X102452609Y-77858353D01*
X102459165Y-77832666D01*
X102468597Y-77807376D01*
X102468598Y-77807372D01*
X102474999Y-77747844D01*
X102475000Y-77747827D01*
X102475000Y-77700000D01*
X101374000Y-77700000D01*
X101306961Y-77680315D01*
X101261206Y-77627511D01*
X101250000Y-77576000D01*
X101250000Y-77324000D01*
X101269685Y-77256961D01*
X101322489Y-77211206D01*
X101374000Y-77200000D01*
X102475000Y-77200000D01*
X102475000Y-77152172D01*
X102474999Y-77152158D01*
X102473397Y-77137257D01*
X102485801Y-77068497D01*
X102533411Y-77017359D01*
X102596686Y-77000000D01*
X102863182Y-77000000D01*
X102930221Y-77019685D01*
G37*
%TD.AperFunction*%
%TD*%
%TA.AperFunction,Conductor*%
%TO.N,Net-(D4-A)*%
G36*
X117443039Y-99019685D02*
G01*
X117488794Y-99072489D01*
X117500000Y-99124000D01*
X117500000Y-99276000D01*
X117480315Y-99343039D01*
X117427511Y-99388794D01*
X117376000Y-99400000D01*
X117100000Y-99400000D01*
X117100000Y-105600000D01*
X117376000Y-105600000D01*
X117443039Y-105619685D01*
X117488794Y-105672489D01*
X117500000Y-105724000D01*
X117500000Y-106599652D01*
X117480315Y-106666691D01*
X117427511Y-106712446D01*
X117358353Y-106722390D01*
X117332669Y-106715835D01*
X117307379Y-106706403D01*
X117307372Y-106706401D01*
X117247844Y-106700000D01*
X117150000Y-106700000D01*
X117150000Y-108300000D01*
X117247828Y-108300000D01*
X117247844Y-108299999D01*
X117307372Y-108293598D01*
X117307376Y-108293597D01*
X117332666Y-108284165D01*
X117402358Y-108279181D01*
X117463681Y-108312665D01*
X117497166Y-108373989D01*
X117500000Y-108400347D01*
X117500000Y-109216180D01*
X117480315Y-109283219D01*
X117427511Y-109328974D01*
X117358353Y-109338918D01*
X117307109Y-109319282D01*
X117262544Y-109289505D01*
X117262540Y-109289503D01*
X117189627Y-109275000D01*
X117115000Y-109275000D01*
X117115000Y-110426000D01*
X117095315Y-110493039D01*
X117042511Y-110538794D01*
X116991000Y-110550000D01*
X116739000Y-110550000D01*
X116671961Y-110530315D01*
X116626206Y-110477511D01*
X116615000Y-110426000D01*
X116615000Y-109275000D01*
X116540373Y-109275000D01*
X116467459Y-109289503D01*
X116467453Y-109289505D01*
X116442142Y-109306418D01*
X116375465Y-109327295D01*
X116308085Y-109308810D01*
X116261395Y-109256830D01*
X116250220Y-109187860D01*
X116250506Y-109185729D01*
X116255500Y-109151000D01*
X116255500Y-108383749D01*
X116275185Y-108316710D01*
X116327989Y-108270955D01*
X116397147Y-108261011D01*
X116422834Y-108267567D01*
X116492623Y-108293597D01*
X116492627Y-108293598D01*
X116552155Y-108299999D01*
X116552172Y-108300000D01*
X116650000Y-108300000D01*
X116650000Y-106700000D01*
X116552155Y-106700000D01*
X116492627Y-106706401D01*
X116492616Y-106706404D01*
X116422599Y-106732518D01*
X116352907Y-106737502D01*
X116291584Y-106704016D01*
X116258100Y-106642692D01*
X116256027Y-106627282D01*
X116255855Y-106627301D01*
X116249661Y-106569687D01*
X116238456Y-106518181D01*
X116238455Y-106518176D01*
X116231219Y-106491802D01*
X116227332Y-106484976D01*
X116181894Y-106405181D01*
X116181890Y-106405176D01*
X116181888Y-106405172D01*
X116136133Y-106352368D01*
X116103359Y-106320743D01*
X116015024Y-106274535D01*
X116015023Y-106274534D01*
X116015022Y-106274534D01*
X116015022Y-106274533D01*
X115947990Y-106254851D01*
X115947978Y-106254848D01*
X115876001Y-106244500D01*
X115876000Y-106244500D01*
X115124000Y-106244500D01*
X115056961Y-106224815D01*
X115011206Y-106172011D01*
X115000000Y-106120500D01*
X115000000Y-105374628D01*
X115800000Y-105374628D01*
X115814503Y-105447540D01*
X115814505Y-105447544D01*
X115869760Y-105530239D01*
X115952455Y-105585494D01*
X115952459Y-105585496D01*
X116025371Y-105599999D01*
X116025374Y-105600000D01*
X116600000Y-105600000D01*
X116600000Y-102750000D01*
X115800000Y-102750000D01*
X115800000Y-105374628D01*
X115000000Y-105374628D01*
X115000000Y-99625371D01*
X115800000Y-99625371D01*
X115800000Y-102250000D01*
X116600000Y-102250000D01*
X116600000Y-99400000D01*
X116025373Y-99400000D01*
X115952459Y-99414503D01*
X115952455Y-99414505D01*
X115869760Y-99469760D01*
X115814505Y-99552455D01*
X115814503Y-99552459D01*
X115800000Y-99625371D01*
X115000000Y-99625371D01*
X115000000Y-99124000D01*
X115019685Y-99056961D01*
X115072489Y-99011206D01*
X115124000Y-99000000D01*
X117376000Y-99000000D01*
X117443039Y-99019685D01*
G37*
%TD.AperFunction*%
%TD*%
%TA.AperFunction,Conductor*%
%TO.N,+3V3*%
G36*
X118443039Y-74519685D02*
G01*
X118488794Y-74572489D01*
X118500000Y-74624000D01*
X118500000Y-76876000D01*
X118480315Y-76943039D01*
X118427511Y-76988794D01*
X118376000Y-77000000D01*
X117012555Y-77000000D01*
X116945516Y-76980315D01*
X116913289Y-76950312D01*
X116874999Y-76899164D01*
X116832546Y-76842454D01*
X116832544Y-76842453D01*
X116832544Y-76842452D01*
X116717335Y-76756206D01*
X116717328Y-76756202D01*
X116582482Y-76705908D01*
X116582483Y-76705908D01*
X116522883Y-76699501D01*
X116522881Y-76699500D01*
X116522873Y-76699500D01*
X116522864Y-76699500D01*
X115477129Y-76699500D01*
X115477123Y-76699501D01*
X115417516Y-76705908D01*
X115282671Y-76756202D01*
X115282664Y-76756206D01*
X115167455Y-76842452D01*
X115086711Y-76950312D01*
X115030777Y-76992182D01*
X114987445Y-77000000D01*
X114512555Y-77000000D01*
X114445516Y-76980315D01*
X114413289Y-76950312D01*
X114374999Y-76899164D01*
X114332546Y-76842454D01*
X114332544Y-76842453D01*
X114332544Y-76842452D01*
X114217335Y-76756206D01*
X114217328Y-76756202D01*
X114082482Y-76705908D01*
X114082483Y-76705908D01*
X114022883Y-76699501D01*
X114022881Y-76699500D01*
X114022873Y-76699500D01*
X114022864Y-76699500D01*
X112977129Y-76699500D01*
X112977123Y-76699501D01*
X112917516Y-76705908D01*
X112782671Y-76756202D01*
X112782664Y-76756206D01*
X112667455Y-76842452D01*
X112586711Y-76950312D01*
X112530777Y-76992182D01*
X112487445Y-77000000D01*
X110624000Y-77000000D01*
X110556961Y-76980315D01*
X110511206Y-76927511D01*
X110500000Y-76876000D01*
X110500000Y-76609842D01*
X110519685Y-76542803D01*
X110572489Y-76497048D01*
X110641647Y-76487104D01*
X110705203Y-76516129D01*
X110711681Y-76522161D01*
X110719759Y-76530239D01*
X110802455Y-76585494D01*
X110802459Y-76585496D01*
X110875371Y-76599999D01*
X110875374Y-76600000D01*
X111050000Y-76600000D01*
X111550000Y-76600000D01*
X111724626Y-76600000D01*
X111724628Y-76599999D01*
X111797540Y-76585496D01*
X111797544Y-76585494D01*
X111880239Y-76530239D01*
X111935494Y-76447544D01*
X111935496Y-76447540D01*
X111949999Y-76374628D01*
X111950000Y-76374626D01*
X111950000Y-75847844D01*
X112525000Y-75847844D01*
X112531401Y-75907372D01*
X112531403Y-75907379D01*
X112581645Y-76042086D01*
X112581649Y-76042093D01*
X112667809Y-76157187D01*
X112667812Y-76157190D01*
X112782906Y-76243350D01*
X112782913Y-76243354D01*
X112917620Y-76293596D01*
X112917627Y-76293598D01*
X112977155Y-76299999D01*
X112977172Y-76300000D01*
X113250000Y-76300000D01*
X113750000Y-76300000D01*
X114022828Y-76300000D01*
X114022844Y-76299999D01*
X114082372Y-76293598D01*
X114082379Y-76293596D01*
X114217086Y-76243354D01*
X114217093Y-76243350D01*
X114332187Y-76157190D01*
X114332190Y-76157187D01*
X114418350Y-76042093D01*
X114418354Y-76042086D01*
X114468596Y-75907379D01*
X114468598Y-75907372D01*
X114474999Y-75847844D01*
X115025000Y-75847844D01*
X115031401Y-75907372D01*
X115031403Y-75907379D01*
X115081645Y-76042086D01*
X115081649Y-76042093D01*
X115167809Y-76157187D01*
X115167812Y-76157190D01*
X115282906Y-76243350D01*
X115282913Y-76243354D01*
X115417620Y-76293596D01*
X115417627Y-76293598D01*
X115477155Y-76299999D01*
X115477172Y-76300000D01*
X115750000Y-76300000D01*
X116250000Y-76300000D01*
X116522828Y-76300000D01*
X116522844Y-76299999D01*
X116582372Y-76293598D01*
X116582379Y-76293596D01*
X116717086Y-76243354D01*
X116717093Y-76243350D01*
X116832187Y-76157190D01*
X116832190Y-76157187D01*
X116918350Y-76042093D01*
X116918354Y-76042086D01*
X116968596Y-75907379D01*
X116968598Y-75907372D01*
X116974999Y-75847844D01*
X116975000Y-75847827D01*
X116975000Y-75800000D01*
X116250000Y-75800000D01*
X116250000Y-76300000D01*
X115750000Y-76300000D01*
X115750000Y-75800000D01*
X115025000Y-75800000D01*
X115025000Y-75847844D01*
X114474999Y-75847844D01*
X114475000Y-75847827D01*
X114475000Y-75800000D01*
X113750000Y-75800000D01*
X113750000Y-76300000D01*
X113250000Y-76300000D01*
X113250000Y-75800000D01*
X112525000Y-75800000D01*
X112525000Y-75847844D01*
X111950000Y-75847844D01*
X111950000Y-75750000D01*
X111550000Y-75750000D01*
X111550000Y-76600000D01*
X111050000Y-76600000D01*
X111050000Y-75374000D01*
X111069685Y-75306961D01*
X111122489Y-75261206D01*
X111164094Y-75252155D01*
X112525000Y-75252155D01*
X112525000Y-75300000D01*
X113250000Y-75300000D01*
X113750000Y-75300000D01*
X114475000Y-75300000D01*
X114475000Y-75252172D01*
X114474999Y-75252155D01*
X115025000Y-75252155D01*
X115025000Y-75300000D01*
X115750000Y-75300000D01*
X116250000Y-75300000D01*
X116975000Y-75300000D01*
X116975000Y-75252172D01*
X116974999Y-75252155D01*
X116968598Y-75192627D01*
X116968596Y-75192620D01*
X116918354Y-75057913D01*
X116918350Y-75057906D01*
X116832190Y-74942812D01*
X116832187Y-74942809D01*
X116717093Y-74856649D01*
X116717086Y-74856645D01*
X116582379Y-74806403D01*
X116582372Y-74806401D01*
X116522844Y-74800000D01*
X116250000Y-74800000D01*
X116250000Y-75300000D01*
X115750000Y-75300000D01*
X115750000Y-74800000D01*
X115477155Y-74800000D01*
X115417627Y-74806401D01*
X115417620Y-74806403D01*
X115282913Y-74856645D01*
X115282906Y-74856649D01*
X115167812Y-74942809D01*
X115167809Y-74942812D01*
X115081649Y-75057906D01*
X115081645Y-75057913D01*
X115031403Y-75192620D01*
X115031401Y-75192627D01*
X115025000Y-75252155D01*
X114474999Y-75252155D01*
X114468598Y-75192627D01*
X114468596Y-75192620D01*
X114418354Y-75057913D01*
X114418350Y-75057906D01*
X114332190Y-74942812D01*
X114332187Y-74942809D01*
X114217093Y-74856649D01*
X114217086Y-74856645D01*
X114082379Y-74806403D01*
X114082372Y-74806401D01*
X114022844Y-74800000D01*
X113750000Y-74800000D01*
X113750000Y-75300000D01*
X113250000Y-75300000D01*
X113250000Y-74800000D01*
X112977155Y-74800000D01*
X112917627Y-74806401D01*
X112917620Y-74806403D01*
X112782913Y-74856645D01*
X112782906Y-74856649D01*
X112667812Y-74942809D01*
X112667809Y-74942812D01*
X112581649Y-75057906D01*
X112581645Y-75057913D01*
X112531403Y-75192620D01*
X112531401Y-75192627D01*
X112525000Y-75252155D01*
X111164094Y-75252155D01*
X111174000Y-75250000D01*
X111950000Y-75250000D01*
X111950000Y-74624000D01*
X111969685Y-74556961D01*
X112022489Y-74511206D01*
X112074000Y-74500000D01*
X118376000Y-74500000D01*
X118443039Y-74519685D01*
G37*
%TD.AperFunction*%
%TD*%
%TA.AperFunction,Conductor*%
%TO.N,GND*%
G36*
X120943039Y-106519685D02*
G01*
X120988794Y-106572489D01*
X121000000Y-106624000D01*
X121000000Y-117736591D01*
X120980315Y-117803630D01*
X120927511Y-117849385D01*
X120876000Y-117860591D01*
X119124000Y-117860591D01*
X119056961Y-117840906D01*
X119011206Y-117788102D01*
X119000000Y-117736591D01*
X119000000Y-117732967D01*
X119000325Y-117724001D01*
X119000500Y-117721587D01*
X119000500Y-117278415D01*
X119000325Y-117276002D01*
X119000000Y-117267035D01*
X119000000Y-114500000D01*
X117500000Y-114500000D01*
X117500000Y-117736591D01*
X117480315Y-117803630D01*
X117427511Y-117849385D01*
X117376000Y-117860591D01*
X117263844Y-117860591D01*
X117136549Y-117894699D01*
X117022423Y-117960591D01*
X117022420Y-117960593D01*
X117019333Y-117963681D01*
X117016087Y-117965453D01*
X117015977Y-117965538D01*
X117015963Y-117965520D01*
X116958010Y-117997166D01*
X116931652Y-118000000D01*
X116124000Y-118000000D01*
X116056961Y-117980315D01*
X116011206Y-117927511D01*
X116000000Y-117876000D01*
X116000000Y-116772395D01*
X116019685Y-116705356D01*
X116055112Y-116669291D01*
X116075598Y-116655603D01*
X116075597Y-116655603D01*
X116075601Y-116655601D01*
X116130966Y-116572740D01*
X116145500Y-116499674D01*
X116145500Y-114900326D01*
X116145500Y-114900323D01*
X116145499Y-114900321D01*
X116130967Y-114827264D01*
X116130966Y-114827260D01*
X116075601Y-114744399D01*
X115992740Y-114689034D01*
X115992739Y-114689033D01*
X115992735Y-114689032D01*
X115919677Y-114674500D01*
X115919674Y-114674500D01*
X115270326Y-114674500D01*
X115270323Y-114674500D01*
X115197264Y-114689032D01*
X115197260Y-114689033D01*
X115114399Y-114744399D01*
X115059033Y-114827260D01*
X115059032Y-114827263D01*
X115044526Y-114900192D01*
X115012141Y-114962103D01*
X114951425Y-114996677D01*
X114922909Y-115000000D01*
X113124000Y-115000000D01*
X113056961Y-114980315D01*
X113011206Y-114927511D01*
X113000000Y-114876000D01*
X113000000Y-111124000D01*
X113019685Y-111056961D01*
X113072489Y-111011206D01*
X113124000Y-111000000D01*
X114922909Y-111000000D01*
X114989948Y-111019685D01*
X115035703Y-111072489D01*
X115044526Y-111099808D01*
X115059032Y-111172736D01*
X115059033Y-111172739D01*
X115059034Y-111172740D01*
X115114399Y-111255601D01*
X115197260Y-111310966D01*
X115197264Y-111310967D01*
X115270321Y-111325499D01*
X115270324Y-111325500D01*
X115270326Y-111325500D01*
X115919676Y-111325500D01*
X115919677Y-111325499D01*
X115992740Y-111310966D01*
X116075601Y-111255601D01*
X116126898Y-111178827D01*
X116180509Y-111134023D01*
X116249834Y-111125316D01*
X116312862Y-111155470D01*
X116333100Y-111178826D01*
X116384399Y-111255601D01*
X116467260Y-111310966D01*
X116467264Y-111310967D01*
X116540321Y-111325499D01*
X116540324Y-111325500D01*
X116540326Y-111325500D01*
X117189676Y-111325500D01*
X117189677Y-111325499D01*
X117262740Y-111310966D01*
X117345601Y-111255601D01*
X117396898Y-111178827D01*
X117450509Y-111134023D01*
X117519834Y-111125316D01*
X117582862Y-111155470D01*
X117603100Y-111178826D01*
X117654399Y-111255601D01*
X117737260Y-111310966D01*
X117737264Y-111310967D01*
X117810321Y-111325499D01*
X117810324Y-111325500D01*
X117810326Y-111325500D01*
X118459676Y-111325500D01*
X118459677Y-111325499D01*
X118532740Y-111310966D01*
X118615601Y-111255601D01*
X118666898Y-111178827D01*
X118720509Y-111134023D01*
X118789834Y-111125316D01*
X118852862Y-111155470D01*
X118873100Y-111178826D01*
X118924399Y-111255601D01*
X119007260Y-111310966D01*
X119007264Y-111310967D01*
X119080321Y-111325499D01*
X119080324Y-111325500D01*
X119080326Y-111325500D01*
X119729676Y-111325500D01*
X119729677Y-111325499D01*
X119802740Y-111310966D01*
X119885601Y-111255601D01*
X119940966Y-111172740D01*
X119955500Y-111099674D01*
X119955500Y-109500326D01*
X119952383Y-109484656D01*
X119950000Y-109460463D01*
X119950000Y-108947082D01*
X119962600Y-108892621D01*
X120009581Y-108796520D01*
X120009580Y-108796520D01*
X120009582Y-108796518D01*
X120020500Y-108721582D01*
X120020500Y-108278418D01*
X120009582Y-108203482D01*
X119962599Y-108107377D01*
X119950000Y-108052917D01*
X119950000Y-107426625D01*
X119962598Y-107372167D01*
X119999582Y-107296518D01*
X120010500Y-107221582D01*
X120010500Y-106778418D01*
X119999582Y-106703482D01*
X119997635Y-106699500D01*
X119987350Y-106678461D01*
X119975590Y-106609588D01*
X120002933Y-106545291D01*
X120060697Y-106505983D01*
X120098750Y-106500000D01*
X120876000Y-106500000D01*
X120943039Y-106519685D01*
G37*
%TD.AperFunction*%
%TD*%
%TA.AperFunction,Conductor*%
%TO.N,Net-(D1-K)*%
G36*
X101361647Y-72519685D02*
G01*
X101407402Y-72572489D01*
X101417346Y-72641647D01*
X101388321Y-72705203D01*
X101368919Y-72723266D01*
X101342812Y-72742809D01*
X101342809Y-72742812D01*
X101256649Y-72857906D01*
X101256645Y-72857913D01*
X101206403Y-72992620D01*
X101206401Y-72992627D01*
X101200000Y-73052155D01*
X101200000Y-73150000D01*
X102800000Y-73150000D01*
X102800000Y-73052172D01*
X102799999Y-73052155D01*
X102793598Y-72992627D01*
X102793596Y-72992620D01*
X102743354Y-72857913D01*
X102743350Y-72857906D01*
X102657190Y-72742812D01*
X102657187Y-72742809D01*
X102631081Y-72723266D01*
X102589210Y-72667332D01*
X102584226Y-72597641D01*
X102617712Y-72536318D01*
X102679035Y-72502834D01*
X102705392Y-72500000D01*
X104294608Y-72500000D01*
X104361647Y-72519685D01*
X104407402Y-72572489D01*
X104417346Y-72641647D01*
X104388321Y-72705203D01*
X104368919Y-72723266D01*
X104342812Y-72742809D01*
X104342809Y-72742812D01*
X104256649Y-72857906D01*
X104256645Y-72857913D01*
X104206403Y-72992620D01*
X104206401Y-72992627D01*
X104200000Y-73052155D01*
X104200000Y-73150000D01*
X105800000Y-73150000D01*
X105800000Y-73052172D01*
X105799999Y-73052155D01*
X105793598Y-72992627D01*
X105793596Y-72992620D01*
X105743354Y-72857913D01*
X105743350Y-72857906D01*
X105657190Y-72742812D01*
X105657187Y-72742809D01*
X105631081Y-72723266D01*
X105589210Y-72667332D01*
X105584226Y-72597641D01*
X105617712Y-72536318D01*
X105679035Y-72502834D01*
X105705392Y-72500000D01*
X106376000Y-72500000D01*
X106443039Y-72519685D01*
X106488794Y-72572489D01*
X106500000Y-72624000D01*
X106500000Y-74192028D01*
X106480315Y-74259067D01*
X106437360Y-74299782D01*
X106405178Y-74318107D01*
X106405173Y-74318111D01*
X106352371Y-74363863D01*
X106320743Y-74396640D01*
X106274534Y-74484977D01*
X106274533Y-74484977D01*
X106254851Y-74552009D01*
X106254848Y-74552021D01*
X106244500Y-74623998D01*
X106244500Y-75936989D01*
X106224815Y-76004028D01*
X106172011Y-76049783D01*
X106102853Y-76059727D01*
X106064206Y-76047474D01*
X106000147Y-76014834D01*
X106000144Y-76014833D01*
X105906486Y-76000000D01*
X105612500Y-76000000D01*
X105612500Y-76676000D01*
X105592815Y-76743039D01*
X105540011Y-76788794D01*
X105488500Y-76800000D01*
X104753410Y-76800000D01*
X104700300Y-76788051D01*
X104693755Y-76784949D01*
X104671784Y-76774535D01*
X104656340Y-76770000D01*
X104604746Y-76754850D01*
X104604738Y-76754848D01*
X104532761Y-76744500D01*
X104532760Y-76744500D01*
X104136817Y-76744500D01*
X104136806Y-76744500D01*
X104136803Y-76744501D01*
X104095047Y-76747937D01*
X104095022Y-76747941D01*
X104055033Y-76754568D01*
X104040727Y-76757360D01*
X104036273Y-76759338D01*
X103985969Y-76770000D01*
X103004592Y-76770000D01*
X102969657Y-76764977D01*
X102935172Y-76754851D01*
X102935160Y-76754848D01*
X102863183Y-76744500D01*
X102863182Y-76744500D01*
X102596686Y-76744500D01*
X102596674Y-76744500D01*
X102529099Y-76753602D01*
X102529092Y-76753603D01*
X102529089Y-76753604D01*
X102524544Y-76754851D01*
X102465814Y-76770962D01*
X102465800Y-76770967D01*
X102427276Y-76784946D01*
X102427271Y-76784948D01*
X102427270Y-76784949D01*
X102413794Y-76794666D01*
X102347906Y-76817910D01*
X102279909Y-76801842D01*
X102266958Y-76793355D01*
X102260865Y-76788794D01*
X102237052Y-76770967D01*
X102217330Y-76756203D01*
X102217328Y-76756202D01*
X102082482Y-76705908D01*
X102082483Y-76705908D01*
X102022883Y-76699501D01*
X102022881Y-76699500D01*
X102022873Y-76699500D01*
X102022864Y-76699500D01*
X100977129Y-76699500D01*
X100977123Y-76699501D01*
X100917516Y-76705908D01*
X100782671Y-76756202D01*
X100782668Y-76756204D01*
X100698311Y-76819354D01*
X100632846Y-76843771D01*
X100564573Y-76828919D01*
X100515168Y-76779514D01*
X100500000Y-76720087D01*
X100500000Y-76279287D01*
X100519685Y-76212248D01*
X100572489Y-76166493D01*
X100641647Y-76156549D01*
X100698312Y-76180021D01*
X100782910Y-76243352D01*
X100782913Y-76243354D01*
X100917620Y-76293596D01*
X100917627Y-76293598D01*
X100977155Y-76299999D01*
X100977172Y-76300000D01*
X101250000Y-76300000D01*
X101750000Y-76300000D01*
X102022828Y-76300000D01*
X104460851Y-76300000D01*
X105112500Y-76300000D01*
X105112500Y-76000000D01*
X104818520Y-76000000D01*
X104724850Y-76014835D01*
X104724844Y-76014837D01*
X104611958Y-76072356D01*
X104611949Y-76072363D01*
X104522363Y-76161949D01*
X104522360Y-76161953D01*
X104464833Y-76274856D01*
X104460851Y-76300000D01*
X102022828Y-76300000D01*
X102022844Y-76299999D01*
X102082372Y-76293598D01*
X102082379Y-76293596D01*
X102145646Y-76269999D01*
X102952561Y-76269999D01*
X102952561Y-76270000D01*
X103250000Y-76270000D01*
X103750000Y-76270000D01*
X104047438Y-76270000D01*
X104045535Y-76257983D01*
X103989447Y-76147906D01*
X103989444Y-76147901D01*
X103902098Y-76060555D01*
X103902093Y-76060551D01*
X103792018Y-76004465D01*
X103750000Y-75997809D01*
X103750000Y-76270000D01*
X103250000Y-76270000D01*
X103250000Y-75997809D01*
X103207984Y-76004463D01*
X103097906Y-76060551D01*
X103097901Y-76060555D01*
X103010555Y-76147901D01*
X103010550Y-76147908D01*
X102954466Y-76257977D01*
X102954465Y-76257980D01*
X102952561Y-76269999D01*
X102145646Y-76269999D01*
X102217086Y-76243354D01*
X102217093Y-76243350D01*
X102332187Y-76157190D01*
X102332190Y-76157187D01*
X102418350Y-76042093D01*
X102418354Y-76042086D01*
X102468596Y-75907379D01*
X102468598Y-75907372D01*
X102474999Y-75847844D01*
X102475000Y-75847827D01*
X102475000Y-75800000D01*
X101750000Y-75800000D01*
X101750000Y-76300000D01*
X101250000Y-76300000D01*
X101250000Y-75300000D01*
X101750000Y-75300000D01*
X102475000Y-75300000D01*
X102475000Y-75252172D01*
X102474999Y-75252155D01*
X102468598Y-75192627D01*
X102468596Y-75192620D01*
X102418354Y-75057913D01*
X102418350Y-75057906D01*
X102332190Y-74942812D01*
X102332187Y-74942809D01*
X102217093Y-74856649D01*
X102217086Y-74856645D01*
X102082379Y-74806403D01*
X102082372Y-74806401D01*
X102022844Y-74800000D01*
X101750000Y-74800000D01*
X101750000Y-75300000D01*
X101250000Y-75300000D01*
X101250000Y-74800000D01*
X100977155Y-74800000D01*
X100917627Y-74806401D01*
X100917620Y-74806403D01*
X100782913Y-74856645D01*
X100782906Y-74856649D01*
X100698311Y-74919978D01*
X100632847Y-74944396D01*
X100564574Y-74929545D01*
X100515168Y-74880140D01*
X100500000Y-74820712D01*
X100500000Y-73747844D01*
X101200000Y-73747844D01*
X101206401Y-73807372D01*
X101206403Y-73807379D01*
X101256645Y-73942086D01*
X101256649Y-73942093D01*
X101342809Y-74057187D01*
X101342812Y-74057190D01*
X101457906Y-74143350D01*
X101457913Y-74143354D01*
X101592620Y-74193596D01*
X101592627Y-74193598D01*
X101652155Y-74199999D01*
X101652172Y-74200000D01*
X101750000Y-74200000D01*
X102250000Y-74200000D01*
X102347828Y-74200000D01*
X102347844Y-74199999D01*
X102407372Y-74193598D01*
X102407379Y-74193596D01*
X102542086Y-74143354D01*
X102542093Y-74143350D01*
X102657187Y-74057190D01*
X102657190Y-74057187D01*
X102743350Y-73942093D01*
X102743354Y-73942086D01*
X102793596Y-73807379D01*
X102793598Y-73807372D01*
X102799999Y-73747844D01*
X104200000Y-73747844D01*
X104206401Y-73807372D01*
X104206403Y-73807379D01*
X104256645Y-73942086D01*
X104256649Y-73942093D01*
X104342809Y-74057187D01*
X104342812Y-74057190D01*
X104457906Y-74143350D01*
X104457913Y-74143354D01*
X104592620Y-74193596D01*
X104592627Y-74193598D01*
X104652155Y-74199999D01*
X104652172Y-74200000D01*
X104750000Y-74200000D01*
X105250000Y-74200000D01*
X105347828Y-74200000D01*
X105347844Y-74199999D01*
X105407372Y-74193598D01*
X105407379Y-74193596D01*
X105542086Y-74143354D01*
X105542093Y-74143350D01*
X105657187Y-74057190D01*
X105657190Y-74057187D01*
X105743350Y-73942093D01*
X105743354Y-73942086D01*
X105793596Y-73807379D01*
X105793598Y-73807372D01*
X105799999Y-73747844D01*
X105800000Y-73747827D01*
X105800000Y-73650000D01*
X105250000Y-73650000D01*
X105250000Y-74200000D01*
X104750000Y-74200000D01*
X104750000Y-73650000D01*
X104200000Y-73650000D01*
X104200000Y-73747844D01*
X102799999Y-73747844D01*
X102800000Y-73747827D01*
X102800000Y-73650000D01*
X102250000Y-73650000D01*
X102250000Y-74200000D01*
X101750000Y-74200000D01*
X101750000Y-73650000D01*
X101200000Y-73650000D01*
X101200000Y-73747844D01*
X100500000Y-73747844D01*
X100500000Y-72624000D01*
X100519685Y-72556961D01*
X100572489Y-72511206D01*
X100624000Y-72500000D01*
X101294608Y-72500000D01*
X101361647Y-72519685D01*
G37*
%TD.AperFunction*%
%TD*%
%TA.AperFunction,Conductor*%
%TO.N,Net-(U2-VSENSE)*%
G36*
X104418616Y-78019685D02*
G01*
X104464371Y-78072489D01*
X104474315Y-78141647D01*
X104466834Y-78165246D01*
X104467849Y-78165576D01*
X104464834Y-78174853D01*
X104460851Y-78200000D01*
X105488500Y-78200000D01*
X105555539Y-78219685D01*
X105601294Y-78272489D01*
X105612500Y-78324000D01*
X105612500Y-78999999D01*
X105876000Y-78999999D01*
X105943039Y-79019684D01*
X105988794Y-79072488D01*
X106000000Y-79123999D01*
X106000000Y-79371136D01*
X105980315Y-79438175D01*
X105927511Y-79483930D01*
X105858353Y-79493874D01*
X105821540Y-79482537D01*
X105740000Y-79442674D01*
X105740000Y-80126000D01*
X105720315Y-80193039D01*
X105667511Y-80238794D01*
X105616000Y-80250000D01*
X104974147Y-80250000D01*
X104980903Y-80296375D01*
X104993206Y-80321541D01*
X105004964Y-80390414D01*
X104977620Y-80454711D01*
X104919855Y-80494018D01*
X104881805Y-80500000D01*
X104628863Y-80500000D01*
X104561824Y-80480315D01*
X104516069Y-80427511D01*
X104506125Y-80358353D01*
X104517462Y-80321540D01*
X104557324Y-80240000D01*
X103874000Y-80240000D01*
X103806961Y-80220315D01*
X103761206Y-80167511D01*
X103750000Y-80116000D01*
X103750000Y-79749999D01*
X104974145Y-79749999D01*
X104974146Y-79750000D01*
X105240000Y-79750000D01*
X105240000Y-79442674D01*
X105128191Y-79497334D01*
X105037336Y-79588189D01*
X104980903Y-79703626D01*
X104980901Y-79703629D01*
X104974145Y-79749999D01*
X103750000Y-79749999D01*
X103750000Y-79740000D01*
X104250000Y-79740000D01*
X104557323Y-79740000D01*
X104502663Y-79628189D01*
X104411810Y-79537336D01*
X104296373Y-79480903D01*
X104296370Y-79480901D01*
X104250000Y-79474145D01*
X104250000Y-79740000D01*
X103750000Y-79740000D01*
X103750000Y-79474147D01*
X103703624Y-79480903D01*
X103678459Y-79493206D01*
X103609586Y-79504964D01*
X103545289Y-79477620D01*
X103505982Y-79419855D01*
X103500000Y-79381805D01*
X103500000Y-78700000D01*
X104460851Y-78700000D01*
X104464833Y-78725143D01*
X104522360Y-78838046D01*
X104522363Y-78838050D01*
X104611949Y-78927636D01*
X104611953Y-78927639D01*
X104724855Y-78985166D01*
X104818514Y-78999999D01*
X105112499Y-78999999D01*
X105112500Y-78999998D01*
X105112500Y-78700000D01*
X104460851Y-78700000D01*
X103500000Y-78700000D01*
X103500000Y-78134499D01*
X103519685Y-78067460D01*
X103572489Y-78021705D01*
X103623999Y-78010499D01*
X103700734Y-78010499D01*
X103757392Y-78001526D01*
X103776788Y-78000000D01*
X104351577Y-78000000D01*
X104418616Y-78019685D01*
G37*
%TD.AperFunction*%
%TD*%
%TA.AperFunction,Conductor*%
%TO.N,+17V_SW*%
G36*
X113625761Y-106519685D02*
G01*
X113671516Y-106572489D01*
X113681460Y-106641647D01*
X113652435Y-106705203D01*
X113602055Y-106740182D01*
X113557913Y-106756645D01*
X113557906Y-106756649D01*
X113442812Y-106842809D01*
X113442809Y-106842812D01*
X113356649Y-106957906D01*
X113356645Y-106957913D01*
X113306403Y-107092620D01*
X113306401Y-107092627D01*
X113300000Y-107152155D01*
X113300000Y-107250000D01*
X114900000Y-107250000D01*
X114900000Y-107152172D01*
X114899999Y-107152155D01*
X114893598Y-107092627D01*
X114893596Y-107092620D01*
X114843354Y-106957913D01*
X114843350Y-106957906D01*
X114757190Y-106842812D01*
X114757187Y-106842809D01*
X114642093Y-106756649D01*
X114642086Y-106756645D01*
X114597945Y-106740182D01*
X114542011Y-106698311D01*
X114517594Y-106632847D01*
X114532445Y-106564574D01*
X114581851Y-106515168D01*
X114641278Y-106500000D01*
X115876000Y-106500000D01*
X115943039Y-106519685D01*
X115988794Y-106572489D01*
X116000000Y-106624000D01*
X116000000Y-109151000D01*
X115980315Y-109218039D01*
X115927511Y-109263794D01*
X115876000Y-109275000D01*
X115845000Y-109275000D01*
X115845000Y-110426000D01*
X115825315Y-110493039D01*
X115772511Y-110538794D01*
X115721000Y-110550000D01*
X115045000Y-110550000D01*
X115045000Y-110620500D01*
X115025315Y-110687539D01*
X114972511Y-110733294D01*
X114921000Y-110744500D01*
X114818256Y-110744500D01*
X114751217Y-110724815D01*
X114705462Y-110672011D01*
X114695518Y-110602853D01*
X114702075Y-110577165D01*
X114718916Y-110532012D01*
X114724999Y-110475428D01*
X114725000Y-110475427D01*
X114725000Y-110455000D01*
X113275001Y-110455000D01*
X113275001Y-110475439D01*
X113281082Y-110532009D01*
X113297925Y-110577166D01*
X113302910Y-110646857D01*
X113269426Y-110708181D01*
X113208103Y-110741666D01*
X113181744Y-110744500D01*
X113124000Y-110744500D01*
X113056961Y-110724815D01*
X113011206Y-110672011D01*
X113000000Y-110620500D01*
X113000000Y-109934571D01*
X113275000Y-109934571D01*
X113275000Y-109955000D01*
X113750000Y-109955000D01*
X114250000Y-109955000D01*
X114724999Y-109955000D01*
X114724999Y-109934566D01*
X114724998Y-109934560D01*
X114718918Y-109877992D01*
X114671186Y-109750018D01*
X114671184Y-109750015D01*
X114589329Y-109640670D01*
X114479984Y-109558815D01*
X114479983Y-109558814D01*
X114352010Y-109511083D01*
X114295428Y-109505000D01*
X114250000Y-109505000D01*
X114250000Y-109955000D01*
X113750000Y-109955000D01*
X113750000Y-109505000D01*
X113704567Y-109505000D01*
X113704558Y-109505001D01*
X113647992Y-109511081D01*
X113520018Y-109558813D01*
X113520015Y-109558815D01*
X113410670Y-109640670D01*
X113328815Y-109750015D01*
X113328814Y-109750016D01*
X113281083Y-109877989D01*
X113275000Y-109934571D01*
X113000000Y-109934571D01*
X113000000Y-109500371D01*
X115045000Y-109500371D01*
X115045000Y-110050000D01*
X115345000Y-110050000D01*
X115345000Y-109275000D01*
X115270373Y-109275000D01*
X115197459Y-109289503D01*
X115197455Y-109289505D01*
X115114760Y-109344760D01*
X115059505Y-109427455D01*
X115059503Y-109427459D01*
X115045000Y-109500371D01*
X113000000Y-109500371D01*
X113000000Y-107847844D01*
X113300000Y-107847844D01*
X113306401Y-107907372D01*
X113306403Y-107907379D01*
X113356645Y-108042086D01*
X113356649Y-108042093D01*
X113442809Y-108157187D01*
X113442812Y-108157190D01*
X113557906Y-108243350D01*
X113557913Y-108243354D01*
X113692620Y-108293596D01*
X113692627Y-108293598D01*
X113752155Y-108299999D01*
X113752172Y-108300000D01*
X113850000Y-108300000D01*
X114350000Y-108300000D01*
X114447828Y-108300000D01*
X114447844Y-108299999D01*
X114507372Y-108293598D01*
X114507379Y-108293596D01*
X114642086Y-108243354D01*
X114642093Y-108243350D01*
X114757187Y-108157190D01*
X114757190Y-108157187D01*
X114843350Y-108042093D01*
X114843354Y-108042086D01*
X114893596Y-107907379D01*
X114893598Y-107907372D01*
X114899999Y-107847844D01*
X114900000Y-107847827D01*
X114900000Y-107750000D01*
X114350000Y-107750000D01*
X114350000Y-108300000D01*
X113850000Y-108300000D01*
X113850000Y-107750000D01*
X113300000Y-107750000D01*
X113300000Y-107847844D01*
X113000000Y-107847844D01*
X113000000Y-106624000D01*
X113019685Y-106556961D01*
X113072489Y-106511206D01*
X113124000Y-106500000D01*
X113558722Y-106500000D01*
X113625761Y-106519685D01*
G37*
%TD.AperFunction*%
%TD*%
%TA.AperFunction,Conductor*%
%TO.N,+3V3*%
G36*
X114938176Y-121519685D02*
G01*
X114983931Y-121572489D01*
X114993875Y-121641647D01*
X114982538Y-121678460D01*
X114942675Y-121759999D01*
X114942676Y-121760000D01*
X116057324Y-121760000D01*
X116057324Y-121759999D01*
X116017462Y-121678460D01*
X116005704Y-121609587D01*
X116033047Y-121545290D01*
X116090811Y-121505983D01*
X116128863Y-121500000D01*
X116327545Y-121500000D01*
X116394584Y-121519685D01*
X116440339Y-121572489D01*
X116449846Y-121638612D01*
X116450382Y-121638655D01*
X116450194Y-121641034D01*
X116450283Y-121641647D01*
X116450020Y-121643390D01*
X116450000Y-121643516D01*
X116450000Y-121750000D01*
X117125500Y-121750000D01*
X117192539Y-121769685D01*
X117238294Y-121822489D01*
X117249500Y-121874000D01*
X117249501Y-122126000D01*
X117229817Y-122193039D01*
X117177013Y-122238794D01*
X117125501Y-122250000D01*
X116450001Y-122250000D01*
X116450001Y-122356479D01*
X116464835Y-122450149D01*
X116464837Y-122450155D01*
X116522356Y-122563041D01*
X116522363Y-122563050D01*
X116611949Y-122652636D01*
X116611953Y-122652639D01*
X116724855Y-122710166D01*
X116742464Y-122712955D01*
X116805599Y-122742884D01*
X116842530Y-122802196D01*
X116841532Y-122872058D01*
X116802922Y-122930291D01*
X116761390Y-122953357D01*
X116757986Y-122954463D01*
X116647906Y-123010552D01*
X116647901Y-123010555D01*
X116560555Y-123097901D01*
X116560551Y-123097906D01*
X116504463Y-123207984D01*
X116497809Y-123250000D01*
X117146000Y-123250000D01*
X117213039Y-123269685D01*
X117258794Y-123322489D01*
X117270000Y-123374000D01*
X117270000Y-124047437D01*
X117282016Y-124045535D01*
X117392093Y-123989448D01*
X117411963Y-123969578D01*
X117473286Y-123936092D01*
X117542977Y-123941075D01*
X117587326Y-123969576D01*
X117607609Y-123989859D01*
X117717825Y-124046017D01*
X117717826Y-124046017D01*
X117717828Y-124046018D01*
X117752947Y-124051579D01*
X117809265Y-124060500D01*
X118150734Y-124060499D01*
X118150739Y-124060499D01*
X118150739Y-124060498D01*
X118196454Y-124053258D01*
X118242170Y-124046018D01*
X118242172Y-124046017D01*
X118242175Y-124046017D01*
X118274273Y-124029662D01*
X118295170Y-124019015D01*
X118351464Y-124005500D01*
X119648536Y-124005500D01*
X119704830Y-124019014D01*
X119757825Y-124046017D01*
X119757826Y-124046017D01*
X119757828Y-124046018D01*
X119792947Y-124051579D01*
X119849265Y-124060500D01*
X120190734Y-124060499D01*
X120190739Y-124060499D01*
X120190739Y-124060498D01*
X120236454Y-124053258D01*
X120282170Y-124046018D01*
X120282171Y-124046018D01*
X120282172Y-124046017D01*
X120282175Y-124046017D01*
X120392391Y-123989859D01*
X120412671Y-123969578D01*
X120473990Y-123936093D01*
X120543682Y-123941075D01*
X120588034Y-123969577D01*
X120607901Y-123989444D01*
X120607906Y-123989447D01*
X120717983Y-124045535D01*
X120730000Y-124047438D01*
X120730000Y-124047437D01*
X121230000Y-124047437D01*
X121242016Y-124045535D01*
X121352093Y-123989447D01*
X121352098Y-123989444D01*
X121439444Y-123902098D01*
X121439448Y-123902093D01*
X121495536Y-123792015D01*
X121502191Y-123750000D01*
X121230000Y-123750000D01*
X121230000Y-124047437D01*
X120730000Y-124047437D01*
X120730000Y-123374000D01*
X120749685Y-123306961D01*
X120802489Y-123261206D01*
X120854000Y-123250000D01*
X121502190Y-123250000D01*
X121495536Y-123207984D01*
X121439448Y-123097906D01*
X121439444Y-123097901D01*
X121352098Y-123010555D01*
X121352093Y-123010551D01*
X121242014Y-122954462D01*
X121238608Y-122953356D01*
X121235001Y-122950889D01*
X121233324Y-122950035D01*
X121233434Y-122949818D01*
X121180934Y-122913915D01*
X121153740Y-122849555D01*
X121165657Y-122780710D01*
X121212904Y-122729236D01*
X121257539Y-122712953D01*
X121275148Y-122710164D01*
X121275155Y-122710162D01*
X121388041Y-122652643D01*
X121388050Y-122652636D01*
X121477636Y-122563050D01*
X121477639Y-122563046D01*
X121535166Y-122450144D01*
X121550000Y-122356486D01*
X121550000Y-122260000D01*
X121942676Y-122260000D01*
X121997336Y-122371810D01*
X122088189Y-122462663D01*
X122203625Y-122519096D01*
X122250000Y-122525852D01*
X122250000Y-122260000D01*
X121942676Y-122260000D01*
X121550000Y-122260000D01*
X121550000Y-122250000D01*
X120874500Y-122250000D01*
X120807461Y-122230315D01*
X120761706Y-122177511D01*
X120750500Y-122126000D01*
X120750499Y-121874000D01*
X120770183Y-121806961D01*
X120822987Y-121761206D01*
X120874499Y-121750000D01*
X121549999Y-121750000D01*
X121549999Y-121643522D01*
X121549980Y-121643403D01*
X121549986Y-121643354D01*
X121549617Y-121638659D01*
X121550602Y-121638581D01*
X121558932Y-121574109D01*
X121603926Y-121520655D01*
X121670677Y-121500013D01*
X121672453Y-121500000D01*
X121871137Y-121500000D01*
X121938176Y-121519685D01*
X121983931Y-121572489D01*
X121993875Y-121641647D01*
X121982538Y-121678460D01*
X121942675Y-121759999D01*
X121942676Y-121760000D01*
X122626000Y-121760000D01*
X122693039Y-121779685D01*
X122738794Y-121832489D01*
X122750000Y-121884000D01*
X122750000Y-122525852D01*
X122796370Y-122519097D01*
X122796372Y-122519096D01*
X122911810Y-122462663D01*
X122933319Y-122441155D01*
X122994642Y-122407670D01*
X123064334Y-122412654D01*
X123120267Y-122454526D01*
X123144684Y-122519990D01*
X123145000Y-122528836D01*
X123145000Y-124475500D01*
X123125315Y-124542539D01*
X123072511Y-124588294D01*
X123021000Y-124599500D01*
X113624000Y-124599500D01*
X113556961Y-124579815D01*
X113511206Y-124527011D01*
X113500000Y-124475500D01*
X113500000Y-123750000D01*
X116497809Y-123750000D01*
X116504463Y-123792015D01*
X116560551Y-123902093D01*
X116560555Y-123902098D01*
X116647901Y-123989444D01*
X116647906Y-123989447D01*
X116757983Y-124045535D01*
X116770000Y-124047438D01*
X116770000Y-123750000D01*
X116497809Y-123750000D01*
X113500000Y-123750000D01*
X113500000Y-122618194D01*
X113519685Y-122551155D01*
X113572489Y-122505400D01*
X113641647Y-122495456D01*
X113678461Y-122506794D01*
X113703624Y-122519096D01*
X113750000Y-122525852D01*
X114250000Y-122525852D01*
X114296370Y-122519097D01*
X114296372Y-122519096D01*
X114411810Y-122462663D01*
X114502663Y-122371810D01*
X114557324Y-122260000D01*
X114942676Y-122260000D01*
X114997336Y-122371810D01*
X115088189Y-122462663D01*
X115203625Y-122519096D01*
X115250000Y-122525852D01*
X115750000Y-122525852D01*
X115796370Y-122519097D01*
X115796372Y-122519096D01*
X115911810Y-122462663D01*
X116002663Y-122371810D01*
X116057324Y-122260000D01*
X115750000Y-122260000D01*
X115750000Y-122525852D01*
X115250000Y-122525852D01*
X115250000Y-122260000D01*
X114942676Y-122260000D01*
X114557324Y-122260000D01*
X114250000Y-122260000D01*
X114250000Y-122525852D01*
X113750000Y-122525852D01*
X113750000Y-121884000D01*
X113769685Y-121816961D01*
X113822489Y-121771206D01*
X113874000Y-121760000D01*
X114557324Y-121760000D01*
X114557324Y-121759999D01*
X114517462Y-121678460D01*
X114505704Y-121609587D01*
X114533047Y-121545290D01*
X114590811Y-121505983D01*
X114628863Y-121500000D01*
X114871137Y-121500000D01*
X114938176Y-121519685D01*
G37*
%TD.AperFunction*%
%TD*%
%TA.AperFunction,Conductor*%
%TO.N,GND*%
G36*
X110878361Y-106517683D02*
G01*
X110945014Y-106538641D01*
X110989755Y-106592307D01*
X111000000Y-106641661D01*
X111000000Y-117876000D01*
X110980315Y-117943039D01*
X110927511Y-117988794D01*
X110876000Y-118000000D01*
X109124000Y-118000000D01*
X109056961Y-117980315D01*
X109011206Y-117927511D01*
X109000000Y-117876000D01*
X109000000Y-117802631D01*
X109001296Y-117784753D01*
X109010500Y-117721582D01*
X109010500Y-117278424D01*
X109010500Y-117278418D01*
X109001294Y-117215234D01*
X109000000Y-117197367D01*
X109000000Y-114500000D01*
X107500000Y-114500000D01*
X107500000Y-117876000D01*
X107480315Y-117943039D01*
X107427511Y-117988794D01*
X107376000Y-118000000D01*
X106124000Y-118000000D01*
X106056961Y-117980315D01*
X106011206Y-117927511D01*
X106000000Y-117876000D01*
X106000000Y-116772395D01*
X106019685Y-116705356D01*
X106055112Y-116669291D01*
X106075598Y-116655603D01*
X106075597Y-116655603D01*
X106075601Y-116655601D01*
X106130966Y-116572740D01*
X106145500Y-116499674D01*
X106145500Y-114900326D01*
X106145500Y-114900323D01*
X106145499Y-114900321D01*
X106130967Y-114827264D01*
X106130966Y-114827260D01*
X106075601Y-114744399D01*
X105992740Y-114689034D01*
X105992739Y-114689033D01*
X105992735Y-114689032D01*
X105919677Y-114674500D01*
X105919674Y-114674500D01*
X105270326Y-114674500D01*
X105270323Y-114674500D01*
X105197264Y-114689032D01*
X105197260Y-114689033D01*
X105114399Y-114744399D01*
X105059033Y-114827260D01*
X105059032Y-114827263D01*
X105044526Y-114900192D01*
X105012141Y-114962103D01*
X104951425Y-114996677D01*
X104922909Y-115000000D01*
X103124000Y-115000000D01*
X103056961Y-114980315D01*
X103011206Y-114927511D01*
X103000000Y-114876000D01*
X103000000Y-111124000D01*
X103019685Y-111056961D01*
X103072489Y-111011206D01*
X103124000Y-111000000D01*
X104922909Y-111000000D01*
X104989948Y-111019685D01*
X105035703Y-111072489D01*
X105044526Y-111099808D01*
X105059032Y-111172736D01*
X105059033Y-111172739D01*
X105059034Y-111172740D01*
X105114399Y-111255601D01*
X105197260Y-111310966D01*
X105197264Y-111310967D01*
X105270321Y-111325499D01*
X105270324Y-111325500D01*
X105270326Y-111325500D01*
X105919676Y-111325500D01*
X105919677Y-111325499D01*
X105992740Y-111310966D01*
X106075601Y-111255601D01*
X106126898Y-111178827D01*
X106180509Y-111134023D01*
X106249834Y-111125316D01*
X106312862Y-111155470D01*
X106333100Y-111178826D01*
X106384399Y-111255601D01*
X106467260Y-111310966D01*
X106467264Y-111310967D01*
X106540321Y-111325499D01*
X106540324Y-111325500D01*
X106540326Y-111325500D01*
X107189676Y-111325500D01*
X107189677Y-111325499D01*
X107262740Y-111310966D01*
X107345601Y-111255601D01*
X107396898Y-111178827D01*
X107450509Y-111134023D01*
X107519834Y-111125316D01*
X107582862Y-111155470D01*
X107603100Y-111178826D01*
X107654399Y-111255601D01*
X107737260Y-111310966D01*
X107737264Y-111310967D01*
X107810321Y-111325499D01*
X107810324Y-111325500D01*
X107810326Y-111325500D01*
X108459676Y-111325500D01*
X108459677Y-111325499D01*
X108532740Y-111310966D01*
X108615601Y-111255601D01*
X108666898Y-111178827D01*
X108720509Y-111134023D01*
X108789834Y-111125316D01*
X108852862Y-111155470D01*
X108873100Y-111178826D01*
X108924399Y-111255601D01*
X109007260Y-111310966D01*
X109007264Y-111310967D01*
X109080321Y-111325499D01*
X109080324Y-111325500D01*
X109080326Y-111325500D01*
X109729676Y-111325500D01*
X109729677Y-111325499D01*
X109802740Y-111310966D01*
X109885601Y-111255601D01*
X109940966Y-111172740D01*
X109955500Y-111099674D01*
X109955500Y-109500326D01*
X109952383Y-109484656D01*
X109950000Y-109460463D01*
X109950000Y-108906170D01*
X109962599Y-108851712D01*
X109989582Y-108796518D01*
X110000500Y-108721582D01*
X110000500Y-108278418D01*
X109989582Y-108203482D01*
X109988316Y-108200892D01*
X109962600Y-108148288D01*
X109950000Y-108093828D01*
X109950000Y-107426625D01*
X109962598Y-107372167D01*
X109999582Y-107296518D01*
X110010500Y-107221582D01*
X110010500Y-106778418D01*
X109999582Y-106703482D01*
X109988758Y-106681342D01*
X109976999Y-106612473D01*
X110004341Y-106548175D01*
X110062105Y-106508867D01*
X110102519Y-106502905D01*
X110878361Y-106517683D01*
G37*
%TD.AperFunction*%
%TD*%
%TA.AperFunction,Conductor*%
%TO.N,+17V_SW*%
G36*
X105943039Y-106519685D02*
G01*
X105988794Y-106572489D01*
X106000000Y-106624000D01*
X106000000Y-109151000D01*
X105980315Y-109218039D01*
X105927511Y-109263794D01*
X105876000Y-109275000D01*
X105845000Y-109275000D01*
X105845000Y-110426000D01*
X105825315Y-110493039D01*
X105772511Y-110538794D01*
X105721000Y-110550000D01*
X105045000Y-110550000D01*
X105045000Y-110620500D01*
X105025315Y-110687539D01*
X104972511Y-110733294D01*
X104921000Y-110744500D01*
X104825716Y-110744500D01*
X104758677Y-110724815D01*
X104712922Y-110672011D01*
X104702978Y-110602853D01*
X104709535Y-110577165D01*
X104718916Y-110552012D01*
X104724999Y-110495428D01*
X104725000Y-110495427D01*
X104725000Y-110475000D01*
X103275001Y-110475000D01*
X103275001Y-110495439D01*
X103281081Y-110552007D01*
X103290466Y-110577167D01*
X103295450Y-110646858D01*
X103261965Y-110708181D01*
X103200642Y-110741666D01*
X103174284Y-110744500D01*
X103124000Y-110744500D01*
X103056961Y-110724815D01*
X103011206Y-110672011D01*
X103000000Y-110620500D01*
X103000000Y-109954571D01*
X103275000Y-109954571D01*
X103275000Y-109975000D01*
X103750000Y-109975000D01*
X104250000Y-109975000D01*
X104724999Y-109975000D01*
X104724999Y-109954566D01*
X104724998Y-109954560D01*
X104718918Y-109897992D01*
X104671186Y-109770018D01*
X104671184Y-109770015D01*
X104589329Y-109660670D01*
X104479984Y-109578815D01*
X104479983Y-109578814D01*
X104352010Y-109531083D01*
X104295428Y-109525000D01*
X104250000Y-109525000D01*
X104250000Y-109975000D01*
X103750000Y-109975000D01*
X103750000Y-109525000D01*
X103704567Y-109525000D01*
X103704558Y-109525001D01*
X103647992Y-109531081D01*
X103520018Y-109578813D01*
X103520015Y-109578815D01*
X103410670Y-109660670D01*
X103328815Y-109770015D01*
X103328814Y-109770016D01*
X103281083Y-109897989D01*
X103275000Y-109954571D01*
X103000000Y-109954571D01*
X103000000Y-109500371D01*
X105045000Y-109500371D01*
X105045000Y-110050000D01*
X105345000Y-110050000D01*
X105345000Y-109275000D01*
X105270373Y-109275000D01*
X105197459Y-109289503D01*
X105197455Y-109289505D01*
X105114760Y-109344760D01*
X105059505Y-109427455D01*
X105059503Y-109427459D01*
X105045000Y-109500371D01*
X103000000Y-109500371D01*
X103000000Y-107847844D01*
X103300000Y-107847844D01*
X103306401Y-107907372D01*
X103306403Y-107907379D01*
X103356645Y-108042086D01*
X103356649Y-108042093D01*
X103442809Y-108157187D01*
X103442812Y-108157190D01*
X103557906Y-108243350D01*
X103557913Y-108243354D01*
X103692620Y-108293596D01*
X103692627Y-108293598D01*
X103752155Y-108299999D01*
X103752172Y-108300000D01*
X103850000Y-108300000D01*
X104350000Y-108300000D01*
X104447828Y-108300000D01*
X104447844Y-108299999D01*
X104507372Y-108293598D01*
X104507379Y-108293596D01*
X104642086Y-108243354D01*
X104642093Y-108243350D01*
X104757187Y-108157190D01*
X104757190Y-108157187D01*
X104843350Y-108042093D01*
X104843354Y-108042086D01*
X104893596Y-107907379D01*
X104893598Y-107907372D01*
X104899999Y-107847844D01*
X104900000Y-107847827D01*
X104900000Y-107750000D01*
X104350000Y-107750000D01*
X104350000Y-108300000D01*
X103850000Y-108300000D01*
X103850000Y-107750000D01*
X103300000Y-107750000D01*
X103300000Y-107847844D01*
X103000000Y-107847844D01*
X103000000Y-107009176D01*
X103019685Y-106942137D01*
X103036313Y-106921500D01*
X103192941Y-106764872D01*
X103254261Y-106731390D01*
X103323952Y-106736374D01*
X103379886Y-106778245D01*
X103404303Y-106843710D01*
X103389451Y-106911983D01*
X103379886Y-106926866D01*
X103356649Y-106957906D01*
X103356645Y-106957913D01*
X103306403Y-107092620D01*
X103306401Y-107092627D01*
X103300000Y-107152155D01*
X103300000Y-107250000D01*
X104900000Y-107250000D01*
X104900000Y-107152172D01*
X104899999Y-107152155D01*
X104893598Y-107092627D01*
X104893596Y-107092620D01*
X104843354Y-106957913D01*
X104843350Y-106957906D01*
X104757190Y-106842812D01*
X104757187Y-106842809D01*
X104642093Y-106756649D01*
X104642086Y-106756645D01*
X104597945Y-106740182D01*
X104542011Y-106698311D01*
X104517594Y-106632847D01*
X104532445Y-106564574D01*
X104581851Y-106515168D01*
X104641278Y-106500000D01*
X105876000Y-106500000D01*
X105943039Y-106519685D01*
G37*
%TD.AperFunction*%
%TD*%
%TA.AperFunction,Conductor*%
%TO.N,+17V*%
G36*
X118737539Y-55225185D02*
G01*
X118783294Y-55277989D01*
X118794500Y-55329500D01*
X118794500Y-65876007D01*
X118799197Y-65919686D01*
X118810397Y-65971174D01*
X118812890Y-65981372D01*
X118812891Y-65981375D01*
X118855899Y-66062083D01*
X118855901Y-66062086D01*
X118901660Y-66114895D01*
X118915492Y-66129012D01*
X118919246Y-66132843D01*
X118919247Y-66132844D01*
X118919249Y-66132845D01*
X118999059Y-66177488D01*
X118999063Y-66177490D01*
X119066102Y-66197175D01*
X119124000Y-66205500D01*
X119124004Y-66205500D01*
X134876000Y-66205500D01*
X134943039Y-66225185D01*
X134988794Y-66277989D01*
X135000000Y-66329500D01*
X135000000Y-66484533D01*
X134980315Y-66551572D01*
X134963684Y-66572212D01*
X134955446Y-66580450D01*
X134911132Y-66646768D01*
X134911131Y-66646770D01*
X134899500Y-66705247D01*
X134899500Y-68014752D01*
X134911131Y-68073229D01*
X134911132Y-68073230D01*
X134933602Y-68106858D01*
X134954480Y-68173535D01*
X134954500Y-68175749D01*
X134954500Y-68464308D01*
X134978712Y-68554672D01*
X134985200Y-68578885D01*
X134988313Y-68586401D01*
X134986448Y-68587173D01*
X135000000Y-68637746D01*
X135000000Y-69775500D01*
X134980315Y-69842539D01*
X134927511Y-69888294D01*
X134876000Y-69899500D01*
X134580247Y-69899500D01*
X134521770Y-69911131D01*
X134521769Y-69911132D01*
X134455446Y-69955448D01*
X134447214Y-69963681D01*
X134385891Y-69997166D01*
X134359533Y-70000000D01*
X126221588Y-70000000D01*
X126213477Y-69999734D01*
X126209907Y-69999500D01*
X125790095Y-69999500D01*
X125786542Y-69999734D01*
X125778430Y-70000000D01*
X109124000Y-70000000D01*
X109056961Y-69980315D01*
X109011206Y-69927511D01*
X109000000Y-69876000D01*
X109000000Y-67368445D01*
X109019685Y-67301406D01*
X109048955Y-67269733D01*
X109233483Y-67129459D01*
X109504684Y-66872563D01*
X109646804Y-66705247D01*
X122899500Y-66705247D01*
X122899500Y-68014752D01*
X122911131Y-68073229D01*
X122911132Y-68073230D01*
X122955447Y-68139552D01*
X123021769Y-68183867D01*
X123021770Y-68183868D01*
X123080247Y-68195499D01*
X123080250Y-68195500D01*
X123080252Y-68195500D01*
X123729750Y-68195500D01*
X123729751Y-68195499D01*
X123744568Y-68192552D01*
X123788229Y-68183868D01*
X123788229Y-68183867D01*
X123788231Y-68183867D01*
X123854552Y-68139552D01*
X123898867Y-68073231D01*
X123898867Y-68073229D01*
X123898868Y-68073229D01*
X123910499Y-68014752D01*
X123910500Y-68014750D01*
X123910500Y-67934500D01*
X123930185Y-67867461D01*
X123982989Y-67821706D01*
X124034500Y-67810500D01*
X124122035Y-67810500D01*
X124189074Y-67830185D01*
X124209716Y-67846819D01*
X124223386Y-67860489D01*
X124295595Y-67902179D01*
X124326114Y-67919800D01*
X124396233Y-67938587D01*
X124440691Y-67950499D01*
X124440694Y-67950499D01*
X124559306Y-67950499D01*
X124559309Y-67950499D01*
X124629429Y-67931710D01*
X124673885Y-67919800D01*
X124673887Y-67919799D01*
X124776614Y-67860489D01*
X124860489Y-67776614D01*
X124919799Y-67673887D01*
X124950499Y-67559309D01*
X124950499Y-67440691D01*
X124938587Y-67396233D01*
X124919800Y-67326114D01*
X124887245Y-67269729D01*
X124860489Y-67223386D01*
X124636614Y-66999511D01*
X124585250Y-66969856D01*
X124533888Y-66940201D01*
X124521780Y-66936957D01*
X124509673Y-66933713D01*
X124509670Y-66933712D01*
X124471478Y-66923478D01*
X124419309Y-66909500D01*
X124419308Y-66909500D01*
X124034500Y-66909500D01*
X123967461Y-66889815D01*
X123921706Y-66837011D01*
X123910500Y-66785500D01*
X123910500Y-66705249D01*
X123910499Y-66705247D01*
X128899500Y-66705247D01*
X128899500Y-68014752D01*
X128911131Y-68073229D01*
X128911132Y-68073230D01*
X128955447Y-68139552D01*
X129021769Y-68183867D01*
X129021770Y-68183868D01*
X129080247Y-68195499D01*
X129080250Y-68195500D01*
X129080252Y-68195500D01*
X129729750Y-68195500D01*
X129729751Y-68195499D01*
X129744568Y-68192552D01*
X129788229Y-68183868D01*
X129788229Y-68183867D01*
X129788231Y-68183867D01*
X129854552Y-68139552D01*
X129898867Y-68073231D01*
X129898867Y-68073229D01*
X129898868Y-68073229D01*
X129910499Y-68014752D01*
X129910500Y-68014750D01*
X129910500Y-67934500D01*
X129930185Y-67867461D01*
X129982989Y-67821706D01*
X130034500Y-67810500D01*
X130122035Y-67810500D01*
X130189074Y-67830185D01*
X130209716Y-67846819D01*
X130223386Y-67860489D01*
X130295595Y-67902179D01*
X130326114Y-67919800D01*
X130396233Y-67938587D01*
X130440691Y-67950499D01*
X130440694Y-67950499D01*
X130559306Y-67950499D01*
X130559309Y-67950499D01*
X130629429Y-67931710D01*
X130673885Y-67919800D01*
X130673887Y-67919799D01*
X130776614Y-67860489D01*
X130860489Y-67776614D01*
X130919799Y-67673887D01*
X130950499Y-67559309D01*
X130950499Y-67440691D01*
X130938587Y-67396233D01*
X130919800Y-67326114D01*
X130887245Y-67269729D01*
X130860489Y-67223386D01*
X130636614Y-66999511D01*
X130585250Y-66969856D01*
X130533888Y-66940201D01*
X130521780Y-66936957D01*
X130509673Y-66933713D01*
X130509670Y-66933712D01*
X130471478Y-66923478D01*
X130419309Y-66909500D01*
X130419308Y-66909500D01*
X130034500Y-66909500D01*
X129967461Y-66889815D01*
X129921706Y-66837011D01*
X129910500Y-66785500D01*
X129910500Y-66705249D01*
X129910499Y-66705247D01*
X129898868Y-66646770D01*
X129898867Y-66646769D01*
X129854552Y-66580447D01*
X129788230Y-66536132D01*
X129788229Y-66536131D01*
X129729752Y-66524500D01*
X129729748Y-66524500D01*
X129080252Y-66524500D01*
X129080247Y-66524500D01*
X129021770Y-66536131D01*
X129021769Y-66536132D01*
X128955447Y-66580447D01*
X128911132Y-66646769D01*
X128911131Y-66646770D01*
X128899500Y-66705247D01*
X123910499Y-66705247D01*
X123898868Y-66646770D01*
X123898867Y-66646769D01*
X123854552Y-66580447D01*
X123788230Y-66536132D01*
X123788229Y-66536131D01*
X123729752Y-66524500D01*
X123729748Y-66524500D01*
X123080252Y-66524500D01*
X123080247Y-66524500D01*
X123021770Y-66536131D01*
X123021769Y-66536132D01*
X122955447Y-66580447D01*
X122911132Y-66646769D01*
X122911131Y-66646770D01*
X122899500Y-66705247D01*
X109646804Y-66705247D01*
X109746521Y-66587851D01*
X109900338Y-66360988D01*
X109956152Y-66278669D01*
X109956152Y-66278667D01*
X109956157Y-66278661D01*
X110131135Y-65948617D01*
X110269403Y-65601590D01*
X110369341Y-65241648D01*
X110429776Y-64873011D01*
X110450000Y-64500000D01*
X110429776Y-64126989D01*
X110369341Y-63758352D01*
X110324337Y-63596264D01*
X110269405Y-63398415D01*
X110269404Y-63398413D01*
X110131139Y-63051392D01*
X110131130Y-63051374D01*
X109956157Y-62721339D01*
X109956153Y-62721333D01*
X109956152Y-62721330D01*
X109746522Y-62412150D01*
X109746514Y-62412140D01*
X109504684Y-62127437D01*
X109233483Y-61870541D01*
X109233470Y-61870531D01*
X109048958Y-61730267D01*
X109007501Y-61674026D01*
X109000000Y-61631552D01*
X109000000Y-58149994D01*
X110044958Y-58149994D01*
X110044958Y-58150005D01*
X110065103Y-58470221D01*
X110065104Y-58470228D01*
X110125230Y-58785417D01*
X110224382Y-59090575D01*
X110224384Y-59090580D01*
X110360998Y-59380897D01*
X110361003Y-59380907D01*
X110477855Y-59565035D01*
X110477856Y-59565036D01*
X111357603Y-58685289D01*
X111445377Y-58857554D01*
X111570278Y-59029466D01*
X111720534Y-59179722D01*
X111892446Y-59304623D01*
X112064709Y-59392396D01*
X111183951Y-60273153D01*
X111183952Y-60273154D01*
X111230933Y-60307288D01*
X111230952Y-60307300D01*
X111512116Y-60461871D01*
X111512124Y-60461875D01*
X111810444Y-60579987D01*
X112121233Y-60659784D01*
X112121242Y-60659786D01*
X112439556Y-60699999D01*
X112439570Y-60700000D01*
X112760430Y-60700000D01*
X112760443Y-60699999D01*
X113078757Y-60659786D01*
X113078766Y-60659784D01*
X113389555Y-60579987D01*
X113687875Y-60461875D01*
X113687876Y-60461874D01*
X113969060Y-60307291D01*
X113969066Y-60307288D01*
X114016046Y-60273154D01*
X114016046Y-60273153D01*
X113135289Y-59392396D01*
X113307554Y-59304623D01*
X113479466Y-59179722D01*
X113629722Y-59029466D01*
X113754623Y-58857554D01*
X113842396Y-58685289D01*
X114722142Y-59565036D01*
X114722143Y-59565035D01*
X114838994Y-59380909D01*
X114839005Y-59380890D01*
X114975615Y-59090580D01*
X114975617Y-59090575D01*
X115074769Y-58785417D01*
X115134895Y-58470228D01*
X115134896Y-58470221D01*
X115155042Y-58150005D01*
X115155042Y-58149994D01*
X115134896Y-57829778D01*
X115134895Y-57829771D01*
X115074769Y-57514582D01*
X114975617Y-57209424D01*
X114975615Y-57209419D01*
X114839001Y-56919101D01*
X114838993Y-56919086D01*
X114722143Y-56734963D01*
X113842396Y-57614709D01*
X113754623Y-57442446D01*
X113629722Y-57270534D01*
X113479466Y-57120278D01*
X113307554Y-56995377D01*
X113135289Y-56907603D01*
X114016047Y-56026845D01*
X114016046Y-56026843D01*
X113969071Y-55992714D01*
X113969053Y-55992702D01*
X113687883Y-55838128D01*
X113687875Y-55838124D01*
X113389555Y-55720012D01*
X113078766Y-55640215D01*
X113078757Y-55640213D01*
X112760443Y-55600000D01*
X112439556Y-55600000D01*
X112121242Y-55640213D01*
X112121233Y-55640215D01*
X111810444Y-55720012D01*
X111512124Y-55838124D01*
X111512116Y-55838128D01*
X111230943Y-55992704D01*
X111230941Y-55992706D01*
X111183952Y-56026844D01*
X111183952Y-56026845D01*
X112064710Y-56907603D01*
X111892446Y-56995377D01*
X111720534Y-57120278D01*
X111570278Y-57270534D01*
X111445377Y-57442446D01*
X111357603Y-57614710D01*
X110477855Y-56734962D01*
X110361001Y-56919096D01*
X110360998Y-56919102D01*
X110224384Y-57209419D01*
X110224382Y-57209424D01*
X110125230Y-57514582D01*
X110065104Y-57829771D01*
X110065103Y-57829778D01*
X110044958Y-58149994D01*
X109000000Y-58149994D01*
X109000000Y-55329500D01*
X109019685Y-55262461D01*
X109072489Y-55216706D01*
X109124000Y-55205500D01*
X118670500Y-55205500D01*
X118737539Y-55225185D01*
G37*
%TD.AperFunction*%
%TD*%
%TA.AperFunction,Conductor*%
%TO.N,+17V_SW*%
G36*
X146443039Y-53519685D02*
G01*
X146488794Y-53572489D01*
X146500000Y-53624000D01*
X146500000Y-60376000D01*
X146480315Y-60443039D01*
X146427511Y-60488794D01*
X146376000Y-60500000D01*
X136000000Y-60500000D01*
X136000000Y-65876000D01*
X135980315Y-65943039D01*
X135927511Y-65988794D01*
X135876000Y-66000000D01*
X119124000Y-66000000D01*
X119056961Y-65980315D01*
X119011206Y-65927511D01*
X119000000Y-65876000D01*
X119000000Y-57999994D01*
X119844958Y-57999994D01*
X119844958Y-58000005D01*
X119865103Y-58320221D01*
X119865104Y-58320228D01*
X119925230Y-58635417D01*
X120024382Y-58940575D01*
X120024384Y-58940580D01*
X120160998Y-59230897D01*
X120161003Y-59230907D01*
X120277855Y-59415035D01*
X120277856Y-59415036D01*
X121157603Y-58535289D01*
X121245377Y-58707554D01*
X121370278Y-58879466D01*
X121520534Y-59029722D01*
X121692446Y-59154623D01*
X121864709Y-59242396D01*
X120983951Y-60123153D01*
X120983952Y-60123154D01*
X121030933Y-60157288D01*
X121030952Y-60157300D01*
X121312116Y-60311871D01*
X121312124Y-60311875D01*
X121610444Y-60429987D01*
X121921233Y-60509784D01*
X121921242Y-60509786D01*
X122239556Y-60549999D01*
X122239570Y-60550000D01*
X122560430Y-60550000D01*
X122560443Y-60549999D01*
X122878757Y-60509786D01*
X122878766Y-60509784D01*
X123189555Y-60429987D01*
X123487875Y-60311875D01*
X123487876Y-60311874D01*
X123769060Y-60157291D01*
X123769066Y-60157288D01*
X123816046Y-60123154D01*
X123816046Y-60123153D01*
X122935289Y-59242396D01*
X123107554Y-59154623D01*
X123279466Y-59029722D01*
X123429722Y-58879466D01*
X123554623Y-58707554D01*
X123642396Y-58535289D01*
X124522143Y-59415036D01*
X124522143Y-59415035D01*
X124638994Y-59230909D01*
X124639005Y-59230890D01*
X124775615Y-58940580D01*
X124775617Y-58940575D01*
X124874769Y-58635417D01*
X124934895Y-58320228D01*
X124934896Y-58320221D01*
X124955042Y-58000005D01*
X124955042Y-57999994D01*
X124934896Y-57679778D01*
X124934895Y-57679771D01*
X124874769Y-57364582D01*
X124775617Y-57059424D01*
X124775615Y-57059419D01*
X124706273Y-56912061D01*
X127349500Y-56912061D01*
X127349500Y-59087924D01*
X127349501Y-59087939D01*
X127359696Y-59217484D01*
X127413596Y-59431395D01*
X127504826Y-59632243D01*
X127630449Y-59813568D01*
X127786431Y-59969550D01*
X127967756Y-60095173D01*
X127967757Y-60095173D01*
X127967761Y-60095176D01*
X128101875Y-60156093D01*
X128168604Y-60186403D01*
X128168605Y-60186403D01*
X128168607Y-60186404D01*
X128382515Y-60240304D01*
X128512067Y-60250500D01*
X130687932Y-60250499D01*
X130817485Y-60240304D01*
X131031393Y-60186404D01*
X131232239Y-60095176D01*
X131413567Y-59969551D01*
X131569551Y-59813567D01*
X131695176Y-59632239D01*
X131786404Y-59431393D01*
X131840304Y-59217485D01*
X131850500Y-59087933D01*
X131850499Y-56912068D01*
X131840304Y-56782515D01*
X131786404Y-56568607D01*
X131755239Y-56499994D01*
X137519443Y-56499994D01*
X137519443Y-56500005D01*
X137539634Y-56743683D01*
X137539636Y-56743695D01*
X137599663Y-56980734D01*
X137697888Y-57204666D01*
X137831632Y-57409378D01*
X137997242Y-57589277D01*
X137997252Y-57589286D01*
X138190208Y-57739470D01*
X138190212Y-57739473D01*
X138405267Y-57855855D01*
X138405270Y-57855856D01*
X138636541Y-57935251D01*
X138636543Y-57935251D01*
X138636545Y-57935252D01*
X138877737Y-57975500D01*
X138877738Y-57975500D01*
X139122262Y-57975500D01*
X139122263Y-57975500D01*
X139363455Y-57935252D01*
X139594733Y-57855855D01*
X139809788Y-57739473D01*
X140002754Y-57589281D01*
X140168368Y-57409377D01*
X140302111Y-57204667D01*
X140400336Y-56980736D01*
X140460364Y-56743692D01*
X140474872Y-56568607D01*
X140480557Y-56500005D01*
X140480557Y-56499994D01*
X140460365Y-56256316D01*
X140460363Y-56256304D01*
X140400336Y-56019265D01*
X140373531Y-55958156D01*
X140302111Y-55795333D01*
X140168368Y-55590623D01*
X140168367Y-55590621D01*
X140002757Y-55410722D01*
X140002747Y-55410713D01*
X139809791Y-55260529D01*
X139809787Y-55260526D01*
X139655731Y-55177155D01*
X142225000Y-55177155D01*
X142225000Y-56000000D01*
X143311803Y-56000000D01*
X143246740Y-56097374D01*
X143182665Y-56252064D01*
X143150000Y-56416282D01*
X143150000Y-56583718D01*
X143182665Y-56747936D01*
X143246740Y-56902626D01*
X143311803Y-57000000D01*
X142225000Y-57000000D01*
X142225000Y-57822844D01*
X142231401Y-57882372D01*
X142231403Y-57882379D01*
X142281645Y-58017086D01*
X142281649Y-58017093D01*
X142367809Y-58132187D01*
X142367812Y-58132190D01*
X142482906Y-58218350D01*
X142482913Y-58218354D01*
X142617620Y-58268596D01*
X142617627Y-58268598D01*
X142677155Y-58274999D01*
X142677172Y-58275000D01*
X143500000Y-58275000D01*
X143500000Y-57188197D01*
X143597374Y-57253260D01*
X143752064Y-57317335D01*
X143916282Y-57350000D01*
X144083718Y-57350000D01*
X144247936Y-57317335D01*
X144402626Y-57253260D01*
X144500000Y-57188197D01*
X144500000Y-58275000D01*
X145322828Y-58275000D01*
X145322844Y-58274999D01*
X145382372Y-58268598D01*
X145382379Y-58268596D01*
X145517086Y-58218354D01*
X145517093Y-58218350D01*
X145632187Y-58132190D01*
X145632190Y-58132187D01*
X145718350Y-58017093D01*
X145718354Y-58017086D01*
X145768596Y-57882379D01*
X145768598Y-57882372D01*
X145774999Y-57822844D01*
X145775000Y-57822827D01*
X145775000Y-57000000D01*
X144688197Y-57000000D01*
X144753260Y-56902626D01*
X144817335Y-56747936D01*
X144850000Y-56583718D01*
X144850000Y-56416282D01*
X144817335Y-56252064D01*
X144753260Y-56097374D01*
X144688197Y-56000000D01*
X145775000Y-56000000D01*
X145775000Y-55177172D01*
X145774999Y-55177155D01*
X145768598Y-55117627D01*
X145768596Y-55117620D01*
X145718354Y-54982913D01*
X145718350Y-54982906D01*
X145632190Y-54867812D01*
X145632187Y-54867809D01*
X145517093Y-54781649D01*
X145517086Y-54781645D01*
X145382379Y-54731403D01*
X145382372Y-54731401D01*
X145322844Y-54725000D01*
X144500000Y-54725000D01*
X144500000Y-55811802D01*
X144402626Y-55746740D01*
X144247936Y-55682665D01*
X144083718Y-55650000D01*
X143916282Y-55650000D01*
X143752064Y-55682665D01*
X143597374Y-55746740D01*
X143500000Y-55811802D01*
X143500000Y-54725000D01*
X142677155Y-54725000D01*
X142617627Y-54731401D01*
X142617620Y-54731403D01*
X142482913Y-54781645D01*
X142482906Y-54781649D01*
X142367812Y-54867809D01*
X142367809Y-54867812D01*
X142281649Y-54982906D01*
X142281645Y-54982913D01*
X142231403Y-55117620D01*
X142231401Y-55117627D01*
X142225000Y-55177155D01*
X139655731Y-55177155D01*
X139594734Y-55144145D01*
X139594729Y-55144143D01*
X139363458Y-55064748D01*
X139182561Y-55034562D01*
X139122263Y-55024500D01*
X138877737Y-55024500D01*
X138829498Y-55032549D01*
X138636541Y-55064748D01*
X138405270Y-55144143D01*
X138405265Y-55144145D01*
X138190212Y-55260526D01*
X138190208Y-55260529D01*
X137997252Y-55410713D01*
X137997242Y-55410722D01*
X137831632Y-55590621D01*
X137697888Y-55795333D01*
X137599663Y-56019265D01*
X137539636Y-56256304D01*
X137539634Y-56256316D01*
X137519443Y-56499994D01*
X131755239Y-56499994D01*
X131695176Y-56367761D01*
X131617966Y-56256316D01*
X131569550Y-56186431D01*
X131413568Y-56030449D01*
X131232243Y-55904826D01*
X131031395Y-55813596D01*
X130888787Y-55777662D01*
X130817485Y-55759696D01*
X130687933Y-55749500D01*
X130687931Y-55749500D01*
X128512075Y-55749500D01*
X128512060Y-55749501D01*
X128382515Y-55759696D01*
X128168604Y-55813596D01*
X127967756Y-55904826D01*
X127786431Y-56030449D01*
X127630449Y-56186431D01*
X127504826Y-56367756D01*
X127413596Y-56568604D01*
X127359696Y-56782515D01*
X127349500Y-56912061D01*
X124706273Y-56912061D01*
X124639001Y-56769101D01*
X124638993Y-56769086D01*
X124522143Y-56584963D01*
X123642396Y-57464709D01*
X123554623Y-57292446D01*
X123429722Y-57120534D01*
X123279466Y-56970278D01*
X123107554Y-56845377D01*
X122935289Y-56757603D01*
X123816047Y-55876845D01*
X123816046Y-55876843D01*
X123769071Y-55842714D01*
X123769053Y-55842702D01*
X123487883Y-55688128D01*
X123487875Y-55688124D01*
X123189555Y-55570012D01*
X122878766Y-55490215D01*
X122878757Y-55490213D01*
X122560443Y-55450000D01*
X122239556Y-55450000D01*
X121921242Y-55490213D01*
X121921233Y-55490215D01*
X121610444Y-55570012D01*
X121312124Y-55688124D01*
X121312116Y-55688128D01*
X121030943Y-55842704D01*
X121030941Y-55842706D01*
X120983952Y-55876844D01*
X120983952Y-55876845D01*
X121864710Y-56757603D01*
X121692446Y-56845377D01*
X121520534Y-56970278D01*
X121370278Y-57120534D01*
X121245377Y-57292446D01*
X121157603Y-57464710D01*
X120277855Y-56584962D01*
X120161001Y-56769096D01*
X120160998Y-56769102D01*
X120024384Y-57059419D01*
X120024382Y-57059424D01*
X119925230Y-57364582D01*
X119865104Y-57679771D01*
X119865103Y-57679778D01*
X119844958Y-57999994D01*
X119000000Y-57999994D01*
X119000000Y-55000000D01*
X120000000Y-55000000D01*
X120000000Y-53500000D01*
X146376000Y-53500000D01*
X146443039Y-53519685D01*
G37*
%TD.AperFunction*%
%TD*%
M02*
